<svg width="32" height="29" viewBox="0 0 32 29" fill="none" xmlns="http://www.w3.org/2000/svg">
<path d="M20 24.0217C20.0533 24.3842 19.92 24.7708 19.6133 25.0246C19.49 25.1366 19.3435 25.2255 19.1822 25.2861C19.0209 25.3467 18.8479 25.378 18.6733 25.378C18.4987 25.378 18.3258 25.3467 18.1645 25.2861C18.0032 25.2255 17.8567 25.1366 17.7333 25.0246L12.3867 20.1792C12.2412 20.0503 12.1307 19.8928 12.0636 19.7188C11.9965 19.5448 11.9747 19.3591 12 19.1763V12.9896L5.61333 5.5825C5.3968 5.3306 5.2991 5.01127 5.34158 4.69429C5.38405 4.37731 5.56324 4.08845 5.83999 3.89083C6.09333 3.72167 6.37333 3.625 6.66666 3.625H25.3333C25.6267 3.625 25.9067 3.72167 26.16 3.89083C26.4367 4.08845 26.6159 4.37731 26.6584 4.69429C26.7009 5.01127 26.6032 5.3306 26.3867 5.5825L20 12.9896V24.0217ZM9.38666 6.04167L14.6667 12.1558V18.8258L17.3333 21.2425V12.1438L22.6133 6.04167H9.38666Z" fill="black"/>
</svg>
