<svg width="300" height="60" viewBox="0 0 300 60" fill="none" xmlns="http://www.w3.org/2000/svg">
<rect width="300" height="60" rx="30" fill="#FFF5E0"/>
<path d="M93.9116 43V16.8182H110.326V20.2188H97.8619V28.196H109.47V31.5838H97.8619V39.5994H110.48V43H93.9116ZM136.735 16.8182V43H133.104L119.796 23.7983H119.553V43H115.603V16.8182H119.259L132.58 36.0455H132.823V16.8182H136.735ZM141.206 20.2188V16.8182H161.469V20.2188H153.3V43H149.363V20.2188H141.206ZM165.947 43V16.8182H182.362V20.2188H169.897V28.196H181.505V31.5838H169.897V39.5994H182.515V43H165.947ZM187.638 43V16.8182H196.971C198.999 16.8182 200.682 17.1676 202.02 17.8665C203.367 18.5653 204.373 19.5327 205.037 20.7685C205.702 21.9957 206.034 23.4148 206.034 25.0256C206.034 26.6278 205.698 28.0384 205.025 29.2571C204.36 30.4673 203.354 31.4091 202.007 32.0824C200.669 32.7557 198.986 33.0923 196.958 33.0923H189.888V29.6918H196.6C197.878 29.6918 198.918 29.5085 199.719 29.142C200.529 28.7756 201.121 28.2429 201.496 27.544C201.871 26.8452 202.059 26.0057 202.059 25.0256C202.059 24.0369 201.867 23.1804 201.483 22.456C201.108 21.7315 200.516 21.1776 199.706 20.794C198.905 20.402 197.853 20.206 196.549 20.206H191.588V43H187.638ZM200.563 31.1875L207.032 43H202.532L196.191 31.1875H200.563Z" fill="#141E46"/>
<path d="M45.4375 10.25C49.0717 10.25 52.6244 11.3937 55.6461 13.5363C58.6679 15.679 61.023 18.7245 62.4138 22.2877C63.8045 25.8508 64.1684 29.7716 63.4594 33.5543C62.7504 37.3369 61.0004 40.8115 58.4306 43.5386C55.8608 46.2657 52.5867 48.1229 49.0223 48.8753C45.4579 49.6277 41.7633 49.2416 38.4057 47.7656C35.0481 46.2897 32.1783 43.7904 30.1592 40.5836C28.1402 37.3769 27.0625 33.6067 27.0625 29.75C27.0625 24.5783 28.9984 19.6184 32.4444 15.9614C35.8904 12.3045 40.5641 10.25 45.4375 10.25ZM45.4375 7C41.1976 7 37.0528 8.33426 33.5275 10.8341C30.0021 13.3339 27.2544 16.8869 25.6318 21.044C24.0093 25.201 23.5847 29.7752 24.4119 34.1883C25.2391 38.6014 27.2808 42.655 30.2789 45.8367C33.277 49.0183 37.0968 51.1851 41.2553 52.0629C45.4137 52.9407 49.7241 52.4902 53.6413 50.7683C57.5585 49.0464 60.9066 46.1304 63.2621 42.3892C65.6177 38.648 66.875 34.2495 66.875 29.75C66.875 23.7163 64.6164 17.9298 60.5961 13.6633C56.5758 9.39687 51.1231 7 45.4375 7Z" fill="black"/>
<path d="M35.5312 40.7491C35.1251 40.7491 34.7357 40.5779 34.4485 40.2732C34.1613 39.9684 34 39.5551 34 39.1241V19.6241C34.0001 19.3472 34.0669 19.075 34.1941 18.8332C34.3212 18.5914 34.5044 18.3881 34.7264 18.2426C34.9484 18.097 35.2017 18.0141 35.4623 18.0016C35.723 17.9892 35.9823 18.0476 36.2157 18.1714L54.5907 27.9214C54.8447 28.0565 55.0583 28.2639 55.2076 28.5205C55.3568 28.777 55.4359 29.0726 55.4359 29.3741C55.4359 29.6757 55.3568 29.9712 55.2076 30.2278C55.0583 30.4843 54.8447 30.6918 54.5907 30.8269L36.2157 40.5769C36.0032 40.6898 35.7689 40.7488 35.5312 40.7491ZM37.0625 22.2534V36.4949L50.4824 29.3741L37.0625 22.2534Z" fill="black"/>
</svg>
