<svg width="154" height="63" viewBox="0 0 154 63" fill="none" xmlns="http://www.w3.org/2000/svg">
<rect width="147" height="63" rx="31.5" fill="#FFF5E0"/>
<path d="M64.032 21.24V39H61.848V21.24H64.032ZM72.5303 39.216C71.2983 39.216 70.1783 38.936 69.1703 38.376C68.1783 37.816 67.3943 37.024 66.8183 36C66.2582 34.96 65.9782 33.76 65.9782 32.4C65.9782 31.056 66.2663 29.872 66.8423 28.848C67.4343 27.808 68.2343 27.016 69.2423 26.472C70.2503 25.912 71.3783 25.632 72.6263 25.632C73.8743 25.632 75.0023 25.912 76.0103 26.472C77.0183 27.016 77.8103 27.8 78.3863 28.824C78.9783 29.848 79.2743 31.04 79.2743 32.4C79.2743 33.76 78.9703 34.96 78.3623 36C77.7703 37.024 76.9623 37.816 75.9383 38.376C74.9143 38.936 73.7783 39.216 72.5303 39.216ZM72.5303 37.296C73.3143 37.296 74.0503 37.112 74.7383 36.744C75.4263 36.376 75.9783 35.824 76.3943 35.088C76.8263 34.352 77.0423 33.456 77.0423 32.4C77.0423 31.344 76.8343 30.448 76.4183 29.712C76.0023 28.976 75.4583 28.432 74.7863 28.08C74.1143 27.712 73.3863 27.528 72.6023 27.528C71.8023 27.528 71.0663 27.712 70.3943 28.08C69.7383 28.432 69.2103 28.976 68.8103 29.712C68.4103 30.448 68.2103 31.344 68.2103 32.4C68.2103 33.472 68.4023 34.376 68.7863 35.112C69.1863 35.848 69.7143 36.4 70.3703 36.768C71.0263 37.12 71.7463 37.296 72.5303 37.296ZM86.6098 25.632C87.7458 25.632 88.7378 25.88 89.5858 26.376C90.4498 26.872 91.0898 27.496 91.5058 28.248V25.848H93.7138V39.288C93.7138 40.488 93.4578 41.552 92.9458 42.48C92.4338 43.424 91.6978 44.16 90.7378 44.688C89.7938 45.216 88.6898 45.48 87.4258 45.48C85.6978 45.48 84.2578 45.072 83.1058 44.256C81.9538 43.44 81.2738 42.328 81.0658 40.92H83.2258C83.4658 41.72 83.9618 42.36 84.7138 42.84C85.4658 43.336 86.3698 43.584 87.4258 43.584C88.6258 43.584 89.6018 43.208 90.3538 42.456C91.1218 41.704 91.5058 40.648 91.5058 39.288V36.528C91.0738 37.296 90.4338 37.936 89.5858 38.448C88.7378 38.96 87.7458 39.216 86.6098 39.216C85.4418 39.216 84.3778 38.928 83.4178 38.352C82.4738 37.776 81.7298 36.968 81.1858 35.928C80.6418 34.888 80.3698 33.704 80.3698 32.376C80.3698 31.032 80.6418 29.856 81.1858 28.848C81.7298 27.824 82.4738 27.032 83.4178 26.472C84.3778 25.912 85.4418 25.632 86.6098 25.632ZM91.5058 32.4C91.5058 31.408 91.3058 30.544 90.9058 29.808C90.5058 29.072 89.9618 28.512 89.2738 28.128C88.6018 27.728 87.8578 27.528 87.0418 27.528C86.2258 27.528 85.4818 27.72 84.8098 28.104C84.1378 28.488 83.6018 29.048 83.2018 29.784C82.8018 30.52 82.6018 31.384 82.6018 32.376C82.6018 33.384 82.8018 34.264 83.2018 35.016C83.6018 35.752 84.1378 36.32 84.8098 36.72C85.4818 37.104 86.2258 37.296 87.0418 37.296C87.8578 37.296 88.6018 37.104 89.2738 36.72C89.9618 36.32 90.5058 35.752 90.9058 35.016C91.3058 34.264 91.5058 33.392 91.5058 32.4ZM97.5726 23.712C97.1566 23.712 96.8046 23.568 96.5166 23.28C96.2286 22.992 96.0846 22.64 96.0846 22.224C96.0846 21.808 96.2286 21.456 96.5166 21.168C96.8046 20.88 97.1566 20.736 97.5726 20.736C97.9726 20.736 98.3086 20.88 98.5806 21.168C98.8686 21.456 99.0126 21.808 99.0126 22.224C99.0126 22.64 98.8686 22.992 98.5806 23.28C98.3086 23.568 97.9726 23.712 97.5726 23.712ZM98.6286 25.848V39H96.4446V25.848H98.6286ZM107.799 25.608C109.399 25.608 110.695 26.096 111.687 27.072C112.679 28.032 113.175 29.424 113.175 31.248V39H111.015V31.56C111.015 30.248 110.687 29.248 110.031 28.56C109.375 27.856 108.479 27.504 107.343 27.504C106.191 27.504 105.271 27.864 104.583 28.584C103.911 29.304 103.575 30.352 103.575 31.728V39H101.391V25.848H103.575V27.72C104.007 27.048 104.591 26.528 105.327 26.16C106.079 25.792 106.903 25.608 107.799 25.608Z" fill="#141E46"/>
<g style="mix-blend-mode:multiply">
<rect width="44" height="37" transform="matrix(-1 0 0 1 54 14)" fill="#F5F5F5"/>
<path d="M31.5832 16.9629C38.1359 16.9484 43.9023 19.7993 47.1981 24.1063C47.3441 24.2979 47.1809 24.5508 46.9102 24.5508H43.8895C43.6832 24.5508 43.4898 24.4749 43.3609 24.3412C43.0602 24.0341 42.7379 23.7378 42.3984 23.456C40.9977 22.2816 39.3691 21.3566 37.5559 20.7135C35.6824 20.0486 33.6887 19.709 31.6305 19.709C29.5723 19.709 27.5785 20.045 25.7051 20.7135C23.8918 21.3566 22.2633 22.2816 20.8625 23.456C19.4617 24.6303 18.366 25.9997 17.5969 27.5209C16.802 29.0963 16.4023 30.7692 16.4023 32.5C16.4023 34.2308 16.8063 35.9037 17.5969 37.4791C18.3617 39.0003 19.4617 40.3697 20.8625 41.544C22.2633 42.7184 23.8918 43.6434 25.7051 44.2865C27.58 44.9524 29.5952 45.2941 31.6305 45.291C33.6887 45.291 35.6824 44.9514 37.5559 44.2865C39.3656 43.644 41.0101 42.7127 42.3984 41.544C42.7379 41.2586 43.0559 40.9623 43.3609 40.6588C43.4898 40.5251 43.6875 40.4492 43.8895 40.4492H46.9102C47.1809 40.4492 47.3484 40.7021 47.1981 40.8937C43.9066 45.1898 38.166 48.0371 31.6305 48.0371C21.4813 48.0371 13.2398 41.1683 13.1367 32.659C13.0336 24.0124 21.2879 16.9846 31.5832 16.9629ZM37.0265 36.5469V33.8008H50.5187C50.7077 33.8008 50.8624 33.6707 50.8624 33.5117V31.4883C50.8624 31.3293 50.7077 31.1992 50.5187 31.1992H37.0265V28.4531C37.0265 28.211 36.6913 28.0737 36.4679 28.2255L30.3706 32.2724C30.3295 32.2994 30.2963 32.334 30.2735 32.3734C30.2506 32.4128 30.2387 32.4561 30.2387 32.5C30.2387 32.5439 30.2506 32.5872 30.2735 32.6266C30.2963 32.666 30.3295 32.7006 30.3706 32.7276L36.4679 36.7745C36.6913 36.9227 37.0265 36.789 37.0265 36.5469Z" fill="#FFF5E0"/>
<path d="M31.5832 16.9629C38.1359 16.9484 43.9023 19.7993 47.1981 24.1064C47.3441 24.2979 47.1809 24.5508 46.9102 24.5508H43.8895C43.6832 24.5508 43.4898 24.4749 43.3609 24.3412C43.0602 24.0341 42.7379 23.7378 42.3984 23.456C40.9977 22.2816 39.3691 21.3566 37.5559 20.7135C35.6824 20.0486 33.6887 19.709 31.6305 19.709C29.5723 19.709 27.5785 20.045 25.7051 20.7135C23.8918 21.3566 22.2633 22.2816 20.8625 23.456C19.4617 24.6303 18.366 25.9997 17.5969 27.5209C16.802 29.0963 16.4023 30.7692 16.4023 32.5C16.4023 34.2308 16.8063 35.9037 17.5969 37.4791C18.3617 39.0003 19.4617 40.3697 20.8625 41.544C22.2633 42.7184 23.8918 43.6434 25.7051 44.2865C27.58 44.9525 29.5952 45.2941 31.6305 45.291C33.6887 45.291 35.6824 44.9514 37.5559 44.2865C39.3656 43.6441 41.0101 42.7127 42.3984 41.544C42.7379 41.2586 43.0559 40.9623 43.3609 40.6588C43.4898 40.5251 43.6875 40.4492 43.8895 40.4492H46.9102C47.1809 40.4492 47.3484 40.7022 47.1981 40.8937C43.9066 45.1898 38.166 48.0371 31.6305 48.0371C21.4813 48.0371 13.2398 41.1683 13.1367 32.659C13.0336 24.0124 21.2879 16.9846 31.5832 16.9629ZM37.0265 36.5469V33.8008H50.5187C50.7077 33.8008 50.8624 33.6707 50.8624 33.5117V31.4883C50.8624 31.3293 50.7077 31.1992 50.5187 31.1992H37.0265V28.4531C37.0265 28.211 36.6913 28.0737 36.4679 28.2255L30.3706 32.2724C30.3295 32.2994 30.2963 32.334 30.2735 32.3734C30.2506 32.4128 30.2387 32.4561 30.2387 32.5C30.2387 32.5439 30.2506 32.5872 30.2735 32.6266C30.2963 32.6661 30.3295 32.7006 30.3706 32.7276L36.4679 36.7745C36.6913 36.9227 37.0265 36.789 37.0265 36.5469Z" fill="#141E46"/>
</g>
</svg>
