<svg width="184" height="46" viewBox="0 0 184 46" fill="none" xmlns="http://www.w3.org/2000/svg">
<path d="M21.4375 3.25C25.0717 3.25 28.6244 4.39365 31.6461 6.53634C34.6679 8.67903 37.023 11.7245 38.4138 15.2877C39.8046 18.8508 40.1684 22.7716 39.4594 26.5543C38.7504 30.3369 37.0004 33.8115 34.4306 36.5386C31.8608 39.2657 28.5867 41.1229 25.0223 41.8753C21.4579 42.6277 17.7633 42.2416 14.4057 40.7656C11.0481 39.2897 8.17833 36.7904 6.15926 33.5836C4.14018 30.3769 3.06251 26.6067 3.06251 22.75C3.06251 17.5783 4.99844 12.6184 8.44442 8.96142C11.8904 5.30446 16.5642 3.25 21.4375 3.25ZM21.4375 0C17.1976 0 13.0529 1.33426 9.52747 3.83407C6.00209 6.33387 3.2544 9.88693 1.63184 14.044C0.00928851 18.201 -0.415245 22.7752 0.411925 27.1883C1.2391 31.6014 3.28082 35.655 6.27891 38.8367C9.277 42.0183 13.0968 44.1851 17.2553 45.0629C21.4137 45.9407 25.7241 45.4902 29.6413 43.7683C33.5585 42.0464 36.9066 39.1304 39.2621 35.3892C41.6177 31.648 42.875 27.2495 42.875 22.75C42.875 16.7163 40.6164 10.9298 36.5961 6.66332C32.5758 2.39687 27.1231 0 21.4375 0Z" fill="black"/>
<path d="M11.5312 33.7491C11.1251 33.7491 10.7357 33.5779 10.4485 33.2732C10.1613 32.9684 10 32.5551 10 32.1241V12.6241C10.0001 12.3472 10.0669 12.075 10.1941 11.8332C10.3212 11.5914 10.5045 11.3881 10.7264 11.2426C10.9484 11.097 11.2017 11.0141 11.4624 11.0016C11.723 10.9892 11.9823 11.0476 12.2157 11.1714L30.5907 20.9214C30.8447 21.0565 31.0583 21.2639 31.2076 21.5205C31.3568 21.777 31.4359 22.0726 31.4359 22.3741C31.4359 22.6757 31.3568 22.9712 31.2076 23.2278C31.0583 23.4843 30.8447 23.6918 30.5907 23.8269L12.2157 33.5769C12.0032 33.6898 11.7689 33.7488 11.5312 33.7491ZM13.0625 15.2534V29.4949L26.4824 22.3741L13.0625 15.2534Z" fill="black"/>
<path d="M69.9116 36V9.81818H86.3264V13.2188H73.8619V21.196H85.4698V24.5838H73.8619V32.5994H86.4798V36H69.9116ZM112.735 9.81818V36H109.104L95.7962 16.7983H95.5533V36H91.603V9.81818H95.2592L108.58 29.0455H108.823V9.81818H112.735ZM117.206 13.2188V9.81818H137.469V13.2188H129.3V36H125.363V13.2188H117.206ZM141.947 36V9.81818H158.362V13.2188H145.897V21.196H157.505V24.5838H145.897V32.5994H158.515V36H141.947ZM163.638 36V9.81818H172.971C174.999 9.81818 176.682 10.1676 178.02 10.8665C179.367 11.5653 180.373 12.5327 181.037 13.7685C181.702 14.9957 182.034 16.4148 182.034 18.0256C182.034 19.6278 181.698 21.0384 181.025 22.2571C180.36 23.4673 179.354 24.4091 178.007 25.0824C176.669 25.7557 174.986 26.0923 172.958 26.0923H165.888V22.6918H172.6C173.878 22.6918 174.918 22.5085 175.719 22.142C176.529 21.7756 177.121 21.2429 177.496 20.544C177.871 19.8452 178.059 19.0057 178.059 18.0256C178.059 17.0369 177.867 16.1804 177.483 15.456C177.108 14.7315 176.516 14.1776 175.706 13.794C174.905 13.402 173.853 13.206 172.549 13.206H167.588V36H163.638ZM176.563 24.1875L183.032 36H178.532L172.191 24.1875H176.563Z" fill="#141E46"/>
</svg>
