<svg width="53" height="26" viewBox="0 0 53 26" fill="none" xmlns="http://www.w3.org/2000/svg">
<path d="M4.048 5.704V12.232H11.728V15.208H4.048V22.024H12.688V25H0.4V2.728H12.688V5.704H4.048ZM14.6853 16.104C14.6853 14.3333 15.0479 12.7653 15.7733 11.4C16.5199 10.0347 17.5226 8.97867 18.7813 8.232C20.0613 7.464 21.4799 7.08 23.0373 7.08C24.1893 7.08 25.3199 7.336 26.4293 7.848C27.5599 8.33867 28.4559 9 29.1173 9.832V1.32H32.7973V25H29.1173V22.344C28.5199 23.1973 27.6879 23.9013 26.6213 24.456C25.5759 25.0107 24.3706 25.288 23.0053 25.288C21.4693 25.288 20.0613 24.904 18.7813 24.136C17.5226 23.3467 16.5199 22.2587 15.7733 20.872C15.0479 19.464 14.6853 17.8747 14.6853 16.104ZM29.1173 16.168C29.1173 14.952 28.8613 13.896 28.3493 13C27.8586 12.104 27.2079 11.4213 26.3973 10.952C25.5866 10.4827 24.7119 10.248 23.7733 10.248C22.8346 10.248 21.9599 10.4827 21.1493 10.952C20.3386 11.4 19.6773 12.072 19.1653 12.968C18.6746 13.8427 18.4293 14.888 18.4293 16.104C18.4293 17.32 18.6746 18.3867 19.1653 19.304C19.6773 20.2213 20.3386 20.9253 21.1493 21.416C21.9813 21.8853 22.8559 22.12 23.7733 22.12C24.7119 22.12 25.5866 21.8853 26.3973 21.416C27.2079 20.9467 27.8586 20.264 28.3493 19.368C28.8613 18.4507 29.1173 17.384 29.1173 16.168ZM38.1647 5.032C37.5034 5.032 36.9487 4.808 36.5007 4.36C36.0527 3.912 35.8287 3.35733 35.8287 2.696C35.8287 2.03467 36.0527 1.48 36.5007 1.032C36.9487 0.583999 37.5034 0.359999 38.1647 0.359999C38.8047 0.359999 39.3487 0.583999 39.7967 1.032C40.2447 1.48 40.4687 2.03467 40.4687 2.696C40.4687 3.35733 40.2447 3.912 39.7967 4.36C39.3487 4.808 38.8047 5.032 38.1647 5.032ZM39.9567 7.368V25H36.3087V7.368H39.9567ZM47.7222 10.344V20.104C47.7222 20.7653 47.8716 21.2453 48.1703 21.544C48.4903 21.8213 49.0236 21.96 49.7703 21.96H52.0103V25H49.1302C47.4876 25 46.2289 24.616 45.3542 23.848C44.4796 23.08 44.0422 21.832 44.0422 20.104V10.344H41.9622V7.368H44.0422V2.984H47.7222V7.368H52.0103V10.344H47.7222Z" fill="#FFF5E0"/>
</svg>
