<svg width="57" height="60" viewBox="0 0 57 60" fill="none" xmlns="http://www.w3.org/2000/svg">
<path d="M10.9583 27.0833L27 0.833332L43.0417 27.0833H10.9583ZM43.0417 59.1667C39.3958 59.1667 36.2974 57.8911 33.7462 55.34C31.1951 52.7889 29.9186 49.6894 29.9167 46.0417C29.9167 42.3958 31.1932 39.2974 33.7462 36.7462C36.2993 34.1951 39.3978 32.9186 43.0417 32.9167C46.6875 32.9167 49.7869 34.1932 52.34 36.7462C54.8931 39.2993 56.1686 42.3978 56.1667 46.0417C56.1667 49.6875 54.8911 52.7869 52.34 55.34C49.7889 57.8931 46.6894 59.1686 43.0417 59.1667ZM0.75 57.7083V34.375H24.0833V57.7083H0.75Z" fill="#141E46"/>
</svg>
