<svg width="173" height="49" viewBox="0 0 173 49" fill="none" xmlns="http://www.w3.org/2000/svg">
<path d="M8.172 7.49V16.508C8.172 17.624 7.83 18.506 7.146 19.154C6.474 19.802 5.586 20.126 4.482 20.126C3.378 20.126 2.484 19.802 1.8 19.154C1.128 18.506 0.792 17.624 0.792 16.508H2.862C2.874 17.06 3.012 17.498 3.276 17.822C3.552 18.146 3.954 18.308 4.482 18.308C5.01 18.308 5.412 18.146 5.688 17.822C5.964 17.486 6.102 17.048 6.102 16.508V7.49H8.172ZM19.8802 14.798C19.8802 15.17 19.8562 15.506 19.8082 15.806H12.2302C12.2902 16.598 12.5842 17.234 13.1122 17.714C13.6402 18.194 14.2882 18.434 15.0562 18.434C16.1602 18.434 16.9402 17.972 17.3962 17.048H19.6102C19.3102 17.96 18.7642 18.71 17.9722 19.298C17.1922 19.874 16.2202 20.162 15.0562 20.162C14.1082 20.162 13.2562 19.952 12.5002 19.532C11.7562 19.1 11.1682 18.5 10.7362 17.732C10.3162 16.952 10.1062 16.052 10.1062 15.032C10.1062 14.012 10.3102 13.118 10.7182 12.35C11.1382 11.57 11.7202 10.97 12.4642 10.55C13.2202 10.13 14.0842 9.92 15.0562 9.92C15.9922 9.92 16.8262 10.124 17.5582 10.532C18.2902 10.94 18.8602 11.516 19.2682 12.26C19.6762 12.992 19.8802 13.838 19.8802 14.798ZM17.7382 14.15C17.7262 13.394 17.4562 12.788 16.9282 12.332C16.4002 11.876 15.7462 11.648 14.9662 11.648C14.2582 11.648 13.6522 11.876 13.1482 12.332C12.6442 12.776 12.3442 13.382 12.2482 14.15H17.7382ZM23.2315 11.522C23.5315 11.018 23.9275 10.628 24.4195 10.352C24.9235 10.064 25.5175 9.92 26.2015 9.92V12.044H25.6795C24.8755 12.044 24.2635 12.248 23.8435 12.656C23.4355 13.064 23.2315 13.772 23.2315 14.78V20H21.1795V10.082H23.2315V11.522ZM36.4577 14.798C36.4577 15.17 36.4337 15.506 36.3857 15.806H28.8077C28.8677 16.598 29.1617 17.234 29.6897 17.714C30.2177 18.194 30.8657 18.434 31.6337 18.434C32.7377 18.434 33.5177 17.972 33.9737 17.048H36.1877C35.8877 17.96 35.3417 18.71 34.5497 19.298C33.7697 19.874 32.7977 20.162 31.6337 20.162C30.6857 20.162 29.8337 19.952 29.0777 19.532C28.3337 19.1 27.7457 18.5 27.3137 17.732C26.8937 16.952 26.6837 16.052 26.6837 15.032C26.6837 14.012 26.8877 13.118 27.2957 12.35C27.7157 11.57 28.2977 10.97 29.0417 10.55C29.7977 10.13 30.6617 9.92 31.6337 9.92C32.5697 9.92 33.4037 10.124 34.1357 10.532C34.8677 10.94 35.4377 11.516 35.8457 12.26C36.2537 12.992 36.4577 13.838 36.4577 14.798ZM34.3157 14.15C34.3037 13.394 34.0337 12.788 33.5057 12.332C32.9777 11.876 32.3237 11.648 31.5437 11.648C30.8357 11.648 30.2297 11.876 29.7257 12.332C29.2217 12.776 28.9217 13.382 28.8257 14.15H34.3157ZM49.7631 9.92C50.5431 9.92 51.2391 10.082 51.8511 10.406C52.4751 10.73 52.9611 11.21 53.3091 11.846C53.6691 12.482 53.8491 13.25 53.8491 14.15V20H51.8151V14.456C51.8151 13.568 51.5931 12.89 51.1491 12.422C50.7051 11.942 50.0991 11.702 49.3311 11.702C48.5631 11.702 47.9511 11.942 47.4951 12.422C47.0511 12.89 46.8291 13.568 46.8291 14.456V20H44.7951V14.456C44.7951 13.568 44.5731 12.89 44.1291 12.422C43.6851 11.942 43.0791 11.702 42.3111 11.702C41.5431 11.702 40.9311 11.942 40.4751 12.422C40.0311 12.89 39.8091 13.568 39.8091 14.456V20H37.7571V10.082H39.8091V11.216C40.1451 10.808 40.5711 10.49 41.0871 10.262C41.6031 10.034 42.1551 9.92 42.7431 9.92C43.5351 9.92 44.2431 10.088 44.8671 10.424C45.4911 10.76 45.9711 11.246 46.3071 11.882C46.6071 11.282 47.0751 10.808 47.7111 10.46C48.3471 10.1 49.0311 9.92 49.7631 9.92ZM56.7842 8.768C56.4122 8.768 56.1002 8.642 55.8482 8.39C55.5962 8.138 55.4702 7.826 55.4702 7.454C55.4702 7.082 55.5962 6.77 55.8482 6.518C56.1002 6.266 56.4122 6.14 56.7842 6.14C57.1442 6.14 57.4502 6.266 57.7022 6.518C57.9542 6.77 58.0802 7.082 58.0802 7.454C58.0802 7.826 57.9542 8.138 57.7022 8.39C57.4502 8.642 57.1442 8.768 56.7842 8.768ZM57.7922 10.082V20H55.7402V10.082H57.7922ZM59.0823 14.996C59.0823 14 59.2863 13.118 59.6943 12.35C60.1143 11.582 60.6783 10.988 61.3863 10.568C62.1063 10.136 62.8983 9.92 63.7623 9.92C64.5423 9.92 65.2203 10.076 65.7963 10.388C66.3843 10.688 66.8523 11.066 67.2003 11.522V10.082H69.2703V20H67.2003V18.524C66.8523 18.992 66.3783 19.382 65.7783 19.694C65.1783 20.006 64.4943 20.162 63.7263 20.162C62.8743 20.162 62.0943 19.946 61.3863 19.514C60.6783 19.07 60.1143 18.458 59.6943 17.678C59.2863 16.886 59.0823 15.992 59.0823 14.996ZM67.2003 15.032C67.2003 14.348 67.0563 13.754 66.7683 13.25C66.4923 12.746 66.1263 12.362 65.6703 12.098C65.2143 11.834 64.7223 11.702 64.1943 11.702C63.6663 11.702 63.1743 11.834 62.7183 12.098C62.2623 12.35 61.8903 12.728 61.6023 13.232C61.3263 13.724 61.1883 14.312 61.1883 14.996C61.1883 15.68 61.3263 16.28 61.6023 16.796C61.8903 17.312 62.2623 17.708 62.7183 17.984C63.1863 18.248 63.6783 18.38 64.1943 18.38C64.7223 18.38 65.2143 18.248 65.6703 17.984C66.1263 17.72 66.4923 17.336 66.7683 16.832C67.0563 16.316 67.2003 15.716 67.2003 15.032ZM74.8455 20.162C74.0655 20.162 73.3635 20.024 72.7395 19.748C72.1275 19.46 71.6415 19.076 71.2815 18.596C70.9215 18.104 70.7295 17.558 70.7055 16.958H72.8295C72.8655 17.378 73.0635 17.732 73.4235 18.02C73.7955 18.296 74.2575 18.434 74.8095 18.434C75.3855 18.434 75.8295 18.326 76.1415 18.11C76.4655 17.882 76.6275 17.594 76.6275 17.246C76.6275 16.874 76.4475 16.598 76.0875 16.418C75.7395 16.238 75.1815 16.04 74.4135 15.824C73.6695 15.62 73.0635 15.422 72.5955 15.23C72.1275 15.038 71.7195 14.744 71.3715 14.348C71.0355 13.952 70.8675 13.43 70.8675 12.782C70.8675 12.254 71.0235 11.774 71.3355 11.342C71.6475 10.898 72.0915 10.55 72.6675 10.298C73.2555 10.046 73.9275 9.92 74.6835 9.92C75.8115 9.92 76.7175 10.208 77.4015 10.784C78.0975 11.348 78.4695 12.122 78.5175 13.106H76.4655C76.4295 12.662 76.2495 12.308 75.9255 12.044C75.6015 11.78 75.1635 11.648 74.6115 11.648C74.0715 11.648 73.6575 11.75 73.3695 11.954C73.0815 12.158 72.9375 12.428 72.9375 12.764C72.9375 13.028 73.0335 13.25 73.2255 13.43C73.4175 13.61 73.6515 13.754 73.9275 13.862C74.2035 13.958 74.6115 14.084 75.1515 14.24C75.8715 14.432 76.4595 14.63 76.9155 14.834C77.3835 15.026 77.7855 15.314 78.1215 15.698C78.4575 16.082 78.6315 16.592 78.6435 17.228C78.6435 17.792 78.4875 18.296 78.1755 18.74C77.8635 19.184 77.4195 19.532 76.8435 19.784C76.2795 20.036 75.6135 20.162 74.8455 20.162ZM88.2186 20.126C87.3786 20.126 86.6226 19.982 85.9506 19.694C85.2786 19.394 84.7506 18.974 84.3666 18.434C83.9826 17.894 83.7906 17.264 83.7906 16.544H85.9866C86.0346 17.084 86.2446 17.528 86.6166 17.876C87.0006 18.224 87.5346 18.398 88.2186 18.398C88.9266 18.398 89.4786 18.23 89.8746 17.894C90.2706 17.546 90.4686 17.102 90.4686 16.562C90.4686 16.142 90.3426 15.8 90.0906 15.536C89.8506 15.272 89.5446 15.068 89.1726 14.924C88.8126 14.78 88.3086 14.624 87.6606 14.456C86.8446 14.24 86.1786 14.024 85.6626 13.808C85.1586 13.58 84.7266 13.232 84.3666 12.764C84.0066 12.296 83.8266 11.672 83.8266 10.892C83.8266 10.172 84.0066 9.542 84.3666 9.002C84.7266 8.462 85.2306 8.048 85.8786 7.76C86.5266 7.472 87.2766 7.328 88.1286 7.328C89.3406 7.328 90.3306 7.634 91.0986 8.246C91.8786 8.846 92.3106 9.674 92.3946 10.73H90.1266C90.0906 10.274 89.8746 9.884 89.4786 9.56C89.0826 9.236 88.5606 9.074 87.9126 9.074C87.3246 9.074 86.8446 9.224 86.4726 9.524C86.1006 9.824 85.9146 10.256 85.9146 10.82C85.9146 11.204 86.0286 11.522 86.2566 11.774C86.4966 12.014 86.7966 12.206 87.1566 12.35C87.5166 12.494 88.0086 12.65 88.6326 12.818C89.4606 13.046 90.1326 13.274 90.6486 13.502C91.1766 13.73 91.6206 14.084 91.9806 14.564C92.3526 15.032 92.5386 15.662 92.5386 16.454C92.5386 17.09 92.3646 17.69 92.0166 18.254C91.6806 18.818 91.1826 19.274 90.5226 19.622C89.8746 19.958 89.1066 20.126 88.2186 20.126ZM96.2918 11.54C96.6398 11.084 97.1138 10.7 97.7138 10.388C98.3138 10.076 98.9918 9.92 99.7478 9.92C100.612 9.92 101.398 10.136 102.106 10.568C102.826 10.988 103.39 11.582 103.798 12.35C104.206 13.118 104.41 14 104.41 14.996C104.41 15.992 104.206 16.886 103.798 17.678C103.39 18.458 102.826 19.07 102.106 19.514C101.398 19.946 100.612 20.162 99.7478 20.162C98.9918 20.162 98.3198 20.012 97.7318 19.712C97.1438 19.4 96.6638 19.016 96.2918 18.56V24.716H94.2398V10.082H96.2918V11.54ZM102.322 14.996C102.322 14.312 102.178 13.724 101.89 13.232C101.614 12.728 101.242 12.35 100.774 12.098C100.318 11.834 99.8258 11.702 99.2978 11.702C98.7818 11.702 98.2898 11.834 97.8218 12.098C97.3658 12.362 96.9938 12.746 96.7058 13.25C96.4298 13.754 96.2918 14.348 96.2918 15.032C96.2918 15.716 96.4298 16.316 96.7058 16.832C96.9938 17.336 97.3658 17.72 97.8218 17.984C98.2898 18.248 98.7818 18.38 99.2978 18.38C99.8258 18.38 100.318 18.248 100.774 17.984C101.242 17.708 101.614 17.312 101.89 16.796C102.178 16.28 102.322 15.68 102.322 14.996ZM107.771 11.522C108.071 11.018 108.467 10.628 108.959 10.352C109.463 10.064 110.057 9.92 110.741 9.92V12.044H110.219C109.415 12.044 108.803 12.248 108.383 12.656C107.975 13.064 107.771 13.772 107.771 14.78V20H105.719V10.082H107.771V11.522ZM112.951 8.768C112.579 8.768 112.267 8.642 112.015 8.39C111.763 8.138 111.637 7.826 111.637 7.454C111.637 7.082 111.763 6.77 112.015 6.518C112.267 6.266 112.579 6.14 112.951 6.14C113.311 6.14 113.617 6.266 113.869 6.518C114.121 6.77 114.247 7.082 114.247 7.454C114.247 7.826 114.121 8.138 113.869 8.39C113.617 8.642 113.311 8.768 112.951 8.768ZM113.959 10.082V20H111.907V10.082H113.959ZM120.937 9.92C121.717 9.92 122.413 10.082 123.025 10.406C123.649 10.73 124.135 11.21 124.483 11.846C124.831 12.482 125.005 13.25 125.005 14.15V20H122.971V14.456C122.971 13.568 122.749 12.89 122.305 12.422C121.861 11.942 121.255 11.702 120.487 11.702C119.719 11.702 119.107 11.942 118.651 12.422C118.207 12.89 117.985 13.568 117.985 14.456V20H115.933V10.082H117.985V11.216C118.321 10.808 118.747 10.49 119.263 10.262C119.791 10.034 120.349 9.92 120.937 9.92ZM130.899 9.92C131.667 9.92 132.345 10.076 132.933 10.388C133.533 10.688 134.001 11.066 134.337 11.522V10.082H136.407V20.162C136.407 21.074 136.215 21.884 135.831 22.592C135.447 23.312 134.889 23.876 134.157 24.284C133.437 24.692 132.573 24.896 131.565 24.896C130.221 24.896 129.105 24.578 128.217 23.942C127.329 23.318 126.825 22.466 126.705 21.386H128.739C128.895 21.902 129.225 22.316 129.729 22.628C130.245 22.952 130.857 23.114 131.565 23.114C132.393 23.114 133.059 22.862 133.563 22.358C134.079 21.854 134.337 21.122 134.337 20.162V18.506C133.989 18.974 133.515 19.37 132.915 19.694C132.327 20.006 131.655 20.162 130.899 20.162C130.035 20.162 129.243 19.946 128.523 19.514C127.815 19.07 127.251 18.458 126.831 17.678C126.423 16.886 126.219 15.992 126.219 14.996C126.219 14 126.423 13.118 126.831 12.35C127.251 11.582 127.815 10.988 128.523 10.568C129.243 10.136 130.035 9.92 130.899 9.92ZM134.337 15.032C134.337 14.348 134.193 13.754 133.905 13.25C133.629 12.746 133.263 12.362 132.807 12.098C132.351 11.834 131.859 11.702 131.331 11.702C130.803 11.702 130.311 11.834 129.855 12.098C129.399 12.35 129.027 12.728 128.739 13.232C128.463 13.724 128.325 14.312 128.325 14.996C128.325 15.68 128.463 16.28 128.739 16.796C129.027 17.312 129.399 17.708 129.855 17.984C130.323 18.248 130.815 18.38 131.331 18.38C131.859 18.38 132.351 18.248 132.807 17.984C133.263 17.72 133.629 17.336 133.905 16.832C134.193 16.316 134.337 15.716 134.337 15.032ZM142.54 11.756H140.704V20H138.634V11.756H137.464V10.082H138.634V9.38C138.634 8.24 138.934 7.412 139.534 6.896C140.146 6.368 141.1 6.104 142.396 6.104V7.814C141.772 7.814 141.334 7.934 141.082 8.174C140.83 8.402 140.704 8.804 140.704 9.38V10.082H142.54V11.756ZM144.683 8.768C144.311 8.768 143.999 8.642 143.747 8.39C143.495 8.138 143.369 7.826 143.369 7.454C143.369 7.082 143.495 6.77 143.747 6.518C143.999 6.266 144.311 6.14 144.683 6.14C145.043 6.14 145.349 6.266 145.601 6.518C145.853 6.77 145.979 7.082 145.979 7.454C145.979 7.826 145.853 8.138 145.601 8.39C145.349 8.642 145.043 8.768 144.683 8.768ZM145.691 10.082V20H143.639V10.082H145.691ZM156.755 14.798C156.755 15.17 156.731 15.506 156.683 15.806H149.105C149.165 16.598 149.459 17.234 149.987 17.714C150.515 18.194 151.163 18.434 151.931 18.434C153.035 18.434 153.815 17.972 154.271 17.048H156.485C156.185 17.96 155.639 18.71 154.847 19.298C154.067 19.874 153.095 20.162 151.931 20.162C150.983 20.162 150.131 19.952 149.375 19.532C148.631 19.1 148.043 18.5 147.611 17.732C147.191 16.952 146.981 16.052 146.981 15.032C146.981 14.012 147.185 13.118 147.593 12.35C148.013 11.57 148.595 10.97 149.339 10.55C150.095 10.13 150.959 9.92 151.931 9.92C152.867 9.92 153.701 10.124 154.433 10.532C155.165 10.94 155.735 11.516 156.143 12.26C156.551 12.992 156.755 13.838 156.755 14.798ZM154.613 14.15C154.601 13.394 154.331 12.788 153.803 12.332C153.275 11.876 152.621 11.648 151.841 11.648C151.133 11.648 150.527 11.876 150.023 12.332C149.519 12.776 149.219 13.382 149.123 14.15H154.613ZM160.106 6.68V20H158.054V6.68H160.106ZM161.396 14.996C161.396 14 161.6 13.118 162.008 12.35C162.428 11.582 162.992 10.988 163.7 10.568C164.42 10.136 165.218 9.92 166.094 9.92C166.742 9.92 167.378 10.064 168.002 10.352C168.638 10.628 169.142 11 169.514 11.468V6.68H171.584V20H169.514V18.506C169.178 18.986 168.71 19.382 168.11 19.694C167.522 20.006 166.844 20.162 166.076 20.162C165.212 20.162 164.42 19.946 163.7 19.514C162.992 19.07 162.428 18.458 162.008 17.678C161.6 16.886 161.396 15.992 161.396 14.996ZM169.514 15.032C169.514 14.348 169.37 13.754 169.082 13.25C168.806 12.746 168.44 12.362 167.984 12.098C167.528 11.834 167.036 11.702 166.508 11.702C165.98 11.702 165.488 11.834 165.032 12.098C164.576 12.35 164.204 12.728 163.916 13.232C163.64 13.724 163.502 14.312 163.502 14.996C163.502 15.68 163.64 16.28 163.916 16.796C164.204 17.312 164.576 17.708 165.032 17.984C165.5 18.248 165.992 18.38 166.508 18.38C167.036 18.38 167.528 18.248 167.984 17.984C168.44 17.72 168.806 17.336 169.082 16.832C169.37 16.316 169.514 15.716 169.514 15.032Z" fill="#141E46"/>
<path d="M13.802 39.21H8.33L7.322 42H5.594L10.13 29.526H12.02L16.538 42H14.81L13.802 39.21ZM13.334 37.878L11.066 31.542L8.798 37.878H13.334ZM17.1829 37.032C17.1829 36.024 17.3869 35.142 17.7949 34.386C18.2029 33.618 18.7609 33.024 19.4689 32.604C20.1889 32.184 20.9929 31.974 21.8809 31.974C22.6489 31.974 23.3629 32.154 24.0229 32.514C24.6829 32.862 25.1869 33.324 25.5349 33.9V28.68H27.1909V42H25.5349V40.146C25.2109 40.734 24.7309 41.22 24.0949 41.604C23.4589 41.976 22.7149 42.162 21.8629 42.162C20.9869 42.162 20.1889 41.946 19.4689 41.514C18.7609 41.082 18.2029 40.476 17.7949 39.696C17.3869 38.916 17.1829 38.028 17.1829 37.032ZM25.5349 37.05C25.5349 36.306 25.3849 35.658 25.0849 35.106C24.7849 34.554 24.3769 34.134 23.8609 33.846C23.3569 33.546 22.7989 33.396 22.1869 33.396C21.5749 33.396 21.0169 33.54 20.5129 33.828C20.0089 34.116 19.6069 34.536 19.3069 35.088C19.0069 35.64 18.8569 36.288 18.8569 37.032C18.8569 37.788 19.0069 38.448 19.3069 39.012C19.6069 39.564 20.0089 39.99 20.5129 40.29C21.0169 40.578 21.5749 40.722 22.1869 40.722C22.7989 40.722 23.3569 40.578 23.8609 40.29C24.3769 39.99 24.7849 39.564 25.0849 39.012C25.3849 38.448 25.5349 37.794 25.5349 37.05ZM41.101 31.956C41.869 31.956 42.553 32.118 43.153 32.442C43.753 32.754 44.227 33.228 44.575 33.864C44.923 34.5 45.097 35.274 45.097 36.186V42H43.477V36.42C43.477 35.436 43.231 34.686 42.739 34.17C42.259 33.642 41.605 33.378 40.777 33.378C39.925 33.378 39.247 33.654 38.743 34.206C38.239 34.746 37.987 35.532 37.987 36.564V42H36.367V36.42C36.367 35.436 36.121 34.686 35.629 34.17C35.149 33.642 34.495 33.378 33.667 33.378C32.815 33.378 32.137 33.654 31.633 34.206C31.129 34.746 30.877 35.532 30.877 36.564V42H29.239V32.136H30.877V33.558C31.201 33.042 31.633 32.646 32.173 32.37C32.725 32.094 33.331 31.956 33.991 31.956C34.819 31.956 35.551 32.142 36.187 32.514C36.823 32.886 37.297 33.432 37.609 34.152C37.885 33.456 38.341 32.916 38.977 32.532C39.613 32.148 40.321 31.956 41.101 31.956ZM47.9099 30.534C47.5979 30.534 47.3339 30.426 47.1179 30.21C46.9019 29.994 46.7939 29.73 46.7939 29.418C46.7939 29.106 46.9019 28.842 47.1179 28.626C47.3339 28.41 47.5979 28.302 47.9099 28.302C48.2099 28.302 48.4619 28.41 48.6659 28.626C48.8819 28.842 48.9899 29.106 48.9899 29.418C48.9899 29.73 48.8819 29.994 48.6659 30.21C48.4619 30.426 48.2099 30.534 47.9099 30.534ZM48.7019 32.136V42H47.0639V32.136H48.7019ZM55.5796 31.956C56.7796 31.956 57.7516 32.322 58.4956 33.054C59.2396 33.774 59.6116 34.818 59.6116 36.186V42H57.9916V36.42C57.9916 35.436 57.7456 34.686 57.2536 34.17C56.7616 33.642 56.0896 33.378 55.2376 33.378C54.3736 33.378 53.6836 33.648 53.1676 34.188C52.6636 34.728 52.4116 35.514 52.4116 36.546V42H50.7736V32.136H52.4116V33.54C52.7356 33.036 53.1736 32.646 53.7256 32.37C54.2896 32.094 54.9076 31.956 55.5796 31.956Z" fill="#141E46"/>
</svg>
