<svg width="40" height="47" viewBox="0 0 40 47" fill="none" xmlns="http://www.w3.org/2000/svg">
<path d="M19.5642 0.404302C26.4148 0.382818 32.4433 4.62061 35.8888 11.023C36.0416 11.3076 35.8709 11.6836 35.5879 11.6836H32.4299C32.2142 11.6836 32.0121 11.5708 31.8773 11.3721C31.5629 10.9155 31.226 10.4751 30.8711 10.0562C29.4066 8.31055 27.7041 6.93555 25.8084 5.9795C23.8498 4.99122 21.7654 4.48633 19.6137 4.48633C17.4619 4.48633 15.3775 4.98584 13.4189 5.9795C11.5232 6.93555 9.82069 8.31055 8.35623 10.0562C6.89178 11.8018 5.74627 13.8374 4.94217 16.0986C4.11111 18.4404 3.69334 20.9272 3.69334 23.5C3.69334 26.0728 4.11561 28.5596 4.94217 30.9014C5.74178 33.1626 6.89178 35.1982 8.35623 36.9439C9.82069 38.6895 11.5232 40.0645 13.4189 41.0205C15.3791 42.0104 17.4858 42.5182 19.6137 42.5137C21.7654 42.5137 23.8498 42.0088 25.8084 41.0205C27.7004 40.0655 29.4196 38.6811 30.8711 36.9439C31.226 36.5195 31.5584 36.0791 31.8773 35.6279C32.0121 35.4292 32.2187 35.3164 32.4299 35.3164H35.5879C35.8709 35.3164 36.0461 35.6924 35.8888 35.9771C32.4478 42.3633 26.4463 46.5957 19.6137 46.5957C9.00311 46.5957 0.387093 36.3853 0.279282 23.7363C0.171467 10.8833 8.80096 0.436528 19.5642 0.404302ZM25.2549 29.5156V25.4336H39.3604C39.5581 25.4336 39.7198 25.2402 39.7198 25.0039V21.9961C39.7198 21.7598 39.5581 21.5664 39.3604 21.5664H25.2549V17.4844C25.2549 17.1245 24.9046 16.9204 24.671 17.146L18.2965 23.1616C18.2536 23.2018 18.2189 23.2532 18.195 23.3118C18.1711 23.3704 18.1587 23.4348 18.1587 23.5C18.1587 23.5652 18.1711 23.6296 18.195 23.6882C18.2189 23.7468 18.2536 23.7982 18.2965 23.8384L24.671 29.854C24.9046 30.0742 25.2549 29.8755 25.2549 29.5156Z" fill="#FFF5E0"/>
</svg>
