<svg width="33" height="32" viewBox="0 0 33 32" fill="none" xmlns="http://www.w3.org/2000/svg">
<path d="M10.2144 16H18.0715M10.2144 19.0476H21.2144M10.2144 22.0952H14.9287M25.9287 23.619V12.9524L18.0715 5.33333H10.2144C9.38085 5.33333 8.58145 5.65442 7.99205 6.22596C7.40265 6.79749 7.07153 7.57267 7.07153 8.38095V23.619C7.07153 24.4273 7.40265 25.2025 7.99205 25.774C8.58145 26.3456 9.38085 26.6667 10.2144 26.6667H22.7858C23.6194 26.6667 24.4188 26.3456 25.0082 25.774C25.5976 25.2025 25.9287 24.4273 25.9287 23.619Z" stroke="#FFF5E0" stroke-linecap="round" stroke-linejoin="round"/>
<path d="M18.0715 5.33333V9.90476C18.0715 10.713 18.4027 11.4882 18.9921 12.0597C19.5815 12.6313 20.3809 12.9524 21.2144 12.9524H25.9287" stroke="#FFF5E0" stroke-linecap="round" stroke-linejoin="round"/>
</svg>
