<svg width="33" height="32" viewBox="0 0 33 32" fill="none" xmlns="http://www.w3.org/2000/svg">
<g clip-path="url(#clip0_340_25)">
<path d="M13.0896 3.21001C13.2493 2.54184 13.6472 1.94984 14.2132 1.53847C14.7792 1.1271 15.4768 0.922799 16.183 0.961624C16.8891 1.00045 17.5585 1.2799 18.0729 1.75067C18.5873 2.22144 18.9136 2.85326 18.9944 3.53465C19.0752 4.21603 18.9052 4.90319 18.5143 5.47485C18.1235 6.04652 17.537 6.46595 16.8584 6.65914C16.1797 6.85233 15.4525 6.80685 14.805 6.53073C14.1575 6.25462 13.6315 5.76561 13.3196 5.15001C11.4211 5.56922 9.65631 6.42996 8.17735 7.658C6.6984 8.88604 5.54971 10.4445 4.83035 12.199L2.99988 11.501C3.84721 9.42 5.21165 7.57424 6.97189 6.12781C8.73213 4.68137 10.8337 3.67907 13.0896 3.21001ZM15.9998 4.84801C16.1338 4.85218 16.2673 4.83019 16.3924 4.78335C16.5174 4.7365 16.6315 4.66576 16.7278 4.57532C16.8241 4.48488 16.9007 4.37659 16.953 4.25689C17.0053 4.13719 17.0322 4.00851 17.0322 3.87851C17.0322 3.7485 17.0053 3.61982 16.953 3.50012C16.9007 3.38042 16.8241 3.27213 16.7278 3.18169C16.6315 3.09125 16.5174 3.02051 16.3924 2.97366C16.2673 2.92682 16.1338 2.90483 15.9998 2.90901C15.7345 2.90901 15.4801 3.0112 15.2925 3.19311C15.1049 3.37502 14.9995 3.62175 14.9995 3.87901C14.9995 4.13627 15.1049 4.38299 15.2925 4.5649C15.4801 4.74681 15.7345 4.84801 15.9998 4.84801ZM20.4002 5.65401L21.1396 3.88001C23.2856 4.70166 25.189 6.02475 26.6807 7.73165C28.1723 9.43855 29.2059 11.4764 29.6897 13.664C30.3787 13.8188 30.9892 14.2047 31.4134 14.7535C31.8377 15.3023 32.0483 15.9788 32.0083 16.6636C31.9683 17.3484 31.6801 17.9974 31.1946 18.4962C30.7091 18.995 30.0576 19.3115 29.3549 19.3898C28.6522 19.4682 27.9436 19.3033 27.354 18.9243C26.7645 18.5453 26.332 17.9766 26.1327 17.3185C25.9335 16.6604 25.9804 15.9552 26.2652 15.3274C26.5499 14.6995 27.0542 14.1894 27.689 13.887C27.2549 12.0439 26.3644 10.331 25.0944 8.89654C23.8245 7.46206 22.2133 6.34914 20.4002 5.65401ZM29.0008 17.456C29.1322 17.456 29.2622 17.4309 29.3836 17.3822C29.505 17.3334 29.6152 17.262 29.7081 17.1719C29.801 17.0818 29.8747 16.9749 29.925 16.8572C29.9752 16.7395 30.0011 16.6134 30.0011 16.486C30.0011 16.3586 29.9752 16.2325 29.925 16.1148C29.8747 15.9971 29.801 15.8902 29.7081 15.8001C29.6152 15.71 29.505 15.6386 29.3836 15.5898C29.2622 15.5411 29.1322 15.516 29.0008 15.516C28.7355 15.516 28.4811 15.6182 28.2935 15.8001C28.1059 15.982 28.0005 16.2287 28.0005 16.486C28.0005 16.7433 28.1059 16.99 28.2935 17.1719C28.4811 17.3538 28.7355 17.456 29.0008 17.456ZM15.9998 26.183C16.5577 26.1848 17.104 26.3373 17.5775 26.6234C18.0509 26.9096 18.4327 27.3181 18.68 27.803C20.5788 27.3838 22.3439 26.523 23.8231 25.2948C25.3022 24.0666 26.451 22.5078 27.1703 20.753L28.9998 21.47C28.1497 23.5545 26.7807 25.4026 25.0149 26.8493C23.2491 28.2959 21.1415 29.2963 18.8801 29.761C18.7502 30.2949 18.4673 30.7823 18.0641 31.167C17.6609 31.5517 17.1538 31.8181 16.6012 31.9354C16.0486 32.0527 15.4731 32.0162 14.941 31.8301C14.4089 31.6439 13.9419 31.3157 13.5938 30.8833C13.2457 30.451 13.0308 29.932 12.9737 29.3862C12.9167 28.8405 13.0198 28.2903 13.2714 27.7989C13.5229 27.3076 13.9124 26.8952 14.3952 26.6093C14.8779 26.3234 15.4342 26.1756 15.9998 26.183ZM15.9998 30.062C16.2651 30.062 16.5196 29.9598 16.7071 29.7779C16.8947 29.596 17.0001 29.3493 17.0001 29.092C17.0001 28.8347 16.8947 28.588 16.7071 28.4061C16.5196 28.2242 16.2651 28.122 15.9998 28.122C15.7345 28.122 15.4801 28.2242 15.2925 28.4061C15.1049 28.588 14.9995 28.8347 14.9995 29.092C14.9995 29.3493 15.1049 29.596 15.2925 29.7779C15.4801 29.9598 15.7345 30.062 15.9998 30.062ZM-2.35438e-05 16.485C-0.00185136 15.9658 0.139612 15.4556 0.409695 15.0072C0.679777 14.5589 1.06864 14.1888 1.53595 13.9354C2.00326 13.6819 2.53199 13.5543 3.0673 13.5658C3.60261 13.5773 4.125 13.7274 4.58029 14.0007C5.03557 14.274 5.40717 14.6604 5.65653 15.1198C5.90589 15.5793 6.02394 16.0951 5.99842 16.6137C5.97291 17.1324 5.80476 17.6349 5.51142 18.0693C5.21808 18.5037 4.81024 18.854 4.33019 19.084C4.76261 20.9251 5.65041 22.6365 6.91701 24.0706C8.18361 25.5048 9.791 26.6186 11.6005 27.316L10.8601 29.091C8.71041 28.2667 6.80461 26.9392 5.31272 25.2269C3.82082 23.5146 2.78923 21.4709 2.30998 19.278C1.659 19.1287 1.07812 18.7728 0.659598 18.2668C0.241078 17.7607 0.00891416 17.1336 -2.35438e-05 16.485ZM3.00091 17.455C3.26621 17.455 3.52065 17.3528 3.70824 17.1709C3.89584 16.989 4.00123 16.7423 4.00123 16.485C4.00123 16.2277 3.89584 15.981 3.70824 15.7991C3.52065 15.6172 3.26621 15.515 3.00091 15.515C2.73561 15.515 2.48118 15.6172 2.29359 15.7991C2.10599 15.981 2.0006 16.2277 2.0006 16.485C2.0006 16.7423 2.10599 16.989 2.29359 17.1709C2.48118 17.3528 2.73561 17.455 3.00091 17.455Z" fill="#FFF5E0"/>
<path d="M13.2103 16.35C12.6413 15.8113 12.2509 15.1203 12.0888 14.3654C11.9267 13.6104 12.0003 12.8258 12.3002 12.1116C12.6002 11.3974 13.1128 10.7861 13.7727 10.3558C14.4326 9.92549 15.2098 9.69565 16.005 9.69565C16.8002 9.69565 17.5774 9.92549 18.2373 10.3558C18.8972 10.7861 19.4098 11.3974 19.7098 12.1116C20.0097 12.8258 20.0833 13.6104 19.9212 14.3654C19.7591 15.1203 19.3686 15.8113 18.7997 16.35C19.4768 16.7938 20.0314 17.3917 20.4151 18.0915C20.7987 18.7912 20.9997 19.5715 21.0004 20.364V22.303H11.0003V20.363C11.0021 19.5697 11.2045 18.7889 11.5897 18.0891C11.975 17.3893 12.5315 16.7928 13.2103 16.35ZM18.0005 13.575C18.0005 13.3202 17.9487 13.068 17.8482 12.8326C17.7476 12.5972 17.6003 12.3834 17.4145 12.2032C17.2287 12.0231 17.0082 11.8802 16.7654 11.7827C16.5227 11.6852 16.2626 11.635 15.9998 11.635C15.7371 11.635 15.477 11.6852 15.2342 11.7827C14.9915 11.8802 14.771 12.0231 14.5852 12.2032C14.3994 12.3834 14.252 12.5972 14.1515 12.8326C14.051 13.068 13.9992 13.3202 13.9992 13.575C13.9992 14.0895 14.21 14.583 14.5852 14.9468C14.9604 15.3106 15.4692 15.515 15.9998 15.515C16.5304 15.515 17.0393 15.3106 17.4145 14.9468C17.7897 14.583 18.0005 14.0895 18.0005 13.575ZM19.0008 20.363C19.0082 19.9764 18.936 19.5922 18.7886 19.2329C18.6411 18.8737 18.4213 18.5465 18.1419 18.2705C17.8626 17.9946 17.5293 17.7754 17.1616 17.6258C16.7939 17.4761 16.3991 17.3991 16.0003 17.3991C15.6016 17.3991 15.2068 17.4761 14.8391 17.6258C14.4714 17.7754 14.1381 17.9946 13.8588 18.2705C13.5794 18.5465 13.3596 18.8737 13.2121 19.2329C13.0647 19.5922 12.9925 19.9764 12.9999 20.363H19.0008Z" fill="#FFF5E0"/>
</g>
<defs>
<clipPath id="clip0_340_25">
<rect width="33" height="32" fill="white" transform="matrix(-1 0 0 1 33 0)"/>
</clipPath>
</defs>
</svg>
