<svg width="33" height="32" viewBox="0 0 33 32" fill="none" xmlns="http://www.w3.org/2000/svg">
<path d="M10.3125 3V5H6.63815L10.1186 8.406C11.3626 7.49497 12.8786 7.00143 14.4375 7C16.3659 7 18.1665 7.74 19.5298 9.063C20.2037 9.70858 20.7387 10.4775 21.1038 11.3251C21.4689 12.1727 21.6569 13.0821 21.6568 14.0007C21.6567 14.9193 21.4686 15.8287 21.1033 16.6762C20.738 17.5238 20.2028 18.2926 19.5288 18.938C18.6316 19.808 17.5632 20.433 16.3711 20.75C16.2535 20.663 16.1215 20.572 16.0163 20.47C15.5841 20.0437 15.2735 19.5158 15.115 18.938C16.2379 18.8041 17.2819 18.3086 18.0799 17.531C19.0534 16.588 19.5937 15.336 19.5937 14C19.5937 12.664 19.0523 11.414 18.0778 10.47C17.1064 9.523 15.8152 9 14.4375 9C13.0597 9 11.7696 9.525 10.7972 10.47C10.3162 10.9319 9.93453 11.4817 9.67431 12.0876C9.41408 12.6936 9.28048 13.3436 9.28124 14C9.28124 14.865 9.5339 15.67 9.95774 16.406C9.85874 16.922 9.79687 17.464 9.79687 18C9.79687 18.4993 9.83984 18.9893 9.92577 19.47C9.71952 19.307 9.53596 19.122 9.34518 18.938C7.98187 17.614 7.21874 15.87 7.21874 14C7.21874 12.47 7.73849 11.016 8.66868 9.812L5.15624 6.438V10H3.09374V3H10.3125ZM16.6289 11.25C16.7465 11.337 16.8785 11.428 16.9836 11.53C17.4291 11.964 17.72 12.49 17.885 13.063C16.7609 13.203 15.7348 13.679 14.9201 14.469C13.9456 15.412 13.4042 16.664 13.4042 17.999C13.4042 19.334 13.9456 20.585 14.9201 21.529C15.8936 22.477 17.1847 23 18.5625 23C19.9402 23 21.2303 22.475 22.2028 21.53C22.6843 21.0685 23.0662 20.5187 23.3265 19.9127C23.5867 19.3066 23.7201 18.6565 23.7187 18C23.7187 17.135 23.4661 16.33 23.0422 15.594C23.1446 15.0684 23.1985 14.5349 23.2031 14C23.2031 13.5013 23.1601 13.0113 23.0742 12.53C23.2805 12.693 23.463 12.878 23.6548 13.063C25.0161 14.384 25.7812 16.13 25.7812 18C25.7812 19.53 25.2615 20.984 24.3313 22.188L26.07 23.875L28.1325 21.875L29.6175 23.281L27.555 25.281L29.6175 27.281L28.1325 28.721L26.07 26.721L24.0075 28.721L22.5586 27.281L24.6211 25.281L22.8803 23.595C21.6376 24.5074 20.1213 25.0008 18.5625 25C16.6341 25 14.8335 24.26 13.4702 22.937C12.1069 21.616 11.3437 19.87 11.3437 18C11.3437 16.13 12.1069 14.386 13.4712 13.062C14.3684 12.192 15.4368 11.567 16.6289 11.25Z" fill="#FFF5E0"/>
</svg>
