<svg width="165" height="47" viewBox="0 0 165 47" fill="none" xmlns="http://www.w3.org/2000/svg">
<rect width="165" height="47" rx="23.5" fill="#FFF5E0"/>
<path d="M71.54 24.1C71.54 24.4467 71.52 24.8133 71.48 25.2H62.72C62.7867 26.28 63.1533 27.1267 63.82 27.74C64.5 28.34 65.32 28.64 66.28 28.64C67.0667 28.64 67.72 28.46 68.24 28.1C68.7733 27.7267 69.1467 27.2333 69.36 26.62H71.32C71.0267 27.6733 70.44 28.5333 69.56 29.2C68.68 29.8533 67.5867 30.18 66.28 30.18C65.24 30.18 64.3067 29.9467 63.48 29.48C62.6667 29.0133 62.0267 28.3533 61.56 27.5C61.0933 26.6333 60.86 25.6333 60.86 24.5C60.86 23.3667 61.0867 22.3733 61.54 21.52C61.9933 20.6667 62.6267 20.0133 63.44 19.56C64.2667 19.0933 65.2133 18.86 66.28 18.86C67.32 18.86 68.24 19.0867 69.04 19.54C69.84 19.9933 70.4533 20.62 70.88 21.42C71.32 22.2067 71.54 23.1 71.54 24.1ZM69.66 23.72C69.66 23.0267 69.5067 22.4333 69.2 21.94C68.8933 21.4333 68.4733 21.0533 67.94 20.8C67.42 20.5333 66.84 20.4 66.2 20.4C65.28 20.4 64.4933 20.6933 63.84 21.28C63.2 21.8667 62.8333 22.68 62.74 23.72H69.66ZM72.4623 24.48C72.4623 23.36 72.689 22.38 73.1423 21.54C73.5957 20.6867 74.2157 20.0267 75.0023 19.56C75.8023 19.0933 76.6957 18.86 77.6823 18.86C78.5357 18.86 79.329 19.06 80.0623 19.46C80.7957 19.8467 81.3557 20.36 81.7423 21V15.2H83.5823V30H81.7423V27.94C81.3823 28.5933 80.849 29.1333 80.1423 29.56C79.4357 29.9733 78.609 30.18 77.6623 30.18C76.689 30.18 75.8023 29.94 75.0023 29.46C74.2157 28.98 73.5957 28.3067 73.1423 27.44C72.689 26.5733 72.4623 25.5867 72.4623 24.48ZM81.7423 24.5C81.7423 23.6733 81.5757 22.9533 81.2423 22.34C80.909 21.7267 80.4557 21.26 79.8823 20.94C79.3223 20.6067 78.7023 20.44 78.0223 20.44C77.3423 20.44 76.7223 20.6 76.1623 20.92C75.6023 21.24 75.1557 21.7067 74.8223 22.32C74.489 22.9333 74.3223 23.6533 74.3223 24.48C74.3223 25.32 74.489 26.0533 74.8223 26.68C75.1557 27.2933 75.6023 27.7667 76.1623 28.1C76.7223 28.42 77.3423 28.58 78.0223 28.58C78.7023 28.58 79.3223 28.42 79.8823 28.1C80.4557 27.7667 80.909 27.2933 81.2423 26.68C81.5757 26.0533 81.7423 25.3267 81.7423 24.5ZM86.798 17.26C86.4513 17.26 86.158 17.14 85.918 16.9C85.678 16.66 85.558 16.3667 85.558 16.02C85.558 15.6733 85.678 15.38 85.918 15.14C86.158 14.9 86.4513 14.78 86.798 14.78C87.1313 14.78 87.4113 14.9 87.638 15.14C87.878 15.38 87.998 15.6733 87.998 16.02C87.998 16.3667 87.878 16.66 87.638 16.9C87.4113 17.14 87.1313 17.26 86.798 17.26ZM87.678 19.04V30H85.858V19.04H87.678ZM92.1998 20.54V27C92.1998 27.5333 92.3132 27.9133 92.5398 28.14C92.7665 28.3533 93.1598 28.46 93.7198 28.46H95.0598V30H93.4198C92.4065 30 91.6465 29.7667 91.1398 29.3C90.6332 28.8333 90.3798 28.0667 90.3798 27V20.54H88.9598V19.04H90.3798V16.28H92.1998V19.04H95.0598V20.54H92.1998Z" fill="#141E46"/>
<path d="M54.3333 25.6667H47.6667V32.3333C47.6667 32.687 47.5262 33.0261 47.2761 33.2761C47.0261 33.5262 46.687 33.6667 46.3333 33.6667C45.9797 33.6667 45.6406 33.5262 45.3905 33.2761C45.1405 33.0261 45 32.687 45 32.3333V25.6667H38.3333C37.9797 25.6667 37.6406 25.5262 37.3905 25.2761C37.1405 25.0261 37 24.687 37 24.3333C37 23.9797 37.1405 23.6406 37.3905 23.3905C37.6406 23.1405 37.9797 23 38.3333 23H45V16.3333C45 15.9797 45.1405 15.6406 45.3905 15.3905C45.6406 15.1405 45.9797 15 46.3333 15C46.687 15 47.0261 15.1405 47.2761 15.3905C47.5262 15.6406 47.6667 15.9797 47.6667 16.3333V23H54.3333C54.687 23 55.0261 23.1405 55.2761 23.3905C55.5262 23.6406 55.6667 23.9797 55.6667 24.3333C55.6667 24.687 55.5262 25.0261 55.2761 25.2761C55.0261 25.5262 54.687 25.6667 54.3333 25.6667Z" fill="#141E46"/>
</svg>
