<svg width="235" height="136" viewBox="0 0 235 136" fill="none" xmlns="http://www.w3.org/2000/svg">
<path d="M75.55 89.4279L43.9408 115.033C40.4228 117.882 35.9409 119.823 31.0618 120.609C26.1826 121.395 21.1254 120.991 16.5293 119.449C11.9333 117.907 8.00485 115.296 5.2407 111.945C2.47654 108.595 1.00078 104.656 1 100.626V89.4279L15.4521 30.9014C17.3823 23.0785 22.5989 16.039 30.2142 10.9806C37.8295 5.92218 47.3732 3.15735 57.2213 3.15652H157.779C167.627 3.15735 177.17 5.92218 184.786 10.9806C192.401 16.039 197.618 23.0785 199.548 30.9014L214 89.4279V100.617C213.999 104.647 212.523 108.586 209.759 111.937C206.995 115.287 203.067 117.898 198.471 119.44C193.875 120.982 188.817 121.386 183.938 120.6C179.059 119.814 174.577 117.874 171.059 115.025L139.45 89.4279H75.55Z" stroke="#41B06E" stroke-width="2" stroke-linecap="round" stroke-linejoin="round"/>
<path d="M75.55 3.15652L86.2 20.4108H128.8L139.45 3.15652" stroke="#41B06E" stroke-width="2" stroke-linecap="round" stroke-linejoin="round"/>
<path d="M96.7189 84.828C95.7349 84.828 94.7749 84.684 93.8389 84.396C92.9029 84.132 92.1349 83.676 91.5349 83.028C90.9349 82.356 90.6349 81.444 90.6349 80.292C90.6349 80.076 90.6709 79.728 90.7429 79.248C90.8149 78.744 90.9349 78.288 91.1029 77.88C91.2949 77.448 91.5349 77.232 91.8229 77.232C91.8709 77.232 91.9309 77.256 92.0029 77.304C92.0989 77.328 92.1469 77.376 92.1469 77.448C92.1469 77.832 92.0629 78.24 91.8949 78.672C91.7269 79.104 91.6429 79.548 91.6429 80.004C91.6429 80.988 91.9069 81.756 92.4349 82.308C92.9869 82.86 93.6709 83.244 94.4869 83.46C95.3029 83.652 96.1309 83.748 96.9709 83.748C98.1709 83.748 99.4309 83.592 100.751 83.28C102.095 82.944 103.355 82.44 104.531 81.768C105.731 81.096 106.703 80.244 107.447 79.212C108.191 78.18 108.563 76.956 108.563 75.54C108.563 74.268 108.299 73.296 107.771 72.624C107.243 71.928 106.535 71.448 105.647 71.184C104.759 70.92 103.763 70.788 102.659 70.788C102.107 70.788 101.543 70.8 100.967 70.824C100.391 70.824 99.8269 70.86 99.2749 70.932C99.0349 70.956 98.7469 71.016 98.4109 71.112C98.0989 71.208 97.8109 71.256 97.5469 71.256C97.1629 71.256 96.9709 71.04 96.9709 70.608C96.9709 70.488 97.0069 70.356 97.0789 70.212C97.1509 70.068 97.2709 69.996 97.4389 69.996C98.0389 69.996 98.7829 69.888 99.6709 69.672C100.583 69.432 101.519 69.108 102.479 68.7C103.463 68.268 104.375 67.776 105.215 67.224C106.079 66.648 106.775 66.036 107.303 65.388C107.855 64.74 108.131 64.068 108.131 63.372C108.131 62.748 107.951 62.244 107.591 61.86C107.255 61.476 106.823 61.188 106.295 60.996C105.767 60.804 105.227 60.708 104.675 60.708C103.691 60.708 102.755 60.924 101.867 61.356C100.979 61.788 100.175 62.28 99.4549 62.832C98.7589 63.384 98.1709 63.876 97.6909 64.308C97.2349 64.74 96.9229 64.956 96.7549 64.956C96.5629 64.956 96.4669 64.848 96.4669 64.632C96.4669 64.176 96.6949 63.72 97.1509 63.264C97.6069 62.784 98.1829 62.328 98.8789 61.896C99.5989 61.44 100.367 61.044 101.183 60.708C101.999 60.348 102.767 60.072 103.487 59.88C104.207 59.664 104.795 59.556 105.251 59.556C105.947 59.556 106.607 59.688 107.231 59.952C107.879 60.192 108.407 60.576 108.815 61.104C109.223 61.608 109.427 62.244 109.427 63.012C109.427 63.948 109.163 64.776 108.635 65.496C108.107 66.216 107.435 66.852 106.619 67.404C105.827 67.956 104.987 68.436 104.099 68.844C103.235 69.252 102.455 69.6 101.759 69.888H102.299C103.259 69.888 104.207 69.96 105.143 70.104C106.079 70.224 106.931 70.476 107.699 70.86C108.467 71.22 109.079 71.76 109.535 72.48C109.991 73.2 110.219 74.148 110.219 75.324C110.219 76.572 109.919 77.7 109.319 78.708C108.743 79.716 107.963 80.604 106.979 81.372C105.995 82.14 104.903 82.788 103.703 83.316C102.527 83.82 101.327 84.192 100.103 84.432C98.9029 84.696 97.7749 84.828 96.7189 84.828ZM114.114 85.26C113.994 85.26 113.754 85.248 113.394 85.224C113.034 85.2 112.65 85.152 112.242 85.08C111.858 85.032 111.522 84.96 111.234 84.864C110.946 84.768 110.802 84.636 110.802 84.468C110.802 84.348 110.862 84.252 110.982 84.18C111.126 84.132 111.246 84.108 111.342 84.108C111.822 84.108 112.302 84.18 112.782 84.324C113.262 84.468 113.766 84.54 114.294 84.54C115.95 84.54 117.618 84.228 119.298 83.604C120.978 82.956 122.562 82.068 124.05 80.94C125.562 79.812 126.894 78.528 128.046 77.088C129.222 75.624 130.146 74.076 130.818 72.444C131.49 70.788 131.826 69.12 131.826 67.44C131.826 65.592 131.418 64.14 130.602 63.084C129.786 62.028 128.694 61.272 127.326 60.816C125.982 60.36 124.482 60.132 122.826 60.132C122.106 60.132 121.23 60.204 120.198 60.348C119.19 60.492 118.134 60.72 117.03 61.032C115.95 61.344 114.93 61.752 113.97 62.256C113.01 62.76 112.23 63.372 111.63 64.092C111.054 64.788 110.766 65.616 110.766 66.576C110.766 67.128 110.91 67.536 111.198 67.8C111.51 68.064 111.906 68.256 112.386 68.376C112.434 68.4 112.518 68.424 112.638 68.448C112.758 68.448 112.818 68.496 112.818 68.592C112.674 68.784 112.434 68.88 112.098 68.88C111.354 68.88 110.802 68.664 110.442 68.232C110.058 67.776 109.866 67.188 109.866 66.468C109.866 65.364 110.178 64.392 110.802 63.552C111.45 62.712 112.278 62.016 113.286 61.464C114.318 60.888 115.422 60.42 116.598 60.06C117.798 59.7 118.974 59.448 120.126 59.304C121.278 59.136 122.274 59.052 123.114 59.052C125.058 59.052 126.786 59.292 128.298 59.772C129.834 60.228 131.046 61.044 131.934 62.22C132.822 63.396 133.266 65.076 133.266 67.26C133.266 69.084 132.894 70.884 132.15 72.66C131.406 74.412 130.386 76.044 129.09 77.556C127.794 79.068 126.318 80.412 124.662 81.588C123.03 82.74 121.302 83.64 119.478 84.288C117.678 84.936 115.89 85.26 114.114 85.26ZM118.47 81.84C117.726 81.84 117.15 81.66 116.742 81.3C116.358 80.94 116.082 80.472 115.914 79.896C115.77 79.32 115.698 78.732 115.698 78.132C115.698 77.004 115.806 75.696 116.022 74.208C116.238 72.696 116.562 71.16 116.994 69.6C117.426 68.016 117.942 66.54 118.542 65.172C119.166 63.804 119.874 62.688 120.666 61.824C120.834 61.656 121.038 61.572 121.278 61.572C121.446 61.572 121.614 61.608 121.782 61.68C121.974 61.752 122.082 61.884 122.106 62.076L121.998 62.292C121.782 62.724 121.518 63.132 121.206 63.516C120.894 63.876 120.618 64.272 120.378 64.704C119.25 66.624 118.338 68.724 117.642 71.004C116.946 73.26 116.598 75.504 116.598 77.736C116.598 78.408 116.658 79.08 116.778 79.752C116.922 80.424 117.366 80.892 118.11 81.156C118.23 81.18 118.35 81.228 118.47 81.3C118.614 81.372 118.686 81.48 118.686 81.624C118.686 81.768 118.614 81.84 118.47 81.84Z" fill="#FFF5E0"/>
<path d="M51.8746 12.1562C53.8746 12.125 55.5152 12.4844 56.7965 13.2344C58.109 13.9844 59.1715 14.875 59.984 15.9062C60.7965 16.9375 61.4215 17.9844 61.859 19.0469C62.2965 20.0781 62.6402 20.8906 62.8902 21.4844C62.9527 21.6406 63.0777 21.8438 63.2652 22.0938C63.4215 22.3125 63.6402 22.5781 63.9215 22.8906C64.234 23.1719 64.6246 23.5 65.0934 23.875C64.1246 23.9062 63.2652 23.9375 62.5152 23.9688C61.7652 23.9688 61.1246 23.9844 60.5934 24.0156C59.9996 24.0469 59.4684 24.0781 58.9996 24.1094C58.5309 24.1406 57.9527 24.1875 57.2652 24.25C56.6402 24.3125 55.8746 24.375 54.9684 24.4375C54.0621 24.5 52.9527 24.5938 51.6402 24.7188C52.4215 23.7812 53.0309 22.9531 53.4684 22.2344C53.9371 21.4844 54.2809 20.8281 54.4996 20.2656C54.7496 19.6719 54.8902 19.1562 54.9215 18.7188C54.984 18.2812 54.9684 17.9062 54.8746 17.5938C54.6871 16.875 54.2027 16.3594 53.4215 16.0469C51.1715 15.4219 49.2027 15.9219 47.5152 17.5469C45.859 19.1406 44.6715 21.7656 43.9527 25.4219C43.609 27.2344 43.2809 29.125 42.9684 31.0938C42.6871 33.0312 42.5777 34.8125 42.6402 36.4375C42.7027 38.0312 43.0152 39.3281 43.5777 40.3281C44.1402 41.3281 45.109 41.7969 46.484 41.7344C47.8277 41.6719 48.9684 41.4531 49.9059 41.0781C50.8434 40.6719 51.5934 40.2031 52.1559 39.6719C52.7184 39.1094 53.109 38.5156 53.3277 37.8906C53.5777 37.2344 53.6715 36.625 53.609 36.0625C53.484 35.625 53.1559 35.1562 52.6246 34.6562C52.1559 34.2188 51.4527 33.7344 50.5152 33.2031C49.5777 32.6406 48.234 32.0625 46.484 31.4688C48.1402 31.375 49.4996 31.3125 50.5621 31.2812C51.6559 31.2188 52.5152 31.1562 53.1402 31.0938C53.8902 31.0312 54.4684 30.9844 54.8746 30.9531C55.2496 30.9219 55.7965 30.8906 56.5152 30.8594C57.1402 30.8281 57.9371 30.8125 58.9059 30.8125C59.9059 30.8125 61.1559 30.7969 62.6559 30.7656C62.0934 31.3281 61.6559 31.8438 61.3434 32.3125C61.1871 32.5625 61.0465 32.7812 60.9215 32.9688C60.7965 33.2812 60.7496 33.9219 60.7809 34.8906C60.7809 35.7031 60.8434 36.9062 60.9684 38.5C61.0934 40.0625 61.3277 42.2031 61.6715 44.9219L55.4371 45.7656L55.7184 39.4375C54.9996 41.1562 54.0934 42.4375 52.9996 43.2812C51.9371 44.125 50.9215 44.7188 49.9527 45.0625C48.7965 45.4688 47.5934 45.6562 46.3434 45.625C44.7184 45.4688 43.0934 45.0938 41.4684 44.5C39.8434 43.9062 38.4059 43 37.1559 41.7812C35.9059 40.5312 34.9371 38.9219 34.2496 36.9531C33.5934 34.9844 33.3902 32.5469 33.6402 29.6406C33.9215 26.7344 34.609 24.2031 35.7027 22.0469C36.8277 19.8594 38.2184 18.0469 39.8746 16.6094C41.5309 15.1719 43.3902 14.0938 45.4527 13.375C47.5465 12.625 49.6871 12.2188 51.8746 12.1562ZM68.609 27.0156C68.7652 26.8281 68.859 26.4844 68.8902 25.9844C68.9527 25.4531 69.0777 24.8594 69.2652 24.2031C69.484 23.5469 69.8434 22.8594 70.3434 22.1406C70.8434 21.4219 71.6559 20.75 72.7809 20.125C73.8746 19.5 74.9371 19.125 75.9684 19C76.9996 18.875 77.984 18.9219 78.9215 19.1406C79.859 19.3594 80.734 19.7031 81.5465 20.1719C82.3902 20.6406 83.1559 21.1562 83.8434 21.7188C84.3121 22.0938 84.6871 22.6406 84.9684 23.3594C85.2496 24.0469 85.4684 24.8281 85.6246 25.7031C85.7809 26.5781 85.8902 27.5 85.9527 28.4688C86.0465 29.4062 86.109 30.3281 86.1402 31.2344C86.1715 32.1094 86.1871 32.9219 86.1871 33.6719C86.2184 34.3906 86.2809 34.9844 86.3746 35.4531C86.4996 36.1406 86.7184 36.7344 87.0309 37.2344C87.3434 37.7031 87.6871 38.1094 88.0621 38.4531C88.4371 38.7656 88.8121 39.0156 89.1871 39.2031C89.5621 39.3906 89.8902 39.5312 90.1715 39.625C90.359 39.7188 90.5309 39.7812 90.6871 39.8125C90.9996 39.9375 91.2184 39.9375 91.3434 39.8125C91.1559 40.25 90.984 40.625 90.8277 40.9375C90.6715 41.25 90.5465 41.5156 90.4527 41.7344C90.3277 41.9844 90.2184 42.1875 90.1246 42.3438C90.0309 42.5312 89.9215 42.7031 89.7965 42.8594C89.7027 43.0156 89.5777 43.1875 89.4215 43.375C89.2652 43.5625 89.109 43.7656 88.9527 43.9844C88.5465 43.8281 88.1559 43.6406 87.7809 43.4219C87.4371 43.2031 87.1246 43 86.8434 42.8125C86.4996 42.5938 86.1871 42.375 85.9059 42.1562C85.6246 41.9375 85.359 41.6875 85.109 41.4062C84.8902 41.1562 84.6559 40.8906 84.4059 40.6094C84.1871 40.3281 83.9996 40.0156 83.8434 39.6719C83.6559 40.0781 83.2027 40.6562 82.484 41.4062C81.7965 42.1562 80.8902 42.8438 79.7652 43.4688C78.6402 44.0625 77.3277 44.4844 75.8277 44.7344C74.359 44.9844 72.734 44.8125 70.9527 44.2188C70.1715 43.9688 69.4371 43.6094 68.7496 43.1406C68.0621 42.6406 67.4684 42.0469 66.9684 41.3594C66.4996 40.6719 66.1559 39.8906 65.9371 39.0156C65.7496 38.1094 65.7652 37.1094 65.984 36.0156C66.2027 34.9219 66.5934 34 67.1559 33.25C67.7184 32.5 68.3902 31.8906 69.1715 31.4219C69.9527 30.9531 70.8277 30.5938 71.7965 30.3438C72.7652 30.0938 73.7652 29.9219 74.7965 29.8281C75.609 29.7969 76.4215 29.8438 77.234 29.9688C77.9215 30.0938 78.6402 30.3281 79.3902 30.6719C80.1402 30.9844 80.7809 31.4688 81.3121 32.125C81.2809 30.4688 81.2184 29.1562 81.1246 28.1875C81.0621 27.1875 80.9996 26.4219 80.9371 25.8906C80.8121 25.2656 80.7027 24.8281 80.609 24.5781C80.4527 24.3594 80.2809 24.1094 80.0934 23.8281C79.9371 23.5469 79.734 23.2969 79.484 23.0781C79.234 22.8281 78.9215 22.625 78.5465 22.4688C78.1715 22.3125 77.734 22.25 77.234 22.2812C76.7027 22.3125 76.2809 22.4531 75.9684 22.7031C75.6559 22.9531 75.4059 23.25 75.2184 23.5938C75.0621 23.9062 74.9684 24.25 74.9371 24.625C74.9059 25 74.9215 25.3281 74.984 25.6094C75.0465 25.7969 75.1402 26 75.2652 26.2188C75.3902 26.4062 75.5621 26.6094 75.7809 26.8281C75.9996 27.0469 76.2965 27.2344 76.6715 27.3906C75.9527 27.4844 75.3121 27.5625 74.7496 27.625C74.1871 27.6562 73.7027 27.7031 73.2965 27.7656C72.8277 27.8281 72.4215 27.875 72.0777 27.9062C71.734 27.9375 71.3277 28 70.859 28.0938C70.4527 28.1562 69.9527 28.2344 69.359 28.3281C68.7652 28.4219 68.0777 28.5469 67.2965 28.7031C67.484 28.4844 67.6559 28.2812 67.8121 28.0938C67.9684 27.875 68.109 27.6875 68.234 27.5312C68.359 27.3438 68.484 27.1719 68.609 27.0156ZM75.6402 32.5938C75.0777 32.625 74.5152 32.7656 73.9527 33.0156C73.3902 33.2344 72.8902 33.5625 72.4527 34C72.0152 34.4062 71.6402 34.8906 71.3277 35.4531C71.0465 35.9844 70.9059 36.5781 70.9059 37.2344C70.9059 37.8906 71.0621 38.4688 71.3746 38.9688C71.7184 39.4375 72.1559 39.8281 72.6871 40.1406C73.2496 40.4531 73.8434 40.6406 74.4684 40.7031C75.1246 40.7656 75.7652 40.7031 76.3902 40.5156C76.984 40.2969 77.5465 39.9531 78.0777 39.4844C78.609 38.9844 79.0621 38.4531 79.4371 37.8906C79.8121 37.2969 80.0777 36.7188 80.234 36.1562C80.3902 35.5625 80.4059 35.0781 80.2809 34.7031C80.0309 33.8906 79.4684 33.3281 78.5934 33.0156C77.7184 32.6719 76.734 32.5312 75.6402 32.5938ZM90.6402 23.7812C91.359 23.7188 91.9684 23.6562 92.4684 23.5938C92.9996 23.5312 93.4371 23.4688 93.7809 23.4062C94.1871 23.3438 94.5309 23.2812 94.8121 23.2188C95.0934 23.1875 95.4059 23.125 95.7496 23.0312C96.0621 22.9688 96.4059 22.8906 96.7809 22.7969C97.1871 22.6719 97.6246 22.5312 98.0934 22.375L97.8121 28.3281C98.4996 27.2344 99.2965 26.4062 100.203 25.8438C101.109 25.25 101.968 24.8125 102.781 24.5312C103.75 24.1875 104.718 23.9844 105.687 23.9219C106.687 23.9531 107.609 24.1094 108.453 24.3906C109.171 24.6406 109.89 25.0312 110.609 25.5625C111.359 26.0938 111.937 26.875 112.343 27.9062C113.406 26.8125 114.453 25.9688 115.484 25.375C116.546 24.75 117.484 24.2812 118.296 23.9688C119.265 23.625 120.171 23.4219 121.015 23.3594C122.14 23.3281 123.171 23.5156 124.109 23.9219C125.078 24.3281 125.921 24.8438 126.64 25.4688C127.359 26.0625 127.937 26.7031 128.375 27.3906C128.812 28.0469 129.062 28.625 129.125 29.125C129.218 29.8125 129.171 30.7031 128.984 31.7969C128.796 32.8594 128.578 33.9531 128.328 35.0781C128.078 36.1719 127.843 37.1875 127.625 38.125C127.437 39.0312 127.359 39.6719 127.39 40.0469C127.484 40.3594 127.703 40.7344 128.046 41.1719C128.359 41.5469 128.812 42.0156 129.406 42.5781C130.031 43.1094 130.921 43.7344 132.078 44.4531C131.078 44.4219 130.187 44.3906 129.406 44.3594C128.656 44.3281 128.015 44.2812 127.484 44.2188C126.859 44.1562 126.312 44.1094 125.843 44.0781C125.468 44.0781 125.015 44.0469 124.484 43.9844C124.046 43.9531 123.468 43.9062 122.75 43.8438C122.062 43.7812 121.265 43.7188 120.359 43.6562C120.703 43.5625 120.984 43.3906 121.203 43.1406C121.421 42.8594 121.609 42.5938 121.765 42.3438C121.921 42.0312 122.046 41.6875 122.14 41.3125C122.203 41 122.265 40.5 122.328 39.8125C122.39 39.125 122.437 38.3438 122.468 37.4688C122.531 36.5938 122.562 35.6719 122.562 34.7031C122.593 33.7344 122.593 32.8125 122.562 31.9375C122.531 31.0625 122.468 30.2656 122.375 29.5469C122.281 28.8281 122.156 28.2812 122 27.9062C121.875 27.625 121.656 27.4062 121.343 27.25C121.031 27.0625 120.671 26.9531 120.265 26.9219C119.859 26.8594 119.453 26.875 119.046 26.9688C118.64 27.0312 118.281 27.1562 117.968 27.3438C117.687 27.5625 117.312 27.8594 116.843 28.2344C116.437 28.5781 115.906 29.0469 115.25 29.6406C114.593 30.2344 113.765 30.9844 112.765 31.8906C112.671 33.8594 112.593 35.4531 112.531 36.6719C112.5 37.8594 112.468 38.7656 112.437 39.3906C112.406 40.1406 112.39 40.6562 112.39 40.9375C112.359 41.1875 112.375 41.4219 112.437 41.6406C112.5 42.1094 112.687 42.5469 113 42.9531C112.625 42.8594 112.218 42.7969 111.781 42.7656C111.375 42.7344 111 42.7031 110.656 42.6719C110.25 42.6406 109.843 42.625 109.437 42.625C109.093 42.625 108.718 42.6406 108.312 42.6719C107.968 42.7031 107.546 42.75 107.046 42.8125C106.546 42.8438 106 42.8906 105.406 42.9531C105.656 42.7969 105.859 42.6094 106.015 42.3906C106.171 42.1719 106.296 41.9688 106.39 41.7812C106.515 41.5625 106.609 41.3594 106.671 41.1719C106.703 40.9844 106.765 40.5312 106.859 39.8125C106.953 39.0625 107.015 38.1875 107.046 37.1875C107.078 36.1875 107.078 35.1406 107.046 34.0469C107.015 32.9219 106.906 31.9062 106.718 31C106.531 30.0625 106.234 29.2969 105.828 28.7031C105.453 28.1094 104.953 27.8438 104.328 27.9062C103.578 27.9688 102.812 28.1562 102.031 28.4688C101.375 28.7188 100.671 29.0938 99.9215 29.5938C99.1715 30.0938 98.4684 30.7656 97.8121 31.6094C97.6871 33.9531 97.609 35.8125 97.5777 37.1875C97.5777 38.5625 97.5934 39.6094 97.6246 40.3281C97.6559 41.1719 97.6871 41.75 97.7184 42.0625C97.7496 42.2812 97.8277 42.5 97.9527 42.7188C98.0465 42.9062 98.1559 43.125 98.2809 43.375C98.4371 43.625 98.609 43.8594 98.7965 44.0781L91.3434 43.7031C91.5934 43.5781 91.8121 43.4219 91.9996 43.2344C92.1871 43.0156 92.3434 42.7969 92.4684 42.5781C92.5934 42.3281 92.7184 42.0781 92.8434 41.8281C92.9371 41.6094 93.0152 41.0938 93.0777 40.2812C93.1715 39.4688 93.2496 38.5156 93.3121 37.4219C93.3746 36.2969 93.4215 35.125 93.4527 33.9062C93.5152 32.6562 93.5465 31.5 93.5465 30.4375C93.5777 29.3438 93.5934 28.4219 93.5934 27.6719C93.5934 26.8906 93.5777 26.4219 93.5465 26.2656C93.4527 25.9531 93.2809 25.625 93.0309 25.2812C92.8121 25.0312 92.5152 24.7656 92.1402 24.4844C91.7652 24.1719 91.2652 23.9375 90.6402 23.7812ZM144.5 38.4531C145.375 38.4531 146.187 38.3594 146.937 38.1719C147.562 38.0156 148.156 37.7656 148.718 37.4219C149.312 37.0469 149.703 36.5 149.89 35.7812C150.515 35.9062 151.046 36.0156 151.484 36.1094C151.921 36.1719 152.296 36.2344 152.609 36.2969C152.953 36.3906 153.25 36.4531 153.5 36.4844C153.75 36.5469 154.046 36.6094 154.39 36.6719C154.703 36.7344 155.078 36.8125 155.515 36.9062C155.984 36.9688 156.531 37.0625 157.156 37.1875C156.687 37.125 156.203 37.1719 155.703 37.3281C155.234 37.4844 154.781 37.6562 154.343 37.8438C153.843 38.0625 153.375 38.3281 152.937 38.6406C152.656 38.8281 152.328 39.1094 151.953 39.4844C151.609 39.8594 151.109 40.2188 150.453 40.5625C149.796 40.9062 148.921 41.2031 147.828 41.4531C146.765 41.6719 145.39 41.75 143.703 41.6875C141.671 41.625 139.968 41.2656 138.593 40.6094C137.218 39.9219 136.109 39.0938 135.265 38.125C134.421 37.125 133.812 36.0469 133.437 34.8906C133.062 33.7344 132.859 32.6562 132.828 31.6562C132.796 30.6562 133.093 29.6094 133.718 28.5156C134.343 27.4219 135.218 26.4219 136.343 25.5156C137.5 24.6094 138.89 23.875 140.515 23.3125C142.14 22.7188 143.921 22.4219 145.859 22.4219C146.984 22.4219 148.015 22.5625 148.953 22.8438C149.921 23.0938 150.796 23.4375 151.578 23.875C152.39 24.3125 153.093 24.8125 153.687 25.375C154.281 25.9062 154.781 26.4531 155.187 27.0156C155.593 27.6094 155.937 28.2344 156.218 28.8906C156.468 29.4531 156.671 30.0938 156.828 30.8125C156.984 31.5312 157.031 32.2656 156.968 33.0156C154.593 33.0781 152.671 33.125 151.203 33.1562C149.765 33.1875 148.64 33.2031 147.828 33.2031H145.718H144.125C143.562 33.2031 142.828 33.2188 141.921 33.25C141.015 33.2812 139.906 33.3281 138.593 33.3906C138.75 34.6406 139.14 35.6094 139.765 36.2969C140.421 36.9531 141.109 37.4531 141.828 37.7969C142.64 38.1719 143.531 38.3906 144.5 38.4531ZM140.281 30.0156C141.281 30.0781 142.109 30.125 142.765 30.1562C143.453 30.1875 144.015 30.2188 144.453 30.25C144.921 30.2812 145.296 30.2969 145.578 30.2969H146.75C147.531 30.2969 148.984 30.25 151.109 30.1562C151.015 28.7812 150.718 27.7344 150.218 27.0156C149.75 26.2969 149.25 25.7656 148.718 25.4219C148.093 25.0469 147.406 24.8281 146.656 24.7656C144.625 24.7969 143.109 25.2188 142.109 26.0312C141.14 26.8438 140.531 28.1719 140.281 30.0156ZM158.375 23.5469C158.968 23.5781 159.5 23.5938 159.968 23.5938C160.468 23.5625 160.89 23.5312 161.234 23.5C161.64 23.4688 162 23.4375 162.312 23.4062C162.781 23.3438 163.265 23.2656 163.765 23.1719C164.203 23.1094 164.656 23.0312 165.125 22.9375C165.625 22.8125 166.109 22.6719 166.578 22.5156C166.39 22.9844 166.234 23.3906 166.109 23.7344C165.984 24.0781 165.89 24.375 165.828 24.625C165.734 24.9062 165.687 25.1406 165.687 25.3281C165.656 25.5469 165.64 25.8125 165.64 26.125C165.609 26.6562 165.609 27.5156 165.64 28.7031C167.265 27.2969 168.625 26.2031 169.718 25.4219C170.843 24.6406 171.734 24.0312 172.39 23.5938C173.171 23.0938 173.781 22.7656 174.218 22.6094C175.375 22.4219 176.39 22.6875 177.265 23.4062C177.64 23.7188 178 24.1406 178.343 24.6719C178.687 25.1719 178.984 25.8438 179.234 26.6875C179.484 27.5312 179.671 28.5469 179.796 29.7344C179.921 30.8906 179.937 32.2812 179.843 33.9062C179.187 33.9688 178.593 34.0312 178.062 34.0938C177.562 34.1562 177.14 34.2031 176.796 34.2344C176.39 34.2969 176.015 34.3281 175.671 34.3281L174.406 34.4688C173.968 34.5312 173.421 34.5938 172.765 34.6562C172.14 34.6875 171.375 34.75 170.468 34.8438C171.781 33.7812 172.625 32.8594 173 32.0781C173.406 31.2656 173.578 30.5938 173.515 30.0625C173.453 29.4688 173.171 28.9531 172.671 28.5156C172.078 28.1719 171.437 28.0469 170.75 28.1406C170.156 28.2031 169.468 28.4688 168.687 28.9375C167.906 29.4062 167.078 30.2812 166.203 31.5625C166.265 33.5625 166.328 35.2188 166.39 36.5312C166.484 37.8438 166.562 38.9062 166.625 39.7188C166.718 40.6562 166.796 41.3906 166.859 41.9219C166.953 42.3906 167.14 42.8906 167.421 43.4219C167.64 43.8594 167.953 44.3438 168.359 44.875C168.765 45.4062 169.296 45.9375 169.953 46.4688C168.578 46.4062 167.453 46.4062 166.578 46.4688C166.046 46.5 165.578 46.5312 165.171 46.5625C164.734 46.625 164.265 46.6875 163.765 46.75C163.328 46.8125 162.812 46.875 162.218 46.9375C161.656 47.0312 161.031 47.125 160.343 47.2188C160.593 46.875 160.796 46.4688 160.953 46C161.109 45.5625 161.234 45.1406 161.328 44.7344C161.453 44.2656 161.546 43.7812 161.609 43.2812C161.64 42.8438 161.656 42.1875 161.656 41.3125C161.687 40.4375 161.671 39.4531 161.609 38.3594C161.578 37.2344 161.531 36.0781 161.468 34.8906C161.406 33.6719 161.328 32.5312 161.234 31.4688C161.14 30.4062 161.031 29.4844 160.906 28.7031C160.812 27.8906 160.703 27.3281 160.578 27.0156C160.421 26.6406 160.234 26.2656 160.015 25.8906C159.828 25.5469 159.593 25.1875 159.312 24.8125C159.031 24.4062 158.718 23.9844 158.375 23.5469Z" fill="#FFF5E0"/>
<path d="M165.7 76.195C165.06 76.195 164.5 76.1 164.02 75.91C163.54 75.72 163.125 75.465 162.775 75.145C162.435 74.825 162.16 74.465 161.95 74.065C161.74 73.655 161.585 73.23 161.485 72.79C161.385 72.35 161.335 71.92 161.335 71.5C161.335 70.83 161.445 70.165 161.665 69.505C161.885 68.835 162.2 68.205 162.61 67.615C163.02 67.015 163.495 66.485 164.035 66.025C164.575 65.555 165.165 65.19 165.805 64.93C166.445 64.66 167.11 64.525 167.8 64.525C168.23 64.525 168.625 64.595 168.985 64.735C169.345 64.865 169.705 65.095 170.065 65.425L170.755 64.69H171.205L170.5 68.035H170.095C170.095 67.405 169.985 66.865 169.765 66.415C169.555 65.965 169.27 65.62 168.91 65.38C168.56 65.13 168.16 65.005 167.71 65.005C167.26 65.005 166.845 65.135 166.465 65.395C166.085 65.645 165.745 65.99 165.445 66.43C165.155 66.86 164.895 67.35 164.665 67.9C164.445 68.44 164.26 69.01 164.11 69.61C163.97 70.2 163.865 70.78 163.795 71.35C163.725 71.92 163.69 72.44 163.69 72.91C163.69 73.6 163.765 74.15 163.915 74.56C164.065 74.96 164.28 75.245 164.56 75.415C164.85 75.585 165.2 75.67 165.61 75.67C166.04 75.67 166.42 75.575 166.75 75.385C167.08 75.195 167.36 74.85 167.59 74.35C167.83 73.85 168.025 73.155 168.175 72.265H170.665C170.405 73.155 170.05 73.89 169.6 74.47C169.15 75.05 168.6 75.485 167.95 75.775C167.31 76.055 166.56 76.195 165.7 76.195ZM166.645 72.325V71.92H171.79V72.325H166.645ZM170.896 75.7L178.651 64.51L176.956 67.735L171.511 75.7H170.896ZM170.011 76V75.58H173.041V76H170.011ZM175.066 76V75.58H179.491V76H175.066ZM173.506 72.565V72.1H177.541V72.565H173.506ZM176.236 75.85L176.971 67.795H176.911L178.591 64.51H179.131L178.306 75.85H176.236ZM185.724 76L187.254 72.25L191.514 64.69H192.174L185.724 76ZM180.414 76V75.58H183.744V76H180.414ZM181.644 76L184.104 64.69H184.629L182.169 76H181.644ZM187.824 76V75.58H192.819V76H187.824ZM185.409 76L184.389 66.025H184.329L184.464 64.69H186.429L187.194 72.25H187.254L185.724 76H185.409ZM182.694 65.11V64.69H186.429V65.11H182.694ZM189.114 76L191.574 64.69H193.599L191.079 76H189.114ZM191.814 65.11V64.69H194.994V65.11H191.814ZM194.642 76L197.102 64.69H199.112L196.592 76H194.642ZM193.232 76V75.58H199.202C199.652 75.58 200.062 75.5 200.432 75.34C200.802 75.17 201.162 74.865 201.512 74.425C201.862 73.985 202.227 73.35 202.607 72.52H203.132L202.232 76H193.232ZM199.877 72.595C199.877 71.985 199.827 71.52 199.727 71.2C199.637 70.88 199.482 70.66 199.262 70.54C199.052 70.42 198.767 70.36 198.407 70.36H197.102V69.94H198.647C199.017 69.94 199.337 69.88 199.607 69.76C199.877 69.64 200.112 69.44 200.312 69.16C200.512 68.87 200.687 68.475 200.837 67.975H201.287L200.357 72.595H199.877ZM203.087 67.75C203.087 67.05 203.017 66.51 202.877 66.13C202.747 65.75 202.502 65.485 202.142 65.335C201.782 65.185 201.267 65.11 200.597 65.11H195.422V64.69H204.092L203.612 67.75H203.087ZM168.258 95.165C167.598 95.165 167.003 95.045 166.473 94.805C165.953 94.555 165.508 94.22 165.138 93.8C164.768 93.38 164.483 92.9 164.283 92.36C164.083 91.81 163.983 91.23 163.983 90.62C163.983 89.93 164.103 89.245 164.343 88.565C164.583 87.885 164.918 87.245 165.348 86.645C165.778 86.035 166.268 85.5 166.818 85.04C167.378 84.58 167.978 84.22 168.618 83.96C169.268 83.69 169.928 83.555 170.598 83.555C171.238 83.555 171.813 83.675 172.323 83.915C172.843 84.155 173.288 84.485 173.658 84.905C174.028 85.315 174.313 85.79 174.513 86.33C174.713 86.87 174.813 87.44 174.813 88.04C174.813 88.67 174.698 89.32 174.468 89.99C174.248 90.66 173.938 91.305 173.538 91.925C173.148 92.535 172.678 93.085 172.128 93.575C171.588 94.065 170.988 94.455 170.328 94.745C169.678 95.025 168.988 95.165 168.258 95.165ZM168.258 94.7C168.808 94.7 169.293 94.57 169.713 94.31C170.133 94.04 170.498 93.685 170.808 93.245C171.128 92.795 171.398 92.29 171.618 91.73C171.838 91.17 172.013 90.595 172.143 90.005C172.273 89.405 172.368 88.825 172.428 88.265C172.488 87.705 172.518 87.205 172.518 86.765C172.518 86.325 172.483 85.935 172.413 85.595C172.343 85.245 172.233 84.955 172.083 84.725C171.933 84.485 171.738 84.305 171.498 84.185C171.258 84.065 170.968 84.005 170.628 84.005C170.098 84.005 169.618 84.135 169.188 84.395C168.768 84.655 168.403 85.005 168.093 85.445C167.783 85.885 167.513 86.385 167.283 86.945C167.053 87.505 166.868 88.085 166.728 88.685C166.588 89.285 166.483 89.87 166.413 90.44C166.353 91 166.323 91.515 166.323 91.985C166.323 92.825 166.468 93.49 166.758 93.98C167.058 94.46 167.558 94.7 168.258 94.7ZM176.744 95.18L178.634 91.82L184.274 83.99H184.844L176.849 95.18H176.744ZM176.429 95.18L177.104 83.84H179.249L178.619 91.76H178.679L176.819 95.18H176.429ZM175.919 84.11V83.69H180.329V84.11H175.919ZM182.669 84.11V83.69H185.924V84.11H182.669ZM184.242 95L186.702 83.69H188.712L186.192 95H184.242ZM182.832 95V94.58H188.802C189.252 94.58 189.662 94.5 190.032 94.34C190.402 94.17 190.762 93.865 191.112 93.425C191.462 92.985 191.827 92.35 192.207 91.52H192.732L191.832 95H182.832ZM189.477 91.595C189.477 90.985 189.427 90.52 189.327 90.2C189.237 89.88 189.082 89.66 188.862 89.54C188.652 89.42 188.367 89.36 188.007 89.36H186.702V88.94H188.247C188.617 88.94 188.937 88.88 189.207 88.76C189.477 88.64 189.712 88.44 189.912 88.16C190.112 87.87 190.287 87.475 190.437 86.975H190.887L189.957 91.595H189.477ZM192.687 86.75C192.687 86.05 192.617 85.51 192.477 85.13C192.347 84.75 192.102 84.485 191.742 84.335C191.382 84.185 190.867 84.11 190.197 84.11H185.022V83.69H193.692L193.212 86.75H192.687ZM194.469 95L196.929 83.69H198.954L196.434 95H194.469ZM193.329 95V94.58H198.039V95H193.329ZM202.674 95.165C202.154 95.165 201.734 95.09 201.414 94.94C201.094 94.78 200.844 94.57 200.664 94.31C200.494 94.05 200.369 93.765 200.289 93.455C200.219 93.135 200.174 92.81 200.154 92.48C200.134 92.14 200.114 91.815 200.094 91.505C200.074 91.035 200.004 90.63 199.884 90.29C199.764 89.94 199.569 89.67 199.299 89.48C199.039 89.29 198.679 89.195 198.219 89.195L200.064 89.12V89.18C200.544 89.34 200.934 89.525 201.234 89.735C201.534 89.935 201.769 90.175 201.939 90.455C202.109 90.725 202.229 91.05 202.299 91.43C202.379 91.81 202.434 92.25 202.464 92.75C202.484 93.13 202.504 93.455 202.524 93.725C202.554 93.985 202.624 94.185 202.734 94.325C202.854 94.465 203.054 94.535 203.334 94.535C203.474 94.535 203.599 94.515 203.709 94.475C203.829 94.435 203.944 94.375 204.054 94.295L204.294 94.625C204.134 94.785 203.929 94.915 203.679 95.015C203.429 95.115 203.094 95.165 202.674 95.165ZM196.254 89.18V88.775H199.089C199.929 88.775 200.574 88.51 201.024 87.98C201.484 87.45 201.714 86.705 201.714 85.745C201.714 85.355 201.664 85.04 201.564 84.8C201.464 84.56 201.279 84.385 201.009 84.275C200.739 84.165 200.344 84.11 199.824 84.11H195.399V83.69H200.004C201.314 83.69 202.304 83.935 202.974 84.425C203.654 84.905 203.994 85.525 203.994 86.285C203.994 87.185 203.534 87.895 202.614 88.415C201.704 88.925 200.404 89.18 198.714 89.18H196.254Z" fill="#FFF5E0"/>
</svg>
