<svg width="238" height="148" viewBox="0 0 238 148" fill="none" xmlns="http://www.w3.org/2000/svg">
<path d="M78.4173 94.2492L45.5924 121.926C41.939 125.005 37.2848 127.102 32.218 127.952C27.1512 128.801 21.8994 128.365 17.1266 126.699C12.3538 125.032 8.27427 122.209 5.4038 118.588C2.53333 114.966 1.00081 110.709 1 106.353V94.2492L16.0079 30.9889C18.0124 22.5333 23.4296 14.9244 31.3378 9.45689C39.246 3.98935 49.1567 1.0009 59.3837 1H163.809C174.036 1.0009 183.946 3.98935 191.854 9.45689C199.763 14.9244 205.18 22.5333 207.184 30.9889L222.192 94.2492V106.344C222.191 110.699 220.659 114.957 217.789 118.578C214.918 122.2 210.839 125.022 206.066 126.689C201.293 128.356 196.041 128.792 190.974 127.943C185.908 127.093 181.253 124.996 177.6 121.916L144.775 94.2492H78.4173Z" stroke="#41B06E" stroke-width="2" stroke-linecap="round" stroke-linejoin="round"/>
<path d="M94.9689 90.1148C93.9849 90.1148 93.0249 89.9708 92.0889 89.6828C91.1529 89.4188 90.3849 88.9628 89.7849 88.3148C89.1849 87.6428 88.8849 86.7308 88.8849 85.5788C88.8849 85.3628 88.9209 85.0148 88.9929 84.5348C89.0649 84.0308 89.1849 83.5748 89.3529 83.1668C89.5449 82.7348 89.7849 82.5188 90.0729 82.5188C90.1209 82.5188 90.1809 82.5428 90.2529 82.5908C90.3489 82.6148 90.3969 82.6628 90.3969 82.7348C90.3969 83.1188 90.3129 83.5268 90.1449 83.9588C89.9769 84.3908 89.8929 84.8348 89.8929 85.2908C89.8929 86.2748 90.1569 87.0428 90.6849 87.5948C91.2369 88.1468 91.9209 88.5308 92.7369 88.7468C93.5529 88.9388 94.3809 89.0348 95.2209 89.0348C96.4209 89.0348 97.6809 88.8788 99.0009 88.5668C100.345 88.2308 101.605 87.7268 102.781 87.0548C103.981 86.3828 104.953 85.5308 105.697 84.4988C106.441 83.4668 106.813 82.2428 106.813 80.8268C106.813 79.5548 106.549 78.5828 106.021 77.9108C105.493 77.2148 104.785 76.7348 103.897 76.4708C103.009 76.2068 102.013 76.0748 100.909 76.0748C100.357 76.0748 99.7929 76.0868 99.2169 76.1108C98.6409 76.1108 98.0769 76.1468 97.5249 76.2188C97.2849 76.2428 96.9969 76.3028 96.6609 76.3988C96.3489 76.4948 96.0609 76.5428 95.7969 76.5428C95.4129 76.5428 95.2209 76.3268 95.2209 75.8948C95.2209 75.7748 95.2569 75.6428 95.3289 75.4988C95.4009 75.3548 95.5209 75.2828 95.6889 75.2828C96.2889 75.2828 97.0329 75.1748 97.9209 74.9588C98.8329 74.7188 99.7689 74.3948 100.729 73.9868C101.713 73.5548 102.625 73.0628 103.465 72.5108C104.329 71.9348 105.025 71.3228 105.553 70.6748C106.105 70.0268 106.381 69.3548 106.381 68.6588C106.381 68.0348 106.201 67.5308 105.841 67.1468C105.505 66.7628 105.073 66.4748 104.545 66.2828C104.017 66.0908 103.477 65.9948 102.925 65.9948C101.941 65.9948 101.005 66.2108 100.117 66.6428C99.2289 67.0748 98.4249 67.5668 97.7049 68.1188C97.0089 68.6708 96.4209 69.1628 95.9409 69.5948C95.4849 70.0268 95.1729 70.2428 95.0049 70.2428C94.8129 70.2428 94.7169 70.1348 94.7169 69.9188C94.7169 69.4628 94.9449 69.0068 95.4009 68.5508C95.8569 68.0708 96.4329 67.6148 97.1289 67.1828C97.8489 66.7268 98.6169 66.3308 99.4329 65.9948C100.249 65.6348 101.017 65.3588 101.737 65.1668C102.457 64.9508 103.045 64.8428 103.501 64.8428C104.197 64.8428 104.857 64.9748 105.481 65.2388C106.129 65.4788 106.657 65.8628 107.065 66.3908C107.473 66.8948 107.677 67.5308 107.677 68.2988C107.677 69.2348 107.413 70.0628 106.885 70.7828C106.357 71.5028 105.685 72.1388 104.869 72.6908C104.077 73.2428 103.237 73.7228 102.349 74.1308C101.485 74.5388 100.705 74.8868 100.009 75.1748H100.549C101.509 75.1748 102.457 75.2468 103.393 75.3908C104.329 75.5108 105.181 75.7628 105.949 76.1468C106.717 76.5068 107.329 77.0468 107.785 77.7668C108.241 78.4868 108.469 79.4348 108.469 80.6108C108.469 81.8588 108.169 82.9868 107.569 83.9948C106.993 85.0028 106.213 85.8908 105.229 86.6588C104.245 87.4268 103.153 88.0748 101.953 88.6028C100.777 89.1068 99.5769 89.4788 98.3529 89.7188C97.1529 89.9828 96.0249 90.1148 94.9689 90.1148ZM112.364 90.5468C112.244 90.5468 112.004 90.5348 111.644 90.5108C111.284 90.4868 110.9 90.4388 110.492 90.3668C110.108 90.3188 109.772 90.2468 109.484 90.1508C109.196 90.0548 109.052 89.9228 109.052 89.7548C109.052 89.6348 109.112 89.5388 109.232 89.4668C109.376 89.4188 109.496 89.3948 109.592 89.3948C110.072 89.3948 110.552 89.4668 111.032 89.6108C111.512 89.7548 112.016 89.8268 112.544 89.8268C114.2 89.8268 115.868 89.5148 117.548 88.8908C119.228 88.2428 120.812 87.3548 122.3 86.2268C123.812 85.0988 125.144 83.8148 126.296 82.3748C127.472 80.9108 128.396 79.3628 129.068 77.7308C129.74 76.0748 130.076 74.4068 130.076 72.7268C130.076 70.8788 129.668 69.4268 128.852 68.3708C128.036 67.3148 126.944 66.5588 125.576 66.1028C124.232 65.6468 122.732 65.4188 121.076 65.4188C120.356 65.4188 119.48 65.4908 118.448 65.6348C117.44 65.7788 116.384 66.0068 115.28 66.3188C114.2 66.6308 113.18 67.0388 112.22 67.5428C111.26 68.0468 110.48 68.6588 109.88 69.3788C109.304 70.0748 109.016 70.9028 109.016 71.8628C109.016 72.4148 109.16 72.8228 109.448 73.0868C109.76 73.3508 110.156 73.5428 110.636 73.6628C110.684 73.6868 110.768 73.7108 110.888 73.7348C111.008 73.7348 111.068 73.7828 111.068 73.8788C110.924 74.0708 110.684 74.1668 110.348 74.1668C109.604 74.1668 109.052 73.9508 108.692 73.5188C108.308 73.0628 108.116 72.4748 108.116 71.7548C108.116 70.6508 108.428 69.6788 109.052 68.8388C109.7 67.9988 110.528 67.3028 111.536 66.7508C112.568 66.1748 113.672 65.7068 114.848 65.3468C116.048 64.9868 117.224 64.7348 118.376 64.5908C119.528 64.4228 120.524 64.3388 121.364 64.3388C123.308 64.3388 125.036 64.5788 126.548 65.0588C128.084 65.5148 129.296 66.3308 130.184 67.5068C131.072 68.6828 131.516 70.3628 131.516 72.5468C131.516 74.3708 131.144 76.1708 130.4 77.9468C129.656 79.6988 128.636 81.3308 127.34 82.8428C126.044 84.3548 124.568 85.6988 122.912 86.8748C121.28 88.0268 119.552 88.9268 117.728 89.5748C115.928 90.2228 114.14 90.5468 112.364 90.5468ZM116.72 87.1268C115.976 87.1268 115.4 86.9468 114.992 86.5868C114.608 86.2268 114.332 85.7588 114.164 85.1828C114.02 84.6068 113.948 84.0188 113.948 83.4188C113.948 82.2908 114.056 80.9828 114.272 79.4948C114.488 77.9828 114.812 76.4468 115.244 74.8868C115.676 73.3028 116.192 71.8268 116.792 70.4588C117.416 69.0908 118.124 67.9748 118.916 67.1108C119.084 66.9428 119.288 66.8588 119.528 66.8588C119.696 66.8588 119.864 66.8948 120.032 66.9668C120.224 67.0388 120.332 67.1708 120.356 67.3628L120.248 67.5788C120.032 68.0108 119.768 68.4188 119.456 68.8028C119.144 69.1628 118.868 69.5588 118.628 69.9908C117.5 71.9108 116.588 74.0108 115.892 76.2908C115.196 78.5468 114.848 80.7908 114.848 83.0228C114.848 83.6948 114.908 84.3668 115.028 85.0388C115.172 85.7108 115.616 86.1788 116.36 86.4428C116.48 86.4668 116.6 86.5148 116.72 86.5868C116.864 86.6588 116.936 86.7668 116.936 86.9108C116.936 87.0548 116.864 87.1268 116.72 87.1268Z" fill="#FFF5E0"/>
<path d="M56.6263 20.1562C58.6263 20.125 60.2669 20.4844 61.5482 21.2344C62.8607 21.9844 63.9232 22.875 64.7357 23.9062C65.5482 24.9375 66.1732 25.9844 66.6107 27.0469C67.0482 28.0781 67.3919 28.8906 67.6419 29.4844C67.7044 29.6406 67.8294 29.8438 68.0169 30.0938C68.1732 30.3125 68.3919 30.5781 68.6732 30.8906C68.9857 31.1719 69.3763 31.5 69.845 31.875C68.8763 31.9062 68.0169 31.9375 67.2669 31.9688C66.5169 31.9688 65.8763 31.9844 65.345 32.0156C64.7513 32.0469 64.22 32.0781 63.7513 32.1094C63.2825 32.1406 62.7044 32.1875 62.0169 32.25C61.3919 32.3125 60.6263 32.375 59.72 32.4375C58.8138 32.5 57.7044 32.5938 56.3919 32.7188C57.1732 31.7812 57.7825 30.9531 58.22 30.2344C58.6888 29.4844 59.0325 28.8281 59.2513 28.2656C59.5013 27.6719 59.6419 27.1562 59.6732 26.7188C59.7357 26.2812 59.72 25.9062 59.6263 25.5938C59.4388 24.875 58.9544 24.3594 58.1732 24.0469C55.9232 23.4219 53.9544 23.9219 52.2669 25.5469C50.6107 27.1406 49.4232 29.7656 48.7044 33.4219C48.3607 35.2344 48.0325 37.125 47.72 39.0938C47.4388 41.0312 47.3294 42.8125 47.3919 44.4375C47.4544 46.0312 47.7669 47.3281 48.3294 48.3281C48.8919 49.3281 49.8607 49.7969 51.2357 49.7344C52.5794 49.6719 53.72 49.4531 54.6575 49.0781C55.595 48.6719 56.345 48.2031 56.9075 47.6719C57.47 47.1094 57.8607 46.5156 58.0794 45.8906C58.3294 45.2344 58.4232 44.625 58.3607 44.0625C58.2357 43.625 57.9075 43.1562 57.3763 42.6562C56.9075 42.2188 56.2044 41.7344 55.2669 41.2031C54.3294 40.6406 52.9857 40.0625 51.2357 39.4688C52.8919 39.375 54.2513 39.3125 55.3138 39.2812C56.4075 39.2188 57.2669 39.1562 57.8919 39.0938C58.6419 39.0312 59.22 38.9844 59.6263 38.9531C60.0013 38.9219 60.5482 38.8906 61.2669 38.8594C61.8919 38.8281 62.6888 38.8125 63.6575 38.8125C64.6575 38.8125 65.9075 38.7969 67.4075 38.7656C66.845 39.3281 66.4075 39.8438 66.095 40.3125C65.9388 40.5625 65.7982 40.7812 65.6732 40.9688C65.5482 41.2812 65.5013 41.9219 65.5325 42.8906C65.5325 43.7031 65.595 44.9062 65.72 46.5C65.845 48.0625 66.0794 50.2031 66.4232 52.9219L60.1888 53.7656L60.47 47.4375C59.7513 49.1562 58.845 50.4375 57.7513 51.2812C56.6888 52.125 55.6732 52.7188 54.7044 53.0625C53.5482 53.4688 52.345 53.6562 51.095 53.625C49.47 53.4688 47.845 53.0938 46.22 52.5C44.595 51.9062 43.1575 51 41.9075 49.7812C40.6575 48.5312 39.6888 46.9219 39.0013 44.9531C38.345 42.9844 38.1419 40.5469 38.3919 37.6406C38.6732 34.7344 39.3607 32.2031 40.4544 30.0469C41.5794 27.8594 42.97 26.0469 44.6263 24.6094C46.2825 23.1719 48.1419 22.0938 50.2044 21.375C52.2982 20.625 54.4388 20.2188 56.6263 20.1562ZM73.3607 35.0156C73.5169 34.8281 73.6107 34.4844 73.6419 33.9844C73.7044 33.4531 73.8294 32.8594 74.0169 32.2031C74.2357 31.5469 74.595 30.8594 75.095 30.1406C75.595 29.4219 76.4075 28.75 77.5325 28.125C78.6263 27.5 79.6888 27.125 80.72 27C81.7513 26.875 82.7357 26.9219 83.6732 27.1406C84.6107 27.3594 85.4857 27.7031 86.2982 28.1719C87.1419 28.6406 87.9075 29.1562 88.595 29.7188C89.0638 30.0938 89.4388 30.6406 89.72 31.3594C90.0013 32.0469 90.22 32.8281 90.3763 33.7031C90.5325 34.5781 90.6419 35.5 90.7044 36.4688C90.7982 37.4062 90.8607 38.3281 90.8919 39.2344C90.9232 40.1094 90.9388 40.9219 90.9388 41.6719C90.97 42.3906 91.0325 42.9844 91.1263 43.4531C91.2513 44.1406 91.47 44.7344 91.7825 45.2344C92.095 45.7031 92.4388 46.1094 92.8138 46.4531C93.1888 46.7656 93.5638 47.0156 93.9388 47.2031C94.3138 47.3906 94.6419 47.5312 94.9232 47.625C95.1107 47.7188 95.2825 47.7812 95.4388 47.8125C95.7513 47.9375 95.97 47.9375 96.095 47.8125C95.9075 48.25 95.7357 48.625 95.5794 48.9375C95.4232 49.25 95.2982 49.5156 95.2044 49.7344C95.0794 49.9844 94.97 50.1875 94.8763 50.3438C94.7825 50.5312 94.6732 50.7031 94.5482 50.8594C94.4544 51.0156 94.3294 51.1875 94.1732 51.375C94.0169 51.5625 93.8607 51.7656 93.7044 51.9844C93.2982 51.8281 92.9075 51.6406 92.5325 51.4219C92.1888 51.2031 91.8763 51 91.595 50.8125C91.2513 50.5938 90.9388 50.375 90.6575 50.1562C90.3763 49.9375 90.1107 49.6875 89.8607 49.4062C89.6419 49.1562 89.4075 48.8906 89.1575 48.6094C88.9388 48.3281 88.7513 48.0156 88.595 47.6719C88.4075 48.0781 87.9544 48.6562 87.2357 49.4062C86.5482 50.1562 85.6419 50.8438 84.5169 51.4688C83.3919 52.0625 82.0794 52.4844 80.5794 52.7344C79.1107 52.9844 77.4857 52.8125 75.7044 52.2188C74.9232 51.9688 74.1888 51.6094 73.5013 51.1406C72.8138 50.6406 72.22 50.0469 71.72 49.3594C71.2513 48.6719 70.9075 47.8906 70.6888 47.0156C70.5013 46.1094 70.5169 45.1094 70.7357 44.0156C70.9544 42.9219 71.345 42 71.9075 41.25C72.47 40.5 73.1419 39.8906 73.9232 39.4219C74.7044 38.9531 75.5794 38.5938 76.5482 38.3438C77.5169 38.0938 78.5169 37.9219 79.5482 37.8281C80.3607 37.7969 81.1732 37.8438 81.9857 37.9688C82.6732 38.0938 83.3919 38.3281 84.1419 38.6719C84.8919 38.9844 85.5325 39.4688 86.0638 40.125C86.0325 38.4688 85.97 37.1562 85.8763 36.1875C85.8138 35.1875 85.7513 34.4219 85.6888 33.8906C85.5638 33.2656 85.4544 32.8281 85.3607 32.5781C85.2044 32.3594 85.0325 32.1094 84.845 31.8281C84.6888 31.5469 84.4857 31.2969 84.2357 31.0781C83.9857 30.8281 83.6732 30.625 83.2982 30.4688C82.9232 30.3125 82.4857 30.25 81.9857 30.2812C81.4544 30.3125 81.0325 30.4531 80.72 30.7031C80.4075 30.9531 80.1575 31.25 79.97 31.5938C79.8138 31.9062 79.72 32.25 79.6888 32.625C79.6575 33 79.6732 33.3281 79.7357 33.6094C79.7982 33.7969 79.8919 34 80.0169 34.2188C80.1419 34.4062 80.3138 34.6094 80.5325 34.8281C80.7513 35.0469 81.0482 35.2344 81.4232 35.3906C80.7044 35.4844 80.0638 35.5625 79.5013 35.625C78.9388 35.6562 78.4544 35.7031 78.0482 35.7656C77.5794 35.8281 77.1732 35.875 76.8294 35.9062C76.4857 35.9375 76.0794 36 75.6107 36.0938C75.2044 36.1562 74.7044 36.2344 74.1107 36.3281C73.5169 36.4219 72.8294 36.5469 72.0482 36.7031C72.2357 36.4844 72.4075 36.2812 72.5638 36.0938C72.72 35.875 72.8607 35.6875 72.9857 35.5312C73.1107 35.3438 73.2357 35.1719 73.3607 35.0156ZM80.3919 40.5938C79.8294 40.625 79.2669 40.7656 78.7044 41.0156C78.1419 41.2344 77.6419 41.5625 77.2044 42C76.7669 42.4062 76.3919 42.8906 76.0794 43.4531C75.7982 43.9844 75.6575 44.5781 75.6575 45.2344C75.6575 45.8906 75.8138 46.4688 76.1263 46.9688C76.47 47.4375 76.9075 47.8281 77.4388 48.1406C78.0013 48.4531 78.595 48.6406 79.22 48.7031C79.8763 48.7656 80.5169 48.7031 81.1419 48.5156C81.7357 48.2969 82.2982 47.9531 82.8294 47.4844C83.3607 46.9844 83.8138 46.4531 84.1888 45.8906C84.5638 45.2969 84.8294 44.7188 84.9857 44.1562C85.1419 43.5625 85.1575 43.0781 85.0325 42.7031C84.7825 41.8906 84.22 41.3281 83.345 41.0156C82.47 40.6719 81.4857 40.5312 80.3919 40.5938ZM95.3919 31.7812C96.1107 31.7188 96.72 31.6562 97.22 31.5938C97.7513 31.5312 98.1888 31.4688 98.5325 31.4062C98.9388 31.3438 99.2825 31.2812 99.5638 31.2188C99.845 31.1875 100.158 31.125 100.501 31.0312C100.814 30.9688 101.158 30.8906 101.533 30.7969C101.939 30.6719 102.376 30.5312 102.845 30.375L102.564 36.3281C103.251 35.2344 104.048 34.4062 104.954 33.8438C105.861 33.25 106.72 32.8125 107.533 32.5312C108.501 32.1875 109.47 31.9844 110.439 31.9219C111.439 31.9531 112.361 32.1094 113.204 32.3906C113.923 32.6406 114.642 33.0312 115.361 33.5625C116.111 34.0938 116.689 34.875 117.095 35.9062C118.158 34.8125 119.204 33.9688 120.236 33.375C121.298 32.75 122.236 32.2812 123.048 31.9688C124.017 31.625 124.923 31.4219 125.767 31.3594C126.892 31.3281 127.923 31.5156 128.861 31.9219C129.829 32.3281 130.673 32.8438 131.392 33.4688C132.111 34.0625 132.689 34.7031 133.126 35.3906C133.564 36.0469 133.814 36.625 133.876 37.125C133.97 37.8125 133.923 38.7031 133.736 39.7969C133.548 40.8594 133.329 41.9531 133.079 43.0781C132.829 44.1719 132.595 45.1875 132.376 46.125C132.189 47.0312 132.111 47.6719 132.142 48.0469C132.236 48.3594 132.454 48.7344 132.798 49.1719C133.111 49.5469 133.564 50.0156 134.158 50.5781C134.783 51.1094 135.673 51.7344 136.829 52.4531C135.829 52.4219 134.939 52.3906 134.158 52.3594C133.408 52.3281 132.767 52.2812 132.236 52.2188C131.611 52.1562 131.064 52.1094 130.595 52.0781C130.22 52.0781 129.767 52.0469 129.236 51.9844C128.798 51.9531 128.22 51.9062 127.501 51.8438C126.814 51.7812 126.017 51.7188 125.111 51.6562C125.454 51.5625 125.736 51.3906 125.954 51.1406C126.173 50.8594 126.361 50.5938 126.517 50.3438C126.673 50.0312 126.798 49.6875 126.892 49.3125C126.954 49 127.017 48.5 127.079 47.8125C127.142 47.125 127.189 46.3438 127.22 45.4688C127.283 44.5938 127.314 43.6719 127.314 42.7031C127.345 41.7344 127.345 40.8125 127.314 39.9375C127.283 39.0625 127.22 38.2656 127.126 37.5469C127.033 36.8281 126.908 36.2812 126.751 35.9062C126.626 35.625 126.408 35.4062 126.095 35.25C125.783 35.0625 125.423 34.9531 125.017 34.9219C124.611 34.8594 124.204 34.875 123.798 34.9688C123.392 35.0312 123.033 35.1562 122.72 35.3438C122.439 35.5625 122.064 35.8594 121.595 36.2344C121.189 36.5781 120.658 37.0469 120.001 37.6406C119.345 38.2344 118.517 38.9844 117.517 39.8906C117.423 41.8594 117.345 43.4531 117.283 44.6719C117.251 45.8594 117.22 46.7656 117.189 47.3906C117.158 48.1406 117.142 48.6562 117.142 48.9375C117.111 49.1875 117.126 49.4219 117.189 49.6406C117.251 50.1094 117.439 50.5469 117.751 50.9531C117.376 50.8594 116.97 50.7969 116.533 50.7656C116.126 50.7344 115.751 50.7031 115.408 50.6719C115.001 50.6406 114.595 50.625 114.189 50.625C113.845 50.625 113.47 50.6406 113.064 50.6719C112.72 50.7031 112.298 50.75 111.798 50.8125C111.298 50.8438 110.751 50.8906 110.158 50.9531C110.408 50.7969 110.611 50.6094 110.767 50.3906C110.923 50.1719 111.048 49.9688 111.142 49.7812C111.267 49.5625 111.361 49.3594 111.423 49.1719C111.454 48.9844 111.517 48.5312 111.611 47.8125C111.704 47.0625 111.767 46.1875 111.798 45.1875C111.829 44.1875 111.829 43.1406 111.798 42.0469C111.767 40.9219 111.658 39.9062 111.47 39C111.283 38.0625 110.986 37.2969 110.579 36.7031C110.204 36.1094 109.704 35.8438 109.079 35.9062C108.329 35.9688 107.564 36.1562 106.783 36.4688C106.126 36.7188 105.423 37.0938 104.673 37.5938C103.923 38.0938 103.22 38.7656 102.564 39.6094C102.439 41.9531 102.361 43.8125 102.329 45.1875C102.329 46.5625 102.345 47.6094 102.376 48.3281C102.408 49.1719 102.439 49.75 102.47 50.0625C102.501 50.2812 102.579 50.5 102.704 50.7188C102.798 50.9062 102.908 51.125 103.033 51.375C103.189 51.625 103.361 51.8594 103.548 52.0781L96.095 51.7031C96.345 51.5781 96.5638 51.4219 96.7513 51.2344C96.9388 51.0156 97.095 50.7969 97.22 50.5781C97.345 50.3281 97.47 50.0781 97.595 49.8281C97.6888 49.6094 97.7669 49.0938 97.8294 48.2812C97.9232 47.4688 98.0013 46.5156 98.0638 45.4219C98.1263 44.2969 98.1732 43.125 98.2044 41.9062C98.2669 40.6562 98.2982 39.5 98.2982 38.4375C98.3294 37.3438 98.345 36.4219 98.345 35.6719C98.345 34.8906 98.3294 34.4219 98.2982 34.2656C98.2044 33.9531 98.0325 33.625 97.7825 33.2812C97.5638 33.0312 97.2669 32.7656 96.8919 32.4844C96.5169 32.1719 96.0169 31.9375 95.3919 31.7812ZM149.251 46.4531C150.126 46.4531 150.939 46.3594 151.689 46.1719C152.314 46.0156 152.908 45.7656 153.47 45.4219C154.064 45.0469 154.454 44.5 154.642 43.7812C155.267 43.9062 155.798 44.0156 156.236 44.1094C156.673 44.1719 157.048 44.2344 157.361 44.2969C157.704 44.3906 158.001 44.4531 158.251 44.4844C158.501 44.5469 158.798 44.6094 159.142 44.6719C159.454 44.7344 159.829 44.8125 160.267 44.9062C160.736 44.9688 161.283 45.0625 161.908 45.1875C161.439 45.125 160.954 45.1719 160.454 45.3281C159.986 45.4844 159.533 45.6562 159.095 45.8438C158.595 46.0625 158.126 46.3281 157.689 46.6406C157.408 46.8281 157.079 47.1094 156.704 47.4844C156.361 47.8594 155.861 48.2188 155.204 48.5625C154.548 48.9062 153.673 49.2031 152.579 49.4531C151.517 49.6719 150.142 49.75 148.454 49.6875C146.423 49.625 144.72 49.2656 143.345 48.6094C141.97 47.9219 140.861 47.0938 140.017 46.125C139.173 45.125 138.564 44.0469 138.189 42.8906C137.814 41.7344 137.611 40.6562 137.579 39.6562C137.548 38.6562 137.845 37.6094 138.47 36.5156C139.095 35.4219 139.97 34.4219 141.095 33.5156C142.251 32.6094 143.642 31.875 145.267 31.3125C146.892 30.7188 148.673 30.4219 150.611 30.4219C151.736 30.4219 152.767 30.5625 153.704 30.8438C154.673 31.0938 155.548 31.4375 156.329 31.875C157.142 32.3125 157.845 32.8125 158.439 33.375C159.033 33.9062 159.533 34.4531 159.939 35.0156C160.345 35.6094 160.689 36.2344 160.97 36.8906C161.22 37.4531 161.423 38.0938 161.579 38.8125C161.736 39.5312 161.783 40.2656 161.72 41.0156C159.345 41.0781 157.423 41.125 155.954 41.1562C154.517 41.1875 153.392 41.2031 152.579 41.2031H150.47H148.876C148.314 41.2031 147.579 41.2188 146.673 41.25C145.767 41.2812 144.658 41.3281 143.345 41.3906C143.501 42.6406 143.892 43.6094 144.517 44.2969C145.173 44.9531 145.861 45.4531 146.579 45.7969C147.392 46.1719 148.283 46.3906 149.251 46.4531ZM145.033 38.0156C146.033 38.0781 146.861 38.125 147.517 38.1562C148.204 38.1875 148.767 38.2188 149.204 38.25C149.673 38.2812 150.048 38.2969 150.329 38.2969H151.501C152.283 38.2969 153.736 38.25 155.861 38.1562C155.767 36.7812 155.47 35.7344 154.97 35.0156C154.501 34.2969 154.001 33.7656 153.47 33.4219C152.845 33.0469 152.158 32.8281 151.408 32.7656C149.376 32.7969 147.861 33.2188 146.861 34.0312C145.892 34.8438 145.283 36.1719 145.033 38.0156ZM163.126 31.5469C163.72 31.5781 164.251 31.5938 164.72 31.5938C165.22 31.5625 165.642 31.5312 165.986 31.5C166.392 31.4688 166.751 31.4375 167.064 31.4062C167.533 31.3438 168.017 31.2656 168.517 31.1719C168.954 31.1094 169.408 31.0312 169.876 30.9375C170.376 30.8125 170.861 30.6719 171.329 30.5156C171.142 30.9844 170.986 31.3906 170.861 31.7344C170.736 32.0781 170.642 32.375 170.579 32.625C170.486 32.9062 170.439 33.1406 170.439 33.3281C170.408 33.5469 170.392 33.8125 170.392 34.125C170.361 34.6562 170.361 35.5156 170.392 36.7031C172.017 35.2969 173.376 34.2031 174.47 33.4219C175.595 32.6406 176.486 32.0312 177.142 31.5938C177.923 31.0938 178.533 30.7656 178.97 30.6094C180.126 30.4219 181.142 30.6875 182.017 31.4062C182.392 31.7188 182.751 32.1406 183.095 32.6719C183.439 33.1719 183.736 33.8438 183.986 34.6875C184.236 35.5312 184.423 36.5469 184.548 37.7344C184.673 38.8906 184.689 40.2812 184.595 41.9062C183.939 41.9688 183.345 42.0312 182.814 42.0938C182.314 42.1562 181.892 42.2031 181.548 42.2344C181.142 42.2969 180.767 42.3281 180.423 42.3281L179.158 42.4688C178.72 42.5312 178.173 42.5938 177.517 42.6562C176.892 42.6875 176.126 42.75 175.22 42.8438C176.533 41.7812 177.376 40.8594 177.751 40.0781C178.158 39.2656 178.329 38.5938 178.267 38.0625C178.204 37.4688 177.923 36.9531 177.423 36.5156C176.829 36.1719 176.189 36.0469 175.501 36.1406C174.908 36.2031 174.22 36.4688 173.439 36.9375C172.658 37.4062 171.829 38.2812 170.954 39.5625C171.017 41.5625 171.079 43.2188 171.142 44.5312C171.236 45.8438 171.314 46.9062 171.376 47.7188C171.47 48.6562 171.548 49.3906 171.611 49.9219C171.704 50.3906 171.892 50.8906 172.173 51.4219C172.392 51.8594 172.704 52.3438 173.111 52.875C173.517 53.4062 174.048 53.9375 174.704 54.4688C173.329 54.4062 172.204 54.4062 171.329 54.4688C170.798 54.5 170.329 54.5312 169.923 54.5625C169.486 54.625 169.017 54.6875 168.517 54.75C168.079 54.8125 167.564 54.875 166.97 54.9375C166.408 55.0312 165.783 55.125 165.095 55.2188C165.345 54.875 165.548 54.4688 165.704 54C165.861 53.5625 165.986 53.1406 166.079 52.7344C166.204 52.2656 166.298 51.7812 166.361 51.2812C166.392 50.8438 166.408 50.1875 166.408 49.3125C166.439 48.4375 166.423 47.4531 166.361 46.3594C166.329 45.2344 166.283 44.0781 166.22 42.8906C166.158 41.6719 166.079 40.5312 165.986 39.4688C165.892 38.4062 165.783 37.4844 165.658 36.7031C165.564 35.8906 165.454 35.3281 165.329 35.0156C165.173 34.6406 164.986 34.2656 164.767 33.8906C164.579 33.5469 164.345 33.1875 164.064 32.8125C163.783 32.4062 163.47 31.9844 163.126 31.5469Z" fill="#FFF5E0"/>
<path d="M166.719 82.2097C166.079 82.2097 165.519 82.1147 165.039 81.9247C164.559 81.7347 164.144 81.4797 163.794 81.1597C163.454 80.8397 163.179 80.4797 162.969 80.0797C162.759 79.6697 162.604 79.2447 162.504 78.8047C162.404 78.3647 162.354 77.9347 162.354 77.5147C162.354 76.8447 162.464 76.1797 162.684 75.5197C162.904 74.8497 163.219 74.2197 163.629 73.6297C164.039 73.0297 164.514 72.4997 165.054 72.0397C165.594 71.5697 166.184 71.2047 166.824 70.9447C167.464 70.6747 168.129 70.5397 168.819 70.5397C169.249 70.5397 169.644 70.6097 170.004 70.7497C170.364 70.8797 170.724 71.1097 171.084 71.4397L171.774 70.7047H172.224L171.519 74.0497H171.114C171.114 73.4197 171.004 72.8797 170.784 72.4297C170.574 71.9797 170.289 71.6347 169.929 71.3947C169.579 71.1447 169.179 71.0197 168.729 71.0197C168.279 71.0197 167.864 71.1497 167.484 71.4097C167.104 71.6597 166.764 72.0047 166.464 72.4447C166.174 72.8747 165.914 73.3647 165.684 73.9147C165.464 74.4547 165.279 75.0247 165.129 75.6247C164.989 76.2147 164.884 76.7947 164.814 77.3647C164.744 77.9347 164.709 78.4547 164.709 78.9247C164.709 79.6147 164.784 80.1647 164.934 80.5747C165.084 80.9747 165.299 81.2597 165.579 81.4297C165.869 81.5997 166.219 81.6847 166.629 81.6847C167.059 81.6847 167.439 81.5897 167.769 81.3997C168.099 81.2097 168.379 80.8647 168.609 80.3647C168.849 79.8647 169.044 79.1697 169.194 78.2797H171.684C171.424 79.1697 171.069 79.9047 170.619 80.4847C170.169 81.0647 169.619 81.4997 168.969 81.7897C168.329 82.0697 167.579 82.2097 166.719 82.2097ZM167.664 78.3397V77.9347H172.809V78.3397H167.664ZM171.915 81.7147L179.67 70.5247L177.975 73.7497L172.53 81.7147H171.915ZM171.03 82.0147V81.5947H174.06V82.0147H171.03ZM176.085 82.0147V81.5947H180.51V82.0147H176.085ZM174.525 78.5797V78.1147H178.56V78.5797H174.525ZM177.255 81.8647L177.99 73.8097H177.93L179.61 70.5247H180.15L179.325 81.8647H177.255ZM186.743 82.0147L188.273 78.2647L192.533 70.7047H193.193L186.743 82.0147ZM181.433 82.0147V81.5947H184.763V82.0147H181.433ZM182.663 82.0147L185.123 70.7047H185.648L183.188 82.0147H182.663ZM188.843 82.0147V81.5947H193.838V82.0147H188.843ZM186.428 82.0147L185.408 72.0397H185.348L185.483 70.7047H187.448L188.213 78.2647H188.273L186.743 82.0147H186.428ZM183.713 71.1247V70.7047H187.448V71.1247H183.713ZM190.133 82.0147L192.593 70.7047H194.618L192.098 82.0147H190.133ZM192.833 71.1247V70.7047H196.013V71.1247H192.833ZM195.662 82.0147L198.122 70.7047H200.132L197.612 82.0147H195.662ZM194.252 82.0147V81.5947H200.222C200.672 81.5947 201.082 81.5147 201.452 81.3547C201.822 81.1847 202.182 80.8797 202.532 80.4397C202.882 79.9997 203.247 79.3647 203.627 78.5347H204.152L203.252 82.0147H194.252ZM200.897 78.6097C200.897 77.9997 200.847 77.5347 200.747 77.2147C200.657 76.8947 200.502 76.6747 200.282 76.5547C200.072 76.4347 199.787 76.3747 199.427 76.3747H198.122V75.9547H199.667C200.037 75.9547 200.357 75.8947 200.627 75.7747C200.897 75.6547 201.132 75.4547 201.332 75.1747C201.532 74.8847 201.707 74.4897 201.857 73.9897H202.307L201.377 78.6097H200.897ZM204.107 73.7647C204.107 73.0647 204.037 72.5247 203.897 72.1447C203.767 71.7647 203.522 71.4997 203.162 71.3497C202.802 71.1997 202.287 71.1247 201.617 71.1247H196.442V70.7047H205.112L204.632 73.7647H204.107ZM169.277 101.18C168.617 101.18 168.022 101.06 167.492 100.82C166.972 100.57 166.527 100.235 166.157 99.8147C165.787 99.3947 165.502 98.9147 165.302 98.3747C165.102 97.8247 165.002 97.2447 165.002 96.6347C165.002 95.9447 165.122 95.2597 165.362 94.5797C165.602 93.8997 165.937 93.2597 166.367 92.6597C166.797 92.0497 167.287 91.5147 167.837 91.0547C168.397 90.5947 168.997 90.2347 169.637 89.9747C170.287 89.7047 170.947 89.5697 171.617 89.5697C172.257 89.5697 172.832 89.6897 173.342 89.9297C173.862 90.1697 174.307 90.4997 174.677 90.9197C175.047 91.3297 175.332 91.8047 175.532 92.3447C175.732 92.8847 175.832 93.4547 175.832 94.0547C175.832 94.6847 175.717 95.3347 175.487 96.0047C175.267 96.6747 174.957 97.3197 174.557 97.9397C174.167 98.5497 173.697 99.0997 173.147 99.5897C172.607 100.08 172.007 100.47 171.347 100.76C170.697 101.04 170.007 101.18 169.277 101.18ZM169.277 100.715C169.827 100.715 170.312 100.585 170.732 100.325C171.152 100.055 171.517 99.6997 171.827 99.2597C172.147 98.8097 172.417 98.3047 172.637 97.7447C172.857 97.1847 173.032 96.6097 173.162 96.0197C173.292 95.4197 173.387 94.8397 173.447 94.2797C173.507 93.7197 173.537 93.2197 173.537 92.7797C173.537 92.3397 173.502 91.9497 173.432 91.6097C173.362 91.2597 173.252 90.9697 173.102 90.7397C172.952 90.4997 172.757 90.3197 172.517 90.1997C172.277 90.0797 171.987 90.0197 171.647 90.0197C171.117 90.0197 170.637 90.1497 170.207 90.4097C169.787 90.6697 169.422 91.0197 169.112 91.4597C168.802 91.8997 168.532 92.3997 168.302 92.9597C168.072 93.5197 167.887 94.0997 167.747 94.6997C167.607 95.2997 167.502 95.8847 167.432 96.4547C167.372 97.0147 167.342 97.5297 167.342 97.9997C167.342 98.8397 167.487 99.5047 167.777 99.9947C168.077 100.475 168.577 100.715 169.277 100.715ZM177.764 101.195L179.654 97.8347L185.294 90.0047H185.864L177.869 101.195H177.764ZM177.449 101.195L178.124 89.8547H180.269L179.639 97.7747H179.699L177.839 101.195H177.449ZM176.939 90.1247V89.7047H181.349V90.1247H176.939ZM183.689 90.1247V89.7047H186.944V90.1247H183.689ZM185.261 101.015L187.721 89.7047H189.731L187.211 101.015H185.261ZM183.851 101.015V100.595H189.821C190.271 100.595 190.681 100.515 191.051 100.355C191.421 100.185 191.781 99.8797 192.131 99.4397C192.481 98.9997 192.846 98.3647 193.226 97.5347H193.751L192.851 101.015H183.851ZM190.496 97.6097C190.496 96.9997 190.446 96.5347 190.346 96.2147C190.256 95.8947 190.101 95.6747 189.881 95.5547C189.671 95.4347 189.386 95.3747 189.026 95.3747H187.721V94.9547H189.266C189.636 94.9547 189.956 94.8947 190.226 94.7747C190.496 94.6547 190.731 94.4547 190.931 94.1747C191.131 93.8847 191.306 93.4897 191.456 92.9897H191.906L190.976 97.6097H190.496ZM193.706 92.7647C193.706 92.0647 193.636 91.5247 193.496 91.1447C193.366 90.7647 193.121 90.4997 192.761 90.3497C192.401 90.1997 191.886 90.1247 191.216 90.1247H186.041V89.7047H194.711L194.231 92.7647H193.706ZM195.488 101.015L197.948 89.7047H199.973L197.453 101.015H195.488ZM194.348 101.015V100.595H199.058V101.015H194.348ZM203.693 101.18C203.173 101.18 202.753 101.105 202.433 100.955C202.113 100.795 201.863 100.585 201.683 100.325C201.513 100.065 201.388 99.7797 201.308 99.4697C201.238 99.1497 201.193 98.8247 201.173 98.4947C201.153 98.1547 201.133 97.8297 201.113 97.5197C201.093 97.0497 201.023 96.6447 200.903 96.3047C200.783 95.9547 200.588 95.6847 200.318 95.4947C200.058 95.3047 199.698 95.2097 199.238 95.2097L201.083 95.1347V95.1947C201.563 95.3547 201.953 95.5397 202.253 95.7497C202.553 95.9497 202.788 96.1897 202.958 96.4697C203.128 96.7397 203.248 97.0647 203.318 97.4447C203.398 97.8247 203.453 98.2647 203.483 98.7647C203.503 99.1447 203.523 99.4697 203.543 99.7397C203.573 99.9997 203.643 100.2 203.753 100.34C203.873 100.48 204.073 100.55 204.353 100.55C204.493 100.55 204.618 100.53 204.728 100.49C204.848 100.45 204.963 100.39 205.073 100.31L205.313 100.64C205.153 100.8 204.948 100.93 204.698 101.03C204.448 101.13 204.113 101.18 203.693 101.18ZM197.273 95.1947V94.7897H200.108C200.948 94.7897 201.593 94.5247 202.043 93.9947C202.503 93.4647 202.733 92.7197 202.733 91.7597C202.733 91.3697 202.683 91.0547 202.583 90.8147C202.483 90.5747 202.298 90.3997 202.028 90.2897C201.758 90.1797 201.363 90.1247 200.843 90.1247H196.418V89.7047H201.023C202.333 89.7047 203.323 89.9497 203.993 90.4397C204.673 90.9197 205.013 91.5397 205.013 92.2997C205.013 93.1997 204.553 93.9097 203.633 94.4297C202.723 94.9397 201.423 95.1947 199.733 95.1947H197.273Z" fill="#FFF5E0"/>
<g clip-path="url(#clip0_154_2)">
<path d="M10.2542 82.332L10.2481 82.3297C10.2481 82.3297 7.11459 96.8162 7.11459 98.9045C7.11459 101.033 9.16639 102.757 11.6979 102.757C12.7368 102.757 13.684 102.456 14.4525 101.966L29.9839 91.5382L10.2542 82.332ZM58.6694 82.332L58.6756 82.3297C58.6756 82.3297 61.809 96.8162 61.809 98.9045C61.809 101.033 59.7572 102.757 57.2257 102.757C56.1868 102.757 55.2396 102.456 54.4711 101.966L38.9397 91.5382L58.6694 82.332Z" fill="#31373D"/>
<path d="M46.684 93.0595C53.8561 93.0595 59.6701 88.6197 59.6701 83.1428C59.6701 77.666 53.8561 73.2262 46.684 73.2262C39.512 73.2262 33.6979 77.666 33.6979 83.1428C33.6979 88.6197 39.512 93.0595 46.684 93.0595Z" fill="#14171A"/>
<path d="M22.2396 93.0595C29.4116 93.0595 35.2257 88.6197 35.2257 83.1428C35.2257 77.666 29.4116 73.2262 22.2396 73.2262C15.0676 73.2262 9.25347 77.666 9.25347 83.1428C9.25347 88.6197 15.0676 93.0595 22.2396 93.0595Z" fill="#14171A"/>
<path d="M22.2396 73.2262H46.684V92.9078H22.2396V73.2262Z" fill="#14171A"/>
<path d="M26.9757 98.0178C31.1945 98.0178 34.6146 95.4062 34.6146 92.1845C34.6146 88.9628 31.1945 86.3512 26.9757 86.3512C22.7569 86.3512 19.3368 88.9628 19.3368 92.1845C19.3368 95.4062 22.7569 98.0178 26.9757 98.0178Z" fill="#14171A"/>
<path d="M41.9479 98.0178C46.1668 98.0178 49.5868 95.4062 49.5868 92.1845C49.5868 88.9628 46.1668 86.3512 41.9479 86.3512C37.7291 86.3512 34.309 88.9628 34.309 92.1845C34.309 95.4062 37.7291 98.0178 41.9479 98.0178Z" fill="#14171A"/>
<path d="M41.9479 95.6845C44.4792 95.6845 46.5312 94.1175 46.5312 92.1845C46.5312 90.2515 44.4792 88.6845 41.9479 88.6845C39.4166 88.6845 37.3646 90.2515 37.3646 92.1845C37.3646 94.1175 39.4166 95.6845 41.9479 95.6845Z" fill="#67757F"/>
<path d="M26.9757 95.6845C29.507 95.6845 31.559 94.1175 31.559 92.1845C31.559 90.2515 29.507 88.6845 26.9757 88.6845C24.4444 88.6845 22.3924 90.2515 22.3924 92.1845C22.3924 94.1175 24.4444 95.6845 26.9757 95.6845Z" fill="#67757F"/>
<path d="M46.3174 79.8587C47.6699 79.8587 48.7664 79.0214 48.7664 77.9885C48.7664 76.9557 47.6699 76.1183 46.3174 76.1183C44.9648 76.1183 43.8683 76.9557 43.8683 77.9885C43.8683 79.0214 44.9648 79.8587 46.3174 79.8587Z" fill="#FFCC4D"/>
<path d="M46.3174 87.4117C47.6699 87.4117 48.7664 86.5744 48.7664 85.5415C48.7664 84.5086 47.6699 83.6713 46.3174 83.6713C44.9648 83.6713 43.8683 84.5086 43.8683 85.5415C43.8683 86.5744 44.9648 87.4117 46.3174 87.4117Z" fill="#77B255"/>
<path d="M52.2268 88.5737C53.5794 88.5737 54.6758 87.7364 54.6758 86.7035C54.6758 85.6706 53.5794 84.8333 52.2268 84.8333C50.8742 84.8333 49.7778 85.6706 49.7778 86.7035C49.7778 87.7364 50.8742 88.5737 52.2268 88.5737Z" fill="#50A5E6"/>
<path d="M51.2628 83.6352C52.6153 83.6352 53.7118 82.7979 53.7118 81.765C53.7118 80.7321 52.6153 79.8948 51.2628 79.8948C49.9102 79.8948 48.8138 80.7321 48.8138 81.765C48.8138 82.7979 49.9102 83.6352 51.2628 83.6352Z" fill="#DD2E44"/>
<path d="M24.0317 79.5997V77.0703C24.0317 76.9141 23.9504 76.7642 23.8057 76.6537C23.661 76.5432 23.4648 76.4812 23.2601 76.4812H20.8799C20.6752 76.4812 20.479 76.5432 20.3343 76.6537C20.1896 76.7642 20.1083 76.9141 20.1083 77.0703V79.5997L22.07 81.0988L24.0317 79.5997ZM20.1068 83.8347V86.364C20.1068 86.6895 20.4521 86.9532 20.8783 86.9532H23.2586C23.4632 86.9532 23.6595 86.8911 23.8042 86.7806C23.9489 86.6701 24.0301 86.5203 24.0301 86.364V83.8347L22.0685 82.3355L20.1068 83.8347ZM28.1567 80.218H24.8444L22.8813 81.7172L24.8444 83.2163H28.1567C28.3612 83.216 28.5572 83.1539 28.7018 83.0434C28.8464 82.933 28.9278 82.7833 28.9282 82.6272V80.8083C28.9282 80.652 28.847 80.502 28.7023 80.3913C28.5577 80.2806 28.3614 80.2183 28.1567 80.218ZM19.2971 80.218H15.9833C15.7788 80.2183 15.5828 80.2805 15.4382 80.3909C15.2936 80.5013 15.2122 80.651 15.2118 80.8072V82.6248C15.2118 82.9503 15.5571 83.214 15.9833 83.214H19.2956L21.2588 81.7148L19.2971 80.218Z" fill="#8899A6"/>
</g>
<defs>
<clipPath id="clip0_154_2">
<rect width="55" height="42" fill="white" transform="translate(7 65)"/>
</clipPath>
</defs>
</svg>
