<svg width="140" height="36" viewBox="0 0 140 36" fill="none" xmlns="http://www.w3.org/2000/svg">
<path d="M13.734 12.58V25H12.474V15.082L8.046 25H7.128L2.7 15.118V25H1.44V12.58H2.772L7.578 23.344L12.384 12.58H13.734ZM20.1743 25.144C19.2503 25.144 18.4163 24.94 17.6723 24.532C16.9403 24.112 16.3583 23.524 15.9263 22.768C15.5063 22 15.2963 21.106 15.2963 20.086C15.2963 19.066 15.5123 18.178 15.9443 17.422C16.3763 16.654 16.9643 16.066 17.7083 15.658C18.4523 15.238 19.2863 15.028 20.2103 15.028C21.1343 15.028 21.9683 15.238 22.7123 15.658C23.4683 16.066 24.0563 16.654 24.4763 17.422C24.9083 18.178 25.1243 19.066 25.1243 20.086C25.1243 21.094 24.9083 21.982 24.4763 22.75C24.0443 23.518 23.4503 24.112 22.6943 24.532C21.9383 24.94 21.0983 25.144 20.1743 25.144ZM20.1743 24.046C20.8223 24.046 21.4223 23.902 21.9743 23.614C22.5263 23.314 22.9703 22.87 23.3063 22.282C23.6543 21.682 23.8283 20.95 23.8283 20.086C23.8283 19.222 23.6603 18.496 23.3243 17.908C22.9883 17.308 22.5443 16.864 21.9923 16.576C21.4403 16.276 20.8403 16.126 20.1923 16.126C19.5443 16.126 18.9443 16.276 18.3923 16.576C17.8403 16.864 17.3963 17.308 17.0603 17.908C16.7363 18.496 16.5743 19.222 16.5743 20.086C16.5743 20.95 16.7363 21.682 17.0603 22.282C17.3963 22.87 17.8343 23.314 18.3743 23.614C18.9263 23.902 19.5263 24.046 20.1743 24.046ZM26.1252 20.068C26.1252 19.06 26.3292 18.178 26.7372 17.422C27.1452 16.654 27.7032 16.066 28.4112 15.658C29.1312 15.238 29.9412 15.028 30.8412 15.028C31.7052 15.028 32.4852 15.238 33.1812 15.658C33.8772 16.078 34.3872 16.624 34.7112 17.296V11.68H35.9712V25H34.7112V22.804C34.4112 23.488 33.9192 24.052 33.2352 24.496C32.5512 24.928 31.7472 25.144 30.8232 25.144C29.9232 25.144 29.1132 24.934 28.3932 24.514C27.6852 24.094 27.1272 23.5 26.7192 22.732C26.3232 21.964 26.1252 21.076 26.1252 20.068ZM34.7112 20.086C34.7112 19.294 34.5492 18.598 34.2252 17.998C33.9012 17.398 33.4572 16.936 32.8932 16.612C32.3412 16.288 31.7292 16.126 31.0572 16.126C30.3612 16.126 29.7372 16.282 29.1852 16.594C28.6332 16.906 28.1952 17.362 27.8712 17.962C27.5592 18.55 27.4032 19.252 27.4032 20.068C27.4032 20.872 27.5592 21.58 27.8712 22.192C28.1952 22.792 28.6332 23.254 29.1852 23.578C29.7372 23.89 30.3612 24.046 31.0572 24.046C31.7292 24.046 32.3412 23.884 32.8932 23.56C33.4572 23.236 33.9012 22.774 34.2252 22.174C34.5492 21.574 34.7112 20.878 34.7112 20.086ZM46.6417 15.172V25H45.3817V23.272C45.0937 23.884 44.6497 24.352 44.0497 24.676C43.4497 25 42.7777 25.162 42.0337 25.162C40.8577 25.162 39.8977 24.802 39.1537 24.082C38.4097 23.35 38.0377 22.294 38.0377 20.914V15.172H39.2797V20.77C39.2797 21.838 39.5437 22.654 40.0717 23.218C40.6117 23.782 41.3437 24.064 42.2677 24.064C43.2157 24.064 43.9717 23.764 44.5357 23.164C45.0997 22.564 45.3817 21.682 45.3817 20.518V15.172H46.6417ZM50.0583 11.68V25H48.7983V11.68H50.0583ZM61.0836 19.582C61.0836 20.014 61.0716 20.344 61.0476 20.572H52.8936C52.9296 21.316 53.1096 21.952 53.4336 22.48C53.7576 23.008 54.1836 23.41 54.7116 23.686C55.2396 23.95 55.8156 24.082 56.4396 24.082C57.2556 24.082 57.9396 23.884 58.4916 23.488C59.0556 23.092 59.4276 22.558 59.6076 21.886H60.9396C60.6996 22.846 60.1836 23.632 59.3916 24.244C58.6116 24.844 57.6276 25.144 56.4396 25.144C55.5156 25.144 54.6876 24.94 53.9556 24.532C53.2236 24.112 52.6476 23.524 52.2276 22.768C51.8196 22 51.6156 21.106 51.6156 20.086C51.6156 19.066 51.8196 18.172 52.2276 17.404C52.6356 16.636 53.2056 16.048 53.9376 15.64C54.6696 15.232 55.5036 15.028 56.4396 15.028C57.3756 15.028 58.1916 15.232 58.8876 15.64C59.5956 16.048 60.1356 16.6 60.5076 17.296C60.8916 17.98 61.0836 18.742 61.0836 19.582ZM59.8056 19.546C59.8176 18.814 59.6676 18.19 59.3556 17.674C59.0556 17.158 58.6416 16.768 58.1136 16.504C57.5856 16.24 57.0096 16.108 56.3856 16.108C55.4496 16.108 54.6516 16.408 53.9916 17.008C53.3316 17.608 52.9656 18.454 52.8936 19.546H59.8056ZM62.8848 25.09C62.6208 25.09 62.3988 25 62.2188 24.82C62.0508 24.64 61.9668 24.418 61.9668 24.154C61.9668 23.89 62.0508 23.674 62.2188 23.506C62.3988 23.326 62.6208 23.236 62.8848 23.236C63.1368 23.236 63.3468 23.326 63.5148 23.506C63.6948 23.674 63.7848 23.89 63.7848 24.154C63.7848 24.418 63.6948 24.64 63.5148 24.82C63.3468 25 63.1368 25.09 62.8848 25.09ZM62.8848 17.26C62.6208 17.26 62.3988 17.17 62.2188 16.99C62.0508 16.81 61.9668 16.588 61.9668 16.324C61.9668 16.06 62.0508 15.844 62.2188 15.676C62.3988 15.496 62.6208 15.406 62.8848 15.406C63.1368 15.406 63.3468 15.496 63.5148 15.676C63.6948 15.844 63.7848 16.06 63.7848 16.324C63.7848 16.588 63.6948 16.81 63.5148 16.99C63.3468 17.17 63.1368 17.26 62.8848 17.26Z" fill="#141E46"/>
<path d="M74.512 9.32V19.952C74.512 21.216 74.84 22.168 75.496 22.808C76.168 23.448 77.096 23.768 78.28 23.768C79.48 23.768 80.408 23.448 81.064 22.808C81.736 22.168 82.072 21.216 82.072 19.952V9.32H84.808V19.904C84.808 21.264 84.512 22.416 83.92 23.36C83.328 24.304 82.536 25.008 81.544 25.472C80.552 25.936 79.456 26.168 78.256 26.168C77.056 26.168 75.96 25.936 74.968 25.472C73.992 25.008 73.216 24.304 72.64 23.36C72.064 22.416 71.776 21.264 71.776 19.904V9.32H74.512ZM92.9063 26.168C91.7863 26.168 90.7783 25.976 89.8823 25.592C88.9863 25.192 88.2823 24.632 87.7703 23.912C87.2583 23.192 87.0023 22.352 87.0023 21.392H89.9303C89.9943 22.112 90.2743 22.704 90.7703 23.168C91.2823 23.632 91.9943 23.864 92.9063 23.864C93.8503 23.864 94.5863 23.64 95.1143 23.192C95.6423 22.728 95.9063 22.136 95.9063 21.416C95.9063 20.856 95.7383 20.4 95.4023 20.048C95.0823 19.696 94.6743 19.424 94.1783 19.232C93.6983 19.04 93.0263 18.832 92.1623 18.608C91.0743 18.32 90.1863 18.032 89.4983 17.744C88.8263 17.44 88.2503 16.976 87.7703 16.352C87.2903 15.728 87.0503 14.896 87.0503 13.856C87.0503 12.896 87.2903 12.056 87.7703 11.336C88.2503 10.616 88.9223 10.064 89.7863 9.68C90.6503 9.296 91.6503 9.104 92.7863 9.104C94.4023 9.104 95.7223 9.512 96.7463 10.328C97.7863 11.128 98.3623 12.232 98.4743 13.64H95.4503C95.4023 13.032 95.1143 12.512 94.5863 12.08C94.0583 11.648 93.3623 11.432 92.4983 11.432C91.7143 11.432 91.0743 11.632 90.5783 12.032C90.0823 12.432 89.8343 13.008 89.8343 13.76C89.8343 14.272 89.9863 14.696 90.2903 15.032C90.6103 15.352 91.0103 15.608 91.4903 15.8C91.9703 15.992 92.6263 16.2 93.4583 16.424C94.5623 16.728 95.4583 17.032 96.1463 17.336C96.8503 17.64 97.4423 18.112 97.9223 18.752C98.4183 19.376 98.6663 20.216 98.6663 21.272C98.6663 22.12 98.4343 22.92 97.9703 23.672C97.5223 24.424 96.8583 25.032 95.9783 25.496C95.1143 25.944 94.0903 26.168 92.9063 26.168ZM103.671 11.528V16.424H109.431V18.656H103.671V23.768H110.151V26H100.935V9.296H110.151V11.528H103.671ZM121.225 26L117.385 19.328H115.297V26H112.561V9.32H118.321C119.601 9.32 120.681 9.544 121.561 9.992C122.457 10.44 123.121 11.04 123.553 11.792C124.001 12.544 124.225 13.384 124.225 14.312C124.225 15.4 123.905 16.392 123.265 17.288C122.641 18.168 121.673 18.768 120.361 19.088L124.489 26H121.225ZM115.297 17.144H118.321C119.345 17.144 120.113 16.888 120.625 16.376C121.153 15.864 121.417 15.176 121.417 14.312C121.417 13.448 121.161 12.776 120.649 12.296C120.137 11.8 119.361 11.552 118.321 11.552H115.297V17.144ZM132.261 26.168C131.141 26.168 130.133 25.976 129.237 25.592C128.341 25.192 127.637 24.632 127.125 23.912C126.613 23.192 126.357 22.352 126.357 21.392H129.285C129.349 22.112 129.629 22.704 130.125 23.168C130.637 23.632 131.349 23.864 132.261 23.864C133.205 23.864 133.941 23.64 134.469 23.192C134.997 22.728 135.261 22.136 135.261 21.416C135.261 20.856 135.093 20.4 134.757 20.048C134.437 19.696 134.029 19.424 133.533 19.232C133.053 19.04 132.381 18.832 131.517 18.608C130.429 18.32 129.541 18.032 128.853 17.744C128.181 17.44 127.605 16.976 127.125 16.352C126.645 15.728 126.405 14.896 126.405 13.856C126.405 12.896 126.645 12.056 127.125 11.336C127.605 10.616 128.277 10.064 129.141 9.68C130.005 9.296 131.005 9.104 132.141 9.104C133.757 9.104 135.077 9.512 136.101 10.328C137.141 11.128 137.717 12.232 137.829 13.64H134.805C134.757 13.032 134.469 12.512 133.941 12.08C133.413 11.648 132.717 11.432 131.853 11.432C131.069 11.432 130.429 11.632 129.933 12.032C129.437 12.432 129.189 13.008 129.189 13.76C129.189 14.272 129.341 14.696 129.645 15.032C129.965 15.352 130.365 15.608 130.845 15.8C131.325 15.992 131.981 16.2 132.813 16.424C133.917 16.728 134.813 17.032 135.501 17.336C136.205 17.64 136.797 18.112 137.277 18.752C137.773 19.376 138.021 20.216 138.021 21.272C138.021 22.12 137.789 22.92 137.325 23.672C136.877 24.424 136.213 25.032 135.333 25.496C134.469 25.944 133.445 26.168 132.261 26.168Z" fill="#141E46"/>
</svg>
