<svg width="150" height="36" viewBox="0 0 150 36" fill="none" xmlns="http://www.w3.org/2000/svg">
<path d="M13.734 12.58V25H12.474V15.082L8.046 25H7.128L2.7 15.118V25H1.44V12.58H2.772L7.578 23.344L12.384 12.58H13.734ZM20.1743 25.144C19.2503 25.144 18.4163 24.94 17.6723 24.532C16.9403 24.112 16.3583 23.524 15.9263 22.768C15.5063 22 15.2963 21.106 15.2963 20.086C15.2963 19.066 15.5123 18.178 15.9443 17.422C16.3763 16.654 16.9643 16.066 17.7083 15.658C18.4523 15.238 19.2863 15.028 20.2103 15.028C21.1343 15.028 21.9683 15.238 22.7123 15.658C23.4683 16.066 24.0563 16.654 24.4763 17.422C24.9083 18.178 25.1243 19.066 25.1243 20.086C25.1243 21.094 24.9083 21.982 24.4763 22.75C24.0443 23.518 23.4503 24.112 22.6943 24.532C21.9383 24.94 21.0983 25.144 20.1743 25.144ZM20.1743 24.046C20.8223 24.046 21.4223 23.902 21.9743 23.614C22.5263 23.314 22.9703 22.87 23.3063 22.282C23.6543 21.682 23.8283 20.95 23.8283 20.086C23.8283 19.222 23.6603 18.496 23.3243 17.908C22.9883 17.308 22.5443 16.864 21.9923 16.576C21.4403 16.276 20.8403 16.126 20.1923 16.126C19.5443 16.126 18.9443 16.276 18.3923 16.576C17.8403 16.864 17.3963 17.308 17.0603 17.908C16.7363 18.496 16.5743 19.222 16.5743 20.086C16.5743 20.95 16.7363 21.682 17.0603 22.282C17.3963 22.87 17.8343 23.314 18.3743 23.614C18.9263 23.902 19.5263 24.046 20.1743 24.046ZM26.1252 20.068C26.1252 19.06 26.3292 18.178 26.7372 17.422C27.1452 16.654 27.7032 16.066 28.4112 15.658C29.1312 15.238 29.9412 15.028 30.8412 15.028C31.7052 15.028 32.4852 15.238 33.1812 15.658C33.8772 16.078 34.3872 16.624 34.7112 17.296V11.68H35.9712V25H34.7112V22.804C34.4112 23.488 33.9192 24.052 33.2352 24.496C32.5512 24.928 31.7472 25.144 30.8232 25.144C29.9232 25.144 29.1132 24.934 28.3932 24.514C27.6852 24.094 27.1272 23.5 26.7192 22.732C26.3232 21.964 26.1252 21.076 26.1252 20.068ZM34.7112 20.086C34.7112 19.294 34.5492 18.598 34.2252 17.998C33.9012 17.398 33.4572 16.936 32.8932 16.612C32.3412 16.288 31.7292 16.126 31.0572 16.126C30.3612 16.126 29.7372 16.282 29.1852 16.594C28.6332 16.906 28.1952 17.362 27.8712 17.962C27.5592 18.55 27.4032 19.252 27.4032 20.068C27.4032 20.872 27.5592 21.58 27.8712 22.192C28.1952 22.792 28.6332 23.254 29.1852 23.578C29.7372 23.89 30.3612 24.046 31.0572 24.046C31.7292 24.046 32.3412 23.884 32.8932 23.56C33.4572 23.236 33.9012 22.774 34.2252 22.174C34.5492 21.574 34.7112 20.878 34.7112 20.086ZM46.6417 15.172V25H45.3817V23.272C45.0937 23.884 44.6497 24.352 44.0497 24.676C43.4497 25 42.7777 25.162 42.0337 25.162C40.8577 25.162 39.8977 24.802 39.1537 24.082C38.4097 23.35 38.0377 22.294 38.0377 20.914V15.172H39.2797V20.77C39.2797 21.838 39.5437 22.654 40.0717 23.218C40.6117 23.782 41.3437 24.064 42.2677 24.064C43.2157 24.064 43.9717 23.764 44.5357 23.164C45.0997 22.564 45.3817 21.682 45.3817 20.518V15.172H46.6417ZM50.0583 11.68V25H48.7983V11.68H50.0583ZM61.0836 19.582C61.0836 20.014 61.0716 20.344 61.0476 20.572H52.8936C52.9296 21.316 53.1096 21.952 53.4336 22.48C53.7576 23.008 54.1836 23.41 54.7116 23.686C55.2396 23.95 55.8156 24.082 56.4396 24.082C57.2556 24.082 57.9396 23.884 58.4916 23.488C59.0556 23.092 59.4276 22.558 59.6076 21.886H60.9396C60.6996 22.846 60.1836 23.632 59.3916 24.244C58.6116 24.844 57.6276 25.144 56.4396 25.144C55.5156 25.144 54.6876 24.94 53.9556 24.532C53.2236 24.112 52.6476 23.524 52.2276 22.768C51.8196 22 51.6156 21.106 51.6156 20.086C51.6156 19.066 51.8196 18.172 52.2276 17.404C52.6356 16.636 53.2056 16.048 53.9376 15.64C54.6696 15.232 55.5036 15.028 56.4396 15.028C57.3756 15.028 58.1916 15.232 58.8876 15.64C59.5956 16.048 60.1356 16.6 60.5076 17.296C60.8916 17.98 61.0836 18.742 61.0836 19.582ZM59.8056 19.546C59.8176 18.814 59.6676 18.19 59.3556 17.674C59.0556 17.158 58.6416 16.768 58.1136 16.504C57.5856 16.24 57.0096 16.108 56.3856 16.108C55.4496 16.108 54.6516 16.408 53.9916 17.008C53.3316 17.608 52.9656 18.454 52.8936 19.546H59.8056ZM62.8848 25.09C62.6208 25.09 62.3988 25 62.2188 24.82C62.0508 24.64 61.9668 24.418 61.9668 24.154C61.9668 23.89 62.0508 23.674 62.2188 23.506C62.3988 23.326 62.6208 23.236 62.8848 23.236C63.1368 23.236 63.3468 23.326 63.5148 23.506C63.6948 23.674 63.7848 23.89 63.7848 24.154C63.7848 24.418 63.6948 24.64 63.5148 24.82C63.3468 25 63.1368 25.09 62.8848 25.09ZM62.8848 17.26C62.6208 17.26 62.3988 17.17 62.2188 16.99C62.0508 16.81 61.9668 16.588 61.9668 16.324C61.9668 16.06 62.0508 15.844 62.2188 15.676C62.3988 15.496 62.6208 15.406 62.8848 15.406C63.1368 15.406 63.3468 15.496 63.5148 15.676C63.6948 15.844 63.7848 16.06 63.7848 16.324C63.7848 16.588 63.6948 16.81 63.5148 16.99C63.3468 17.17 63.1368 17.26 62.8848 17.26Z" fill="#141E46"/>
<path d="M83.872 14.12C83.44 13.288 82.84 12.664 82.072 12.248C81.304 11.816 80.416 11.6 79.408 11.6C78.304 11.6 77.32 11.848 76.456 12.344C75.592 12.84 74.912 13.544 74.416 14.456C73.936 15.368 73.696 16.424 73.696 17.624C73.696 18.824 73.936 19.888 74.416 20.816C74.912 21.728 75.592 22.432 76.456 22.928C77.32 23.424 78.304 23.672 79.408 23.672C80.896 23.672 82.104 23.256 83.032 22.424C83.96 21.592 84.528 20.464 84.736 19.04H78.472V16.856H87.664V18.992C87.488 20.288 87.024 21.48 86.272 22.568C85.536 23.656 84.568 24.528 83.368 25.184C82.184 25.824 80.864 26.144 79.408 26.144C77.84 26.144 76.408 25.784 75.112 25.064C73.816 24.328 72.784 23.312 72.016 22.016C71.264 20.72 70.888 19.256 70.888 17.624C70.888 15.992 71.264 14.528 72.016 13.232C72.784 11.936 73.816 10.928 75.112 10.208C76.424 9.472 77.856 9.104 79.408 9.104C81.184 9.104 82.76 9.544 84.136 10.424C85.528 11.288 86.536 12.52 87.16 14.12H83.872ZM99.4585 22.592H92.4745L91.2745 26H88.4185L94.3945 9.296H97.5625L103.539 26H100.659L99.4585 22.592ZM98.6905 20.36L95.9785 12.608L93.2425 20.36H98.6905ZM122.745 9.32V26H120.009V14.576L114.921 26H113.025L107.913 14.576V26H105.177V9.32H108.129L113.985 22.4L119.817 9.32H122.745ZM128.117 11.528V16.424H133.877V18.656H128.117V23.768H134.597V26H125.381V9.296H134.597V11.528H128.117ZM142.503 26.168C141.383 26.168 140.375 25.976 139.479 25.592C138.583 25.192 137.879 24.632 137.367 23.912C136.855 23.192 136.599 22.352 136.599 21.392H139.527C139.591 22.112 139.871 22.704 140.367 23.168C140.879 23.632 141.591 23.864 142.503 23.864C143.447 23.864 144.183 23.64 144.711 23.192C145.239 22.728 145.503 22.136 145.503 21.416C145.503 20.856 145.335 20.4 144.999 20.048C144.679 19.696 144.271 19.424 143.775 19.232C143.295 19.04 142.623 18.832 141.759 18.608C140.671 18.32 139.783 18.032 139.095 17.744C138.423 17.44 137.847 16.976 137.367 16.352C136.887 15.728 136.647 14.896 136.647 13.856C136.647 12.896 136.887 12.056 137.367 11.336C137.847 10.616 138.519 10.064 139.383 9.68C140.247 9.296 141.247 9.104 142.383 9.104C143.999 9.104 145.319 9.512 146.343 10.328C147.383 11.128 147.959 12.232 148.071 13.64H145.047C144.999 13.032 144.711 12.512 144.183 12.08C143.655 11.648 142.959 11.432 142.095 11.432C141.311 11.432 140.671 11.632 140.175 12.032C139.679 12.432 139.431 13.008 139.431 13.76C139.431 14.272 139.583 14.696 139.887 15.032C140.207 15.352 140.607 15.608 141.087 15.8C141.567 15.992 142.223 16.2 143.055 16.424C144.159 16.728 145.055 17.032 145.743 17.336C146.447 17.64 147.039 18.112 147.519 18.752C148.015 19.376 148.263 20.216 148.263 21.272C148.263 22.12 148.031 22.92 147.567 23.672C147.119 24.424 146.455 25.032 145.575 25.496C144.711 25.944 143.687 26.168 142.503 26.168Z" fill="#141E46"/>
</svg>
