<svg width="48" height="13" viewBox="0 0 48 13" fill="none" xmlns="http://www.w3.org/2000/svg">
<path d="M7.352 3.328C7.36267 2.656 7.19733 2.144 6.856 1.792C6.52533 1.42933 6.008 1.248 5.304 1.248C4.25867 1.248 3.40533 1.65867 2.744 2.48C2.08267 3.29067 1.608 4.61333 1.32 6.448C1.64 5.808 2.136 5.30667 2.808 4.944C3.48 4.57067 4.21067 4.384 5 4.384C5.96 4.384 6.70667 4.64 7.24 5.152C7.77333 5.664 8.04 6.37867 8.04 7.296C8.04 7.59467 8.008 7.91467 7.944 8.256C7.82667 8.96 7.58133 9.6 7.208 10.176C6.83467 10.7413 6.33333 11.1947 5.704 11.536C5.08533 11.8773 4.36533 12.048 3.544 12.048C2.31733 12.048 1.44267 11.744 0.92 11.136C0.408 10.5173 0.152 9.64267 0.152 8.512C0.152 7.82933 0.226667 7.06667 0.376 6.224C1.06933 2.27733 2.77067 0.304 5.48 0.304C6.504 0.304 7.256 0.586666 7.736 1.152C8.22667 1.70667 8.45067 2.432 8.408 3.328H7.352ZM4.616 5.344C4.11467 5.344 3.61867 5.44533 3.128 5.648C2.648 5.85067 2.22667 6.16 1.864 6.576C1.512 6.98133 1.288 7.48267 1.192 8.08C1.14933 8.29333 1.128 8.52267 1.128 8.768C1.128 9.46133 1.336 10.0267 1.752 10.464C2.17867 10.8907 2.81333 11.104 3.656 11.104C4.47733 11.104 5.176 10.8533 5.752 10.352C6.33867 9.85067 6.70667 9.168 6.856 8.304C6.90933 8.00533 6.936 7.744 6.936 7.52C6.936 6.82667 6.73333 6.29333 6.328 5.92C5.93333 5.536 5.36267 5.344 4.616 5.344ZM15.3333 5.008C15.6853 4.4 16.1439 3.93067 16.7093 3.6C17.2746 3.26933 17.9306 3.104 18.6773 3.104L18.4693 4.272H18.1493C17.3813 4.272 16.7199 4.46933 16.1653 4.864C15.6106 5.25867 15.2266 5.90933 15.0133 6.816L14.1013 12H12.9813L14.5173 3.264H15.6373L15.3333 5.008ZM21.9781 12.128C21.2528 12.128 20.6128 11.984 20.0581 11.696C19.5035 11.3973 19.0715 10.9813 18.7621 10.448C18.4635 9.904 18.3141 9.26933 18.3141 8.544C18.3141 7.56267 18.5381 6.66133 18.9861 5.84C19.4341 5.008 20.0581 4.352 20.8581 3.872C21.6581 3.38133 22.5488 3.136 23.5301 3.136C24.2555 3.136 24.8955 3.28533 25.4501 3.584C26.0048 3.872 26.4368 4.288 26.7461 4.832C27.0555 5.36533 27.2101 5.99467 27.2101 6.72C27.2101 7.712 26.9808 8.61867 26.5221 9.44C26.0635 10.2613 25.4341 10.9173 24.6341 11.408C23.8448 11.888 22.9595 12.128 21.9781 12.128ZM22.1061 11.184C22.8635 11.184 23.5408 10.9813 24.1381 10.576C24.7461 10.1707 25.2155 9.632 25.5461 8.96C25.8875 8.288 26.0581 7.56267 26.0581 6.784C26.0581 5.90933 25.8021 5.24267 25.2901 4.784C24.7888 4.32533 24.1488 4.096 23.3701 4.096C22.6128 4.096 21.9355 4.29867 21.3381 4.704C20.7515 5.10933 20.2928 5.648 19.9621 6.32C19.6315 6.992 19.4661 7.71733 19.4661 8.496C19.4661 9.36 19.7168 10.0267 20.2181 10.496C20.7195 10.9547 21.3488 11.184 22.1061 11.184ZM40.8198 3.264L36.5478 12H35.4278L34.3078 4.688L30.5798 12H29.4598L28.2598 3.264H29.4118L30.2598 10.816L34.0198 3.264H35.1558L36.2278 10.832L39.7158 3.264H40.8198ZM43.0826 12.128C42.1973 12.128 41.4773 11.9253 40.9226 11.52C40.368 11.104 40.0906 10.5387 40.0906 9.824C40.0906 9.696 40.096 9.6 40.1066 9.536H41.1946C41.152 10.048 41.3013 10.4587 41.6426 10.768C41.984 11.0773 42.4853 11.232 43.1466 11.232C43.8186 11.232 44.3573 11.0933 44.7626 10.816C45.168 10.528 45.3706 10.1493 45.3706 9.68C45.3706 9.40267 45.2853 9.168 45.1146 8.976C44.944 8.784 44.7306 8.62933 44.4746 8.512C44.2293 8.384 43.8826 8.24 43.4346 8.08C42.88 7.87733 42.432 7.69067 42.0906 7.52C41.76 7.33867 41.472 7.09333 41.2266 6.784C40.992 6.464 40.8746 6.064 40.8746 5.584C40.8746 5.104 41.0133 4.67733 41.2906 4.304C41.568 3.93067 41.9466 3.64267 42.4266 3.44C42.9173 3.23733 43.472 3.136 44.0906 3.136C44.9546 3.136 45.6586 3.34933 46.2026 3.776C46.7573 4.20267 47.0346 4.768 47.0346 5.472C47.0346 5.62133 47.0293 5.73333 47.0186 5.808H45.9626C45.9733 5.76533 45.9786 5.696 45.9786 5.6C45.9786 5.13067 45.792 4.752 45.4186 4.464C45.056 4.176 44.5866 4.032 44.0106 4.032C43.4346 4.032 42.9546 4.17067 42.5706 4.448C42.1973 4.71467 42.0106 5.07733 42.0106 5.536C42.0106 5.84533 42.1013 6.10667 42.2826 6.32C42.464 6.52267 42.688 6.688 42.9546 6.816C43.2213 6.944 43.5786 7.09333 44.0266 7.264C44.56 7.46667 44.9866 7.65333 45.3066 7.824C45.6373 7.99467 45.9146 8.22933 46.1386 8.528C46.3626 8.82667 46.4746 9.2 46.4746 9.648C46.4746 10.4053 46.16 11.008 45.5306 11.456C44.9013 11.904 44.0853 12.128 43.0826 12.128Z" fill="#141E46"/>
</svg>
