<svg width="150" height="60" viewBox="0 0 150 60" fill="none" xmlns="http://www.w3.org/2000/svg">
<rect width="150" height="60" rx="30" fill="#FFF5E0"/>
<path d="M73.032 31.376C73.032 30.032 73.304 28.856 73.848 27.848C74.392 26.824 75.136 26.032 76.08 25.472C77.04 24.912 78.104 24.632 79.272 24.632C80.424 24.632 81.424 24.88 82.272 25.376C83.12 25.872 83.752 26.496 84.168 27.248V24.848H86.376V38H84.168V35.552C83.736 36.32 83.088 36.96 82.224 37.472C81.376 37.968 80.384 38.216 79.248 38.216C78.08 38.216 77.024 37.928 76.08 37.352C75.136 36.776 74.392 35.968 73.848 34.928C73.304 33.888 73.032 32.704 73.032 31.376ZM84.168 31.4C84.168 30.408 83.968 29.544 83.568 28.808C83.168 28.072 82.624 27.512 81.936 27.128C81.264 26.728 80.52 26.528 79.704 26.528C78.888 26.528 78.144 26.72 77.472 27.104C76.8 27.488 76.264 28.048 75.864 28.784C75.464 29.52 75.264 30.384 75.264 31.376C75.264 32.384 75.464 33.264 75.864 34.016C76.264 34.752 76.8 35.32 77.472 35.72C78.144 36.104 78.888 36.296 79.704 36.296C80.52 36.296 81.264 36.104 81.936 35.72C82.624 35.32 83.168 34.752 83.568 34.016C83.968 33.264 84.168 32.392 84.168 31.4ZM88.2907 31.376C88.2907 30.032 88.5628 28.856 89.1068 27.848C89.6508 26.824 90.3948 26.032 91.3388 25.472C92.2988 24.912 93.3708 24.632 94.5548 24.632C95.5788 24.632 96.5308 24.872 97.4108 25.352C98.2908 25.816 98.9628 26.432 99.4268 27.2V20.24H101.635V38H99.4268V35.528C98.9948 36.312 98.3548 36.96 97.5068 37.472C96.6588 37.968 95.6668 38.216 94.5308 38.216C93.3628 38.216 92.2988 37.928 91.3388 37.352C90.3948 36.776 89.6508 35.968 89.1068 34.928C88.5628 33.888 88.2907 32.704 88.2907 31.376ZM99.4268 31.4C99.4268 30.408 99.2268 29.544 98.8268 28.808C98.4268 28.072 97.8828 27.512 97.1948 27.128C96.5228 26.728 95.7788 26.528 94.9628 26.528C94.1468 26.528 93.4028 26.72 92.7308 27.104C92.0588 27.488 91.5228 28.048 91.1228 28.784C90.7228 29.52 90.5228 30.384 90.5228 31.376C90.5228 32.384 90.7228 33.264 91.1228 34.016C91.5228 34.752 92.0588 35.32 92.7308 35.72C93.4028 36.104 94.1468 36.296 94.9628 36.296C95.7788 36.296 96.5228 36.104 97.1948 35.72C97.8828 35.32 98.4268 34.752 98.8268 34.016C99.2268 33.264 99.4268 32.392 99.4268 31.4ZM103.549 31.376C103.549 30.032 103.822 28.856 104.366 27.848C104.91 26.824 105.654 26.032 106.597 25.472C107.558 24.912 108.63 24.632 109.814 24.632C110.838 24.632 111.79 24.872 112.67 25.352C113.55 25.816 114.222 26.432 114.686 27.2V20.24H116.894V38H114.686V35.528C114.254 36.312 113.614 36.96 112.766 37.472C111.918 37.968 110.926 38.216 109.789 38.216C108.622 38.216 107.558 37.928 106.597 37.352C105.654 36.776 104.91 35.968 104.366 34.928C103.822 33.888 103.549 32.704 103.549 31.376ZM114.686 31.4C114.686 30.408 114.486 29.544 114.086 28.808C113.686 28.072 113.142 27.512 112.454 27.128C111.782 26.728 111.038 26.528 110.222 26.528C109.406 26.528 108.662 26.72 107.99 27.104C107.318 27.488 106.782 28.048 106.382 28.784C105.982 29.52 105.782 30.384 105.782 31.376C105.782 32.384 105.982 33.264 106.382 34.016C106.782 34.752 107.318 35.32 107.99 35.72C108.662 36.104 109.406 36.296 110.222 36.296C111.038 36.296 111.782 36.104 112.454 35.72C113.142 35.32 113.686 34.752 114.086 34.016C114.486 33.264 114.686 32.392 114.686 31.4Z" fill="#141E46"/>
<path d="M55.0001 31.3307H48.3334V37.9973C48.3334 38.351 48.1929 38.6901 47.9429 38.9401C47.6928 39.1902 47.3537 39.3307 47.0001 39.3307C46.6465 39.3307 46.3073 39.1902 46.0573 38.9401C45.8072 38.6901 45.6667 38.351 45.6667 37.9973V31.3307H39.0001C38.6465 31.3307 38.3073 31.1902 38.0573 30.9401C37.8072 30.6901 37.6667 30.351 37.6667 29.9973C37.6667 29.6437 37.8072 29.3046 38.0573 29.0545C38.3073 28.8045 38.6465 28.664 39.0001 28.664H45.6667V21.9973C45.6667 21.6437 45.8072 21.3046 46.0573 21.0545C46.3073 20.8045 46.6465 20.664 47.0001 20.664C47.3537 20.664 47.6928 20.8045 47.9429 21.0545C48.1929 21.3046 48.3334 21.6437 48.3334 21.9973V28.664H55.0001C55.3537 28.664 55.6928 28.8045 55.9429 29.0545C56.1929 29.3046 56.3334 29.6437 56.3334 29.9973C56.3334 30.351 56.1929 30.6901 55.9429 30.9401C55.6928 31.1902 55.3537 31.3307 55.0001 31.3307Z" fill="#141E46"/>
</svg>
