<svg width="219" height="63" viewBox="0 0 219 63" fill="none" xmlns="http://www.w3.org/2000/svg">
<rect width="219" height="63" rx="31.5" fill="#FFF5E0"/>
<path d="M62 36.3306H55.3333V42.9973C55.3333 43.3509 55.1928 43.69 54.9428 43.9401C54.6927 44.1901 54.3536 44.3306 54 44.3306C53.6463 44.3306 53.3072 44.1901 53.0572 43.9401C52.8071 43.69 52.6666 43.3509 52.6666 42.9973V36.3306H46C45.6463 36.3306 45.3072 36.1901 45.0572 35.9401C44.8071 35.69 44.6666 35.3509 44.6666 34.9973C44.6666 34.6437 44.8071 34.3045 45.0572 34.0545C45.3072 33.8044 45.6463 33.6639 46 33.6639H52.6666V26.9973C52.6666 26.6437 52.8071 26.3045 53.0572 26.0545C53.3072 25.8044 53.6463 25.6639 54 25.6639C54.3536 25.6639 54.6927 25.8044 54.9428 26.0545C55.1928 26.3045 55.3333 26.6437 55.3333 26.9973V33.6639H62C62.3536 33.6639 62.6927 33.8044 62.9428 34.0545C63.1928 34.3045 63.3333 34.6437 63.3333 34.9973C63.3333 35.3509 63.1928 35.69 62.9428 35.9401C62.6927 36.1901 62.3536 36.3306 62 36.3306Z" fill="#141E46"/>
<path d="M80.032 32.4C80.032 31.04 80.304 29.856 80.848 28.848C81.392 27.824 82.144 27.032 83.104 26.472C84.08 25.912 85.192 25.632 86.44 25.632C88.056 25.632 89.384 26.024 90.424 26.808C91.48 27.592 92.176 28.68 92.512 30.072H90.16C89.936 29.272 89.496 28.64 88.84 28.176C88.2 27.712 87.4 27.48 86.44 27.48C85.192 27.48 84.184 27.912 83.416 28.776C82.648 29.624 82.264 30.832 82.264 32.4C82.264 33.984 82.648 35.208 83.416 36.072C84.184 36.936 85.192 37.368 86.44 37.368C87.4 37.368 88.2 37.144 88.84 36.696C89.48 36.248 89.92 35.608 90.16 34.776H92.512C92.16 36.12 91.456 37.2 90.4 38.016C89.344 38.816 88.024 39.216 86.44 39.216C85.192 39.216 84.08 38.936 83.104 38.376C82.144 37.816 81.392 37.024 80.848 36C80.304 34.976 80.032 33.776 80.032 32.4ZM100.202 39.216C98.9701 39.216 97.8501 38.936 96.8421 38.376C95.8501 37.816 95.0661 37.024 94.4901 36C93.9301 34.96 93.6501 33.76 93.6501 32.4C93.6501 31.056 93.9381 29.872 94.5141 28.848C95.1061 27.808 95.9061 27.016 96.9141 26.472C97.9221 25.912 99.0501 25.632 100.298 25.632C101.546 25.632 102.674 25.912 103.682 26.472C104.69 27.016 105.482 27.8 106.058 28.824C106.65 29.848 106.946 31.04 106.946 32.4C106.946 33.76 106.642 34.96 106.034 36C105.442 37.024 104.634 37.816 103.61 38.376C102.586 38.936 101.45 39.216 100.202 39.216ZM100.202 37.296C100.986 37.296 101.722 37.112 102.41 36.744C103.098 36.376 103.65 35.824 104.066 35.088C104.498 34.352 104.714 33.456 104.714 32.4C104.714 31.344 104.506 30.448 104.09 29.712C103.674 28.976 103.13 28.432 102.458 28.08C101.786 27.712 101.058 27.528 100.274 27.528C99.4741 27.528 98.7381 27.712 98.0661 28.08C97.4101 28.432 96.8821 28.976 96.4821 29.712C96.0821 30.448 95.8821 31.344 95.8821 32.4C95.8821 33.472 96.0741 34.376 96.4581 35.112C96.8581 35.848 97.3861 36.4 98.0421 36.768C98.6981 37.12 99.4181 37.296 100.202 37.296ZM111.042 21.24V39H108.858V21.24H111.042ZM115.988 21.24V39H113.804V21.24H115.988ZM130.75 31.92C130.75 32.336 130.726 32.776 130.678 33.24H120.166C120.246 34.536 120.686 35.552 121.486 36.288C122.302 37.008 123.286 37.368 124.438 37.368C125.382 37.368 126.166 37.152 126.79 36.72C127.43 36.272 127.878 35.68 128.134 34.944H130.486C130.134 36.208 129.43 37.24 128.374 38.04C127.318 38.824 126.006 39.216 124.438 39.216C123.19 39.216 122.07 38.936 121.078 38.376C120.102 37.816 119.334 37.024 118.774 36C118.214 34.96 117.934 33.76 117.934 32.4C117.934 31.04 118.206 29.848 118.75 28.824C119.294 27.8 120.054 27.016 121.03 26.472C122.022 25.912 123.158 25.632 124.438 25.632C125.686 25.632 126.79 25.904 127.75 26.448C128.71 26.992 129.446 27.744 129.958 28.704C130.486 29.648 130.75 30.72 130.75 31.92ZM128.494 31.464C128.494 30.632 128.31 29.92 127.942 29.328C127.574 28.72 127.07 28.264 126.43 27.96C125.806 27.64 125.11 27.48 124.342 27.48C123.238 27.48 122.294 27.832 121.51 28.536C120.742 29.24 120.302 30.216 120.19 31.464H128.494ZM135.337 27.648V35.4C135.337 36.04 135.473 36.496 135.745 36.768C136.017 37.024 136.489 37.152 137.161 37.152H138.769V39H136.801C135.585 39 134.673 38.72 134.065 38.16C133.457 37.6 133.153 36.68 133.153 35.4V27.648H131.449V25.848H133.153V22.536H135.337V25.848H138.769V27.648H135.337ZM141.583 23.712C141.167 23.712 140.815 23.568 140.527 23.28C140.239 22.992 140.095 22.64 140.095 22.224C140.095 21.808 140.239 21.456 140.527 21.168C140.815 20.88 141.167 20.736 141.583 20.736C141.983 20.736 142.319 20.88 142.591 21.168C142.879 21.456 143.023 21.808 143.023 22.224C143.023 22.64 142.879 22.992 142.591 23.28C142.319 23.568 141.983 23.712 141.583 23.712ZM142.639 25.848V39H140.455V25.848H142.639ZM151.137 39.216C149.905 39.216 148.785 38.936 147.777 38.376C146.785 37.816 146.001 37.024 145.425 36C144.865 34.96 144.585 33.76 144.585 32.4C144.585 31.056 144.873 29.872 145.449 28.848C146.041 27.808 146.841 27.016 147.849 26.472C148.857 25.912 149.985 25.632 151.233 25.632C152.481 25.632 153.609 25.912 154.617 26.472C155.625 27.016 156.417 27.8 156.993 28.824C157.585 29.848 157.881 31.04 157.881 32.4C157.881 33.76 157.577 34.96 156.969 36C156.377 37.024 155.569 37.816 154.545 38.376C153.521 38.936 152.385 39.216 151.137 39.216ZM151.137 37.296C151.921 37.296 152.657 37.112 153.345 36.744C154.033 36.376 154.585 35.824 155.001 35.088C155.433 34.352 155.649 33.456 155.649 32.4C155.649 31.344 155.441 30.448 155.025 29.712C154.609 28.976 154.065 28.432 153.393 28.08C152.721 27.712 151.993 27.528 151.209 27.528C150.409 27.528 149.673 27.712 149.001 28.08C148.345 28.432 147.817 28.976 147.417 29.712C147.017 30.448 146.817 31.344 146.817 32.4C146.817 33.472 147.009 34.376 147.393 35.112C147.793 35.848 148.321 36.4 148.977 36.768C149.633 37.12 150.353 37.296 151.137 37.296ZM166.201 25.608C167.801 25.608 169.097 26.096 170.089 27.072C171.081 28.032 171.577 29.424 171.577 31.248V39H169.417V31.56C169.417 30.248 169.089 29.248 168.433 28.56C167.777 27.856 166.881 27.504 165.745 27.504C164.593 27.504 163.673 27.864 162.985 28.584C162.313 29.304 161.977 30.352 161.977 31.728V39H159.793V25.848H161.977V27.72C162.409 27.048 162.993 26.528 163.729 26.16C164.481 25.792 165.305 25.608 166.201 25.608Z" fill="#141E46"/>
</svg>
