<svg width="164" height="34" viewBox="0 0 164 34" fill="none" xmlns="http://www.w3.org/2000/svg">
<path d="M0.184 13.832C0.184 11.656 0.685333 9.704 1.688 7.976C2.712 6.248 4.088 4.904 5.816 3.944C7.56533 2.96266 9.47467 2.472 11.544 2.472C13.912 2.472 16.0133 3.05866 17.848 4.232C19.704 5.384 21.048 7.02667 21.88 9.16H17.496C16.92 7.98667 16.12 7.112 15.096 6.536C14.072 5.96 12.888 5.672 11.544 5.672C10.072 5.672 8.76 6.00267 7.608 6.664C6.456 7.32533 5.54933 8.27467 4.888 9.512C4.248 10.7493 3.928 12.1893 3.928 13.832C3.928 15.4747 4.248 16.9147 4.888 18.152C5.54933 19.3893 6.456 20.3493 7.608 21.032C8.76 21.6933 10.072 22.024 11.544 22.024C12.888 22.024 14.072 21.736 15.096 21.16C16.12 20.584 16.92 19.7093 17.496 18.536H21.88C21.048 20.6693 19.704 22.312 17.848 23.464C16.0133 24.616 13.912 25.192 11.544 25.192C9.45333 25.192 7.544 24.712 5.816 23.752C4.088 22.7707 2.712 21.416 1.688 19.688C0.685333 17.96 0.184 16.008 0.184 13.832ZM23.654 16.104C23.654 14.3333 24.0167 12.7653 24.742 11.4C25.4887 10.0347 26.4913 8.97867 27.75 8.232C29.03 7.464 30.438 7.08 31.974 7.08C33.3607 7.08 34.566 7.35733 35.59 7.912C36.6353 8.44533 37.4673 9.11733 38.086 9.928V7.368H41.766V25H38.086V22.376C37.4673 23.208 36.6247 23.9013 35.558 24.456C34.4913 25.0107 33.2753 25.288 31.91 25.288C30.3953 25.288 29.0087 24.904 27.75 24.136C26.4913 23.3467 25.4887 22.2587 24.742 20.872C24.0167 19.464 23.654 17.8747 23.654 16.104ZM38.086 16.168C38.086 14.952 37.83 13.896 37.318 13C36.8273 12.104 36.1767 11.4213 35.366 10.952C34.5553 10.4827 33.6807 10.248 32.742 10.248C31.8033 10.248 30.9287 10.4827 30.118 10.952C29.3073 11.4 28.646 12.072 28.134 12.968C27.6433 13.8427 27.398 14.888 27.398 16.104C27.398 17.32 27.6433 18.3867 28.134 19.304C28.646 20.2213 29.3073 20.9253 30.118 21.416C30.95 21.8853 31.8247 22.12 32.742 22.12C33.6807 22.12 34.5553 21.8853 35.366 21.416C36.1767 20.9467 36.8273 20.264 37.318 19.368C37.83 18.4507 38.086 17.384 38.086 16.168ZM49.5335 10.344V20.104C49.5335 20.7653 49.6828 21.2453 49.9815 21.544C50.3015 21.8213 50.8348 21.96 51.5815 21.96H53.8215V25H50.9415C49.2988 25 48.0402 24.616 47.1655 23.848C46.2908 23.08 45.8535 21.832 45.8535 20.104V10.344H43.7735V7.368H45.8535V2.984H49.5335V7.368H53.8215V10.344H49.5335ZM72.0638 15.752C72.0638 16.4133 72.0211 17.0107 71.9358 17.544H58.4637C58.5704 18.952 59.0931 20.0827 60.0318 20.936C60.9704 21.7893 62.1224 22.216 63.4878 22.216C65.4504 22.216 66.8371 21.3947 67.6478 19.752H71.5837C71.0504 21.3733 70.0798 22.7067 68.6718 23.752C67.2851 24.776 65.5571 25.288 63.4878 25.288C61.8024 25.288 60.2878 24.9147 58.9437 24.168C57.6211 23.4 56.5757 22.3333 55.8077 20.968C55.0611 19.5813 54.6877 17.9813 54.6877 16.168C54.6877 14.3547 55.0504 12.7653 55.7757 11.4C56.5224 10.0133 57.5571 8.94667 58.8798 8.2C60.2238 7.45333 61.7598 7.08 63.4878 7.08C65.1518 7.08 66.6344 7.44267 67.9358 8.168C69.2371 8.89333 70.2504 9.91733 70.9757 11.24C71.7011 12.5413 72.0638 14.0453 72.0638 15.752ZM68.2558 14.6C68.2344 13.256 67.7544 12.1787 66.8158 11.368C65.8771 10.5573 64.7144 10.152 63.3278 10.152C62.0691 10.152 60.9918 10.5573 60.0958 11.368C59.1998 12.1573 58.6664 13.2347 58.4957 14.6H68.2558ZM81.4777 7.08C82.8431 7.08 84.0484 7.35733 85.0937 7.912C86.1604 8.44533 86.9924 9.11733 87.5897 9.928V7.368H91.2697V25.288C91.2697 26.9093 90.9284 28.3493 90.2457 29.608C89.5631 30.888 88.5711 31.8907 87.2697 32.616C85.9897 33.3413 84.4537 33.704 82.6617 33.704C80.2724 33.704 78.2884 33.1387 76.7097 32.008C75.1311 30.8987 74.2351 29.384 74.0217 27.464H77.6377C77.9151 28.3813 78.5017 29.1173 79.3977 29.672C80.3151 30.248 81.4031 30.536 82.6617 30.536C84.1337 30.536 85.3177 30.088 86.2137 29.192C87.1311 28.296 87.5897 26.9947 87.5897 25.288V22.344C86.9711 23.176 86.1284 23.88 85.0617 24.456C84.0164 25.0107 82.8217 25.288 81.4777 25.288C79.9417 25.288 78.5337 24.904 77.2537 24.136C75.9951 23.3467 74.9924 22.2587 74.2457 20.872C73.5204 19.464 73.1577 17.8747 73.1577 16.104C73.1577 14.3333 73.5204 12.7653 74.2457 11.4C74.9924 10.0347 75.9951 8.97867 77.2537 8.232C78.5337 7.464 79.9417 7.08 81.4777 7.08ZM87.5897 16.168C87.5897 14.952 87.3337 13.896 86.8217 13C86.3311 12.104 85.6804 11.4213 84.8697 10.952C84.0591 10.4827 83.1844 10.248 82.2457 10.248C81.3071 10.248 80.4324 10.4827 79.6217 10.952C78.8111 11.4 78.1497 12.072 77.6377 12.968C77.1471 13.8427 76.9017 14.888 76.9017 16.104C76.9017 17.32 77.1471 18.3867 77.6377 19.304C78.1497 20.2213 78.8111 20.9253 79.6217 21.416C80.4537 21.8853 81.3284 22.12 82.2457 22.12C83.1844 22.12 84.0591 21.8853 84.8697 21.416C85.6804 20.9467 86.3311 20.264 86.8217 19.368C87.3337 18.4507 87.5897 17.384 87.5897 16.168ZM102.429 25.288C100.765 25.288 99.2612 24.9147 97.9172 24.168C96.5732 23.4 95.5172 22.3333 94.7492 20.968C93.9812 19.5813 93.5972 17.9813 93.5972 16.168C93.5972 14.376 93.9919 12.7867 94.7812 11.4C95.5706 10.0133 96.6479 8.94667 98.0132 8.2C99.3786 7.45333 100.904 7.08 102.589 7.08C104.275 7.08 105.8 7.45333 107.165 8.2C108.531 8.94667 109.608 10.0133 110.397 11.4C111.187 12.7867 111.581 14.376 111.581 16.168C111.581 17.96 111.176 19.5493 110.365 20.936C109.555 22.3227 108.445 23.4 107.037 24.168C105.651 24.9147 104.115 25.288 102.429 25.288ZM102.429 22.12C103.368 22.12 104.243 21.896 105.053 21.448C105.885 21 106.557 20.328 107.069 19.432C107.581 18.536 107.837 17.448 107.837 16.168C107.837 14.888 107.592 13.8107 107.101 12.936C106.611 12.04 105.96 11.368 105.149 10.92C104.339 10.472 103.464 10.248 102.525 10.248C101.587 10.248 100.712 10.472 99.9012 10.92C99.1119 11.368 98.4826 12.04 98.0132 12.936C97.5439 13.8107 97.3092 14.888 97.3092 16.168C97.3092 18.0667 97.7892 19.5387 98.7492 20.584C99.7306 21.608 100.957 22.12 102.429 22.12ZM117.556 9.928C118.089 9.032 118.793 8.33867 119.668 7.848C120.564 7.336 121.62 7.08 122.835 7.08V10.856H121.908C120.478 10.856 119.39 11.2187 118.643 11.944C117.918 12.6693 117.556 13.928 117.556 15.72V25H113.907V7.368H117.556V9.928ZM126.765 5.032C126.103 5.032 125.549 4.808 125.101 4.36C124.653 3.912 124.429 3.35733 124.429 2.696C124.429 2.03467 124.653 1.48 125.101 1.032C125.549 0.583999 126.103 0.359999 126.765 0.359999C127.405 0.359999 127.949 0.583999 128.397 1.032C128.845 1.48 129.069 2.03467 129.069 2.696C129.069 3.35733 128.845 3.912 128.397 4.36C127.949 4.808 127.405 5.032 126.765 5.032ZM128.557 7.368V25H124.909V7.368H128.557ZM148.226 15.752C148.226 16.4133 148.184 17.0107 148.098 17.544H134.626C134.733 18.952 135.256 20.0827 136.194 20.936C137.133 21.7893 138.285 22.216 139.65 22.216C141.613 22.216 143 21.3947 143.81 19.752H147.746C147.213 21.3733 146.242 22.7067 144.834 23.752C143.448 24.776 141.72 25.288 139.65 25.288C137.965 25.288 136.45 24.9147 135.106 24.168C133.784 23.4 132.738 22.3333 131.97 20.968C131.224 19.5813 130.85 17.9813 130.85 16.168C130.85 14.3547 131.213 12.7653 131.938 11.4C132.685 10.0133 133.72 8.94667 135.042 8.2C136.386 7.45333 137.922 7.08 139.65 7.08C141.314 7.08 142.797 7.44267 144.098 8.168C145.4 8.89333 146.413 9.91733 147.138 11.24C147.864 12.5413 148.226 14.0453 148.226 15.752ZM144.418 14.6C144.397 13.256 143.917 12.1787 142.978 11.368C142.04 10.5573 140.877 10.152 139.49 10.152C138.232 10.152 137.154 10.5573 136.258 11.368C135.362 12.1573 134.829 13.2347 134.658 14.6H144.418ZM156.936 25.288C155.55 25.288 154.302 25.0427 153.192 24.552C152.104 24.04 151.24 23.3573 150.6 22.504C149.96 21.6293 149.619 20.6587 149.576 19.592H153.352C153.416 20.3387 153.768 20.968 154.408 21.48C155.07 21.9707 155.891 22.216 156.872 22.216C157.896 22.216 158.686 22.024 159.24 21.64C159.816 21.2347 160.104 20.7227 160.104 20.104C160.104 19.4427 159.784 18.952 159.144 18.632C158.526 18.312 157.534 17.96 156.168 17.576C154.846 17.2133 153.768 16.8613 152.936 16.52C152.104 16.1787 151.379 15.656 150.76 14.952C150.163 14.248 149.864 13.32 149.864 12.168C149.864 11.2293 150.142 10.376 150.696 9.608C151.251 8.81867 152.04 8.2 153.064 7.752C154.11 7.304 155.304 7.08 156.648 7.08C158.654 7.08 160.264 7.592 161.48 8.616C162.718 9.61867 163.379 10.9947 163.464 12.744H159.816C159.752 11.9547 159.432 11.3253 158.856 10.856C158.28 10.3867 157.502 10.152 156.52 10.152C155.56 10.152 154.824 10.3333 154.312 10.696C153.8 11.0587 153.544 11.5387 153.544 12.136C153.544 12.6053 153.715 13 154.056 13.32C154.398 13.64 154.814 13.896 155.304 14.088C155.795 14.2587 156.52 14.4827 157.48 14.76C158.76 15.1013 159.806 15.4533 160.616 15.816C161.448 16.1573 162.163 16.6693 162.76 17.352C163.358 18.0347 163.667 18.9413 163.688 20.072C163.688 21.0747 163.411 21.9707 162.856 22.76C162.302 23.5493 161.512 24.168 160.488 24.616C159.486 25.064 158.302 25.288 156.936 25.288Z" fill="#FFF5E0"/>
</svg>
