<svg width="166" height="25" viewBox="0 0 166 25" fill="none" xmlns="http://www.w3.org/2000/svg">
<path d="M7.664 1.76C10.032 1.76 12.1013 2.21867 13.872 3.136C15.664 4.032 17.04 5.33333 18 7.04C18.9813 8.72533 19.472 10.6987 19.472 12.96C19.472 15.2213 18.9813 17.184 18 18.848C17.04 20.512 15.664 21.792 13.872 22.688C12.1013 23.5627 10.032 24 7.664 24H0.4V1.76H7.664ZM7.664 21.024C10.2667 21.024 12.2613 20.32 13.648 18.912C15.0347 17.504 15.728 15.52 15.728 12.96C15.728 10.3787 15.0347 8.36267 13.648 6.912C12.2613 5.46133 10.2667 4.736 7.664 4.736H4.048V21.024H7.664ZM20.5915 15.104C20.5915 13.3333 20.9542 11.7653 21.6795 10.4C22.4262 9.03467 23.4288 7.97867 24.6875 7.232C25.9675 6.464 27.3755 6.08 28.9115 6.08C30.2982 6.08 31.5035 6.35733 32.5275 6.912C33.5728 7.44533 34.4048 8.11733 35.0235 8.928V6.368H38.7035V24H35.0235V21.376C34.4048 22.208 33.5622 22.9013 32.4955 23.456C31.4288 24.0107 30.2128 24.288 28.8475 24.288C27.3328 24.288 25.9462 23.904 24.6875 23.136C23.4288 22.3467 22.4262 21.2587 21.6795 19.872C20.9542 18.464 20.5915 16.8747 20.5915 15.104ZM35.0235 15.168C35.0235 13.952 34.7675 12.896 34.2555 12C33.7648 11.104 33.1142 10.4213 32.3035 9.952C31.4928 9.48267 30.6182 9.248 29.6795 9.248C28.7408 9.248 27.8662 9.48267 27.0555 9.952C26.2448 10.4 25.5835 11.072 25.0715 11.968C24.5808 12.8427 24.3355 13.888 24.3355 15.104C24.3355 16.32 24.5808 17.3867 25.0715 18.304C25.5835 19.2213 26.2448 19.9253 27.0555 20.416C27.8875 20.8853 28.7622 21.12 29.6795 21.12C30.6182 21.12 31.4928 20.8853 32.3035 20.416C33.1142 19.9467 33.7648 19.264 34.2555 18.368C34.7675 17.4507 35.0235 16.384 35.0235 15.168ZM48.615 24.288C47.2283 24.288 45.9803 24.0427 44.871 23.552C43.783 23.04 42.919 22.3573 42.279 21.504C41.639 20.6293 41.2977 19.6587 41.255 18.592H45.031C45.095 19.3387 45.447 19.968 46.087 20.48C46.7483 20.9707 47.5697 21.216 48.551 21.216C49.575 21.216 50.3643 21.024 50.919 20.64C51.495 20.2347 51.783 19.7227 51.783 19.104C51.783 18.4427 51.463 17.952 50.823 17.632C50.2043 17.312 49.2123 16.96 47.847 16.576C46.5243 16.2133 45.447 15.8613 44.615 15.52C43.783 15.1787 43.0577 14.656 42.439 13.952C41.8417 13.248 41.543 12.32 41.543 11.168C41.543 10.2293 41.8203 9.376 42.375 8.608C42.9297 7.81867 43.719 7.2 44.743 6.752C45.7883 6.304 46.983 6.08 48.327 6.08C50.3323 6.08 51.943 6.592 53.159 7.616C54.3963 8.61867 55.0577 9.99467 55.143 11.744H51.495C51.431 10.9547 51.111 10.3253 50.535 9.856C49.959 9.38667 49.1803 9.152 48.199 9.152C47.239 9.152 46.503 9.33333 45.991 9.696C45.479 10.0587 45.223 10.5387 45.223 11.136C45.223 11.6053 45.3937 12 45.735 12.32C46.0763 12.64 46.4923 12.896 46.983 13.088C47.4737 13.2587 48.199 13.4827 49.159 13.76C50.439 14.1013 51.4843 14.4533 52.295 14.816C53.127 15.1573 53.8417 15.6693 54.439 16.352C55.0363 17.0347 55.3457 17.9413 55.367 19.072C55.367 20.0747 55.0897 20.9707 54.535 21.76C53.9803 22.5493 53.191 23.168 52.167 23.616C51.1643 24.064 49.9803 24.288 48.615 24.288ZM67.1488 6.08C68.4928 6.08 69.6874 6.368 70.7328 6.944C71.7994 7.52 72.6314 8.37333 73.2288 9.504C73.8474 10.6347 74.1568 12 74.1568 13.6V24H70.5408V14.144C70.5408 12.5653 70.1461 11.36 69.3568 10.528C68.5674 9.67467 67.4901 9.248 66.1248 9.248C64.7594 9.248 63.6714 9.67467 62.8608 10.528C62.0714 11.36 61.6768 12.5653 61.6768 14.144V24H58.0287V0.32H61.6768V8.416C62.2954 7.66933 63.0741 7.09333 64.0128 6.688C64.9728 6.28267 66.0181 6.08 67.1488 6.08ZM81.178 8.992C81.7967 8.13867 82.6393 7.44533 83.706 6.912C84.794 6.35733 85.9993 6.08 87.322 6.08C88.8793 6.08 90.2873 6.45333 91.546 7.2C92.8047 7.94667 93.7967 9.01333 94.522 10.4C95.2473 11.7653 95.61 13.3333 95.61 15.104C95.61 16.8747 95.2473 18.464 94.522 19.872C93.7967 21.2587 92.794 22.3467 91.514 23.136C90.2553 23.904 88.858 24.288 87.322 24.288C85.9567 24.288 84.7407 24.0213 83.674 23.488C82.6287 22.9547 81.7967 22.272 81.178 21.44V24H77.53V0.32H81.178V8.992ZM91.898 15.104C91.898 13.888 91.642 12.8427 91.13 11.968C90.6393 11.072 89.978 10.4 89.146 9.952C88.3353 9.48267 87.4607 9.248 86.522 9.248C85.6047 9.248 84.73 9.48267 83.898 9.952C83.0873 10.4213 82.426 11.104 81.914 12C81.4233 12.896 81.178 13.952 81.178 15.168C81.178 16.384 81.4233 17.4507 81.914 18.368C82.426 19.264 83.0873 19.9467 83.898 20.416C84.73 20.8853 85.6047 21.12 86.522 21.12C87.4607 21.12 88.3353 20.8853 89.146 20.416C89.978 19.9253 90.6393 19.2213 91.13 18.304C91.642 17.3867 91.898 16.32 91.898 15.104ZM105.585 24.288C103.921 24.288 102.417 23.9147 101.073 23.168C99.7295 22.4 98.6735 21.3333 97.9055 19.968C97.1375 18.5813 96.7535 16.9813 96.7535 15.168C96.7535 13.376 97.1482 11.7867 97.9375 10.4C98.7268 9.01333 99.8042 7.94667 101.169 7.2C102.535 6.45333 104.06 6.08 105.745 6.08C107.431 6.08 108.956 6.45333 110.321 7.2C111.687 7.94667 112.764 9.01333 113.553 10.4C114.343 11.7867 114.737 13.376 114.737 15.168C114.737 16.96 114.332 18.5493 113.521 19.936C112.711 21.3227 111.601 22.4 110.193 23.168C108.807 23.9147 107.271 24.288 105.585 24.288ZM105.585 21.12C106.524 21.12 107.399 20.896 108.209 20.448C109.041 20 109.713 19.328 110.225 18.432C110.737 17.536 110.993 16.448 110.993 15.168C110.993 13.888 110.748 12.8107 110.257 11.936C109.767 11.04 109.116 10.368 108.305 9.92C107.495 9.472 106.62 9.248 105.681 9.248C104.743 9.248 103.868 9.472 103.057 9.92C102.268 10.368 101.639 11.04 101.169 11.936C100.7 12.8107 100.465 13.888 100.465 15.168C100.465 17.0667 100.945 18.5387 101.905 19.584C102.887 20.608 104.113 21.12 105.585 21.12ZM115.848 15.104C115.848 13.3333 116.21 11.7653 116.936 10.4C117.682 9.03467 118.685 7.97867 119.944 7.232C121.224 6.464 122.632 6.08 124.168 6.08C125.554 6.08 126.76 6.35733 127.784 6.912C128.829 7.44533 129.661 8.11733 130.28 8.928V6.368H133.96V24H130.28V21.376C129.661 22.208 128.818 22.9013 127.752 23.456C126.685 24.0107 125.469 24.288 124.104 24.288C122.589 24.288 121.202 23.904 119.944 23.136C118.685 22.3467 117.682 21.2587 116.936 19.872C116.21 18.464 115.848 16.8747 115.848 15.104ZM130.28 15.168C130.28 13.952 130.024 12.896 129.512 12C129.021 11.104 128.37 10.4213 127.56 9.952C126.749 9.48267 125.874 9.248 124.936 9.248C123.997 9.248 123.122 9.48267 122.312 9.952C121.501 10.4 120.84 11.072 120.328 11.968C119.837 12.8427 119.592 13.888 119.592 15.104C119.592 16.32 119.837 17.3867 120.328 18.304C120.84 19.2213 121.501 19.9253 122.312 20.416C123.144 20.8853 124.018 21.12 124.936 21.12C125.874 21.12 126.749 20.8853 127.56 20.416C128.37 19.9467 129.021 19.264 129.512 18.368C130.024 17.4507 130.28 16.384 130.28 15.168ZM141.119 8.928C141.653 8.032 142.357 7.33867 143.231 6.848C144.127 6.336 145.183 6.08 146.399 6.08V9.856H145.471C144.042 9.856 142.954 10.2187 142.207 10.944C141.482 11.6693 141.119 12.928 141.119 14.72V24H137.471V6.368H141.119V8.928ZM147.256 15.104C147.256 13.3333 147.619 11.7653 148.344 10.4C149.091 9.03467 150.094 7.97867 151.352 7.232C152.632 6.464 154.051 6.08 155.608 6.08C156.76 6.08 157.891 6.336 159 6.848C160.131 7.33867 161.027 8 161.688 8.832V0.32H165.368V24H161.688V21.344C161.091 22.1973 160.259 22.9013 159.192 23.456C158.147 24.0107 156.942 24.288 155.576 24.288C154.04 24.288 152.632 23.904 151.352 23.136C150.094 22.3467 149.091 21.2587 148.344 19.872C147.619 18.464 147.256 16.8747 147.256 15.104ZM161.688 15.168C161.688 13.952 161.432 12.896 160.92 12C160.43 11.104 159.779 10.4213 158.968 9.952C158.158 9.48267 157.283 9.248 156.344 9.248C155.406 9.248 154.531 9.48267 153.72 9.952C152.91 10.4 152.248 11.072 151.736 11.968C151.246 12.8427 151 13.888 151 15.104C151 16.32 151.246 17.3867 151.736 18.304C152.248 19.2213 152.91 19.9253 153.72 20.416C154.552 20.8853 155.427 21.12 156.344 21.12C157.283 21.12 158.158 20.8853 158.968 20.416C159.779 19.9467 160.43 19.264 160.92 18.368C161.432 17.4507 161.688 16.384 161.688 15.168Z" fill="#FFF5E0"/>
</svg>
