<svg width="70" height="70" viewBox="0 0 70 70" fill="none" xmlns="http://www.w3.org/2000/svg">
<path d="M23.6978 26.25C24.7041 26.25 25.5208 27.0667 25.5208 28.0729V33.5417H30.2603C30.7438 33.5417 31.2075 33.7337 31.5493 34.0756C31.8912 34.4174 32.0833 34.8811 32.0833 35.3646C32.0833 35.8481 31.8912 36.3117 31.5493 36.6536C31.2075 36.9954 30.7438 37.1875 30.2603 37.1875H25.5208V41.9271C25.5208 42.4106 25.3287 42.8742 24.9868 43.2161C24.645 43.5579 24.1813 43.75 23.6978 43.75C23.2144 43.75 22.7507 43.5579 22.4088 43.2161C22.067 42.8742 21.8749 42.4106 21.8749 41.9271V37.1875H16.4062C15.9227 37.1875 15.459 36.9954 15.1172 36.6536C14.7753 36.3117 14.5833 35.8481 14.5833 35.3646C14.5833 34.8811 14.7753 34.4174 15.1172 34.0756C15.459 33.7337 15.9227 33.5417 16.4062 33.5417H21.8749V28.0729C21.8749 27.0667 22.6916 26.25 23.6978 26.25ZM46.6666 40.1042C46.6666 41.0711 46.2825 41.9984 45.5987 42.6822C44.915 43.3659 43.9877 43.75 43.0208 43.75C42.0538 43.75 41.1265 43.3659 40.4428 42.6822C39.759 41.9984 39.3749 41.0711 39.3749 40.1042C39.3749 39.1372 39.759 38.2099 40.4428 37.5262C41.1265 36.8424 42.0538 36.4583 43.0208 36.4583C43.9877 36.4583 44.915 36.8424 45.5987 37.5262C46.2825 38.2099 46.6666 39.1372 46.6666 40.1042ZM48.8541 33.5417C49.821 33.5417 50.7484 33.1576 51.4321 32.4738C52.1158 31.7901 52.4999 30.8628 52.4999 29.8958C52.4999 28.9289 52.1158 28.0016 51.4321 27.3178C50.7484 26.6341 49.821 26.25 48.8541 26.25C47.8871 26.25 46.9598 26.6341 46.2761 27.3178C45.5924 28.0016 45.2083 28.9289 45.2083 29.8958C45.2083 30.8628 45.5924 31.7901 46.2761 32.4738C46.9598 33.1576 47.8871 33.5417 48.8541 33.5417ZM5.83325 35C5.83325 23.7242 14.9741 14.5833 26.2499 14.5833H43.7499C55.0258 14.5833 64.1666 23.7242 64.1666 35C64.1666 46.2758 55.0258 55.4167 43.7499 55.4167H26.2499C14.9741 55.4167 5.83325 46.2758 5.83325 35ZM26.2499 18.2292C16.988 18.2292 9.47909 25.7381 9.47909 35C9.47909 44.2619 16.988 51.7708 26.2499 51.7708H43.7499C53.0118 51.7708 60.5208 44.2619 60.5208 35C60.5208 25.7381 53.0118 18.2292 43.7499 18.2292H26.2499Z" fill="#141E46"/>
</svg>
