<svg width="70" height="70" viewBox="0 0 70 70" fill="none" xmlns="http://www.w3.org/2000/svg">
<path d="M46.6666 49.5833V55.4167H5.83325V49.5833C5.83325 49.5833 5.83325 37.9167 26.2499 37.9167C46.6666 37.9167 46.6666 49.5833 46.6666 49.5833ZM36.4583 21.875C36.4583 19.856 35.8595 17.8823 34.7378 16.2036C33.6161 14.5248 32.0218 13.2164 30.1565 12.4437C28.2911 11.6711 26.2386 11.4689 24.2584 11.8628C22.2781 12.2567 20.4592 13.229 19.0315 14.6566C17.6039 16.0843 16.6316 17.9032 16.2377 19.8835C15.8438 21.8637 16.046 23.9162 16.8186 25.7816C17.5913 27.6469 18.8997 29.2412 20.5785 30.3629C22.2572 31.4846 24.2309 32.0833 26.2499 32.0833C28.9573 32.0833 31.5539 31.0078 33.4683 29.0934C35.3827 27.179 36.4583 24.5824 36.4583 21.875ZM46.4916 37.9167C48.2846 39.3043 49.7518 41.0679 50.7898 43.0836C51.8279 45.0992 52.4116 47.3178 52.4999 49.5833V55.4167H64.1666V49.5833C64.1666 49.5833 64.1666 38.9958 46.4916 37.9167ZM43.7499 11.6667C41.7423 11.6555 39.7789 12.2557 38.1208 13.3875C39.8925 15.863 40.8451 18.8308 40.8451 21.875C40.8451 24.9192 39.8925 27.887 38.1208 30.3625C39.7789 31.4943 41.7423 32.0945 43.7499 32.0833C46.4573 32.0833 49.0539 31.0078 50.9683 29.0934C52.8827 27.179 53.9582 24.5824 53.9582 21.875C53.9582 19.1676 52.8827 16.5711 50.9683 14.6566C49.0539 12.7422 46.4573 11.6667 43.7499 11.6667Z" fill="#141E46"/>
</svg>
