<svg width="48" height="44" viewBox="0 0 48 44" fill="none" xmlns="http://www.w3.org/2000/svg">
<path d="M18 27.5H3V30.25H18V27.5ZM18 33H3V35.75H18V33ZM18 38.5H3V41.25H18V38.5ZM24 27.5C24.7929 27.5165 25.5812 27.3856 26.3173 27.115C27.0534 26.8445 27.722 26.44 28.2828 25.9259C28.8436 25.4119 29.2849 24.7989 29.58 24.1242C29.8752 23.4494 30.018 22.7268 30 22C30.018 21.2732 29.8752 20.5506 29.58 19.8758C29.2849 19.2011 28.8436 18.5881 28.2828 18.0741C27.722 17.56 27.0534 17.1555 26.3173 16.885C25.5812 16.6144 24.7929 16.4835 24 16.5C23.2071 16.4835 22.4188 16.6144 21.6827 16.885C20.9466 17.1555 20.278 17.56 19.7172 18.0741C19.1564 18.5881 18.7151 19.2011 18.42 19.8758C18.1248 20.5506 17.982 21.2732 18 22H15C15 20.3683 15.5278 18.7733 16.5168 17.4165C17.5057 16.0598 18.9113 15.0024 20.5558 14.378C22.2004 13.7536 24.01 13.5902 25.7558 13.9085C27.5016 14.2268 29.1053 15.0126 30.364 16.1664C31.6226 17.3202 32.4798 18.7902 32.8271 20.3905C33.1743 21.9908 32.9961 23.6496 32.3149 25.1571C31.6337 26.6646 30.4802 27.9531 29.0001 28.8596C27.5201 29.7661 25.78 30.25 24 30.25V27.5Z" fill="#FFF5E0"/>
<path d="M4.0425 15.1855L7.5825 9.5645C7.9288 9.01313 8.47313 8.58902 9.12257 8.36459C9.77201 8.14015 10.4863 8.12929 11.1435 8.33387L14.7945 9.46688C15.4237 9.07856 16.0812 8.73032 16.7625 8.42462L17.5185 4.95963C17.6547 4.33647 18.0222 3.77581 18.5585 3.37297C19.0948 2.97014 19.7667 2.75 20.46 2.75H27.54C28.2335 2.75007 28.9056 2.9704 29.4419 3.3735C29.9782 3.77661 30.3456 4.33759 30.4815 4.961L31.2375 8.42462C31.9264 8.72697 32.5915 9.07293 33.228 9.46L36.858 8.33387C37.5148 8.13001 38.2284 8.14124 38.8772 8.36564C39.526 8.59004 40.0698 9.01373 40.416 9.5645L43.956 15.1855C44.3028 15.7359 44.4309 16.3794 44.3185 17.0066C44.2061 17.6338 43.8601 18.206 43.3395 18.6257L40.443 20.9591C40.4685 21.3056 40.5 21.6494 40.5 22C40.5 22.3547 40.485 22.7054 40.458 23.0533L43.338 25.3743C43.8591 25.7937 44.2056 26.3657 44.3186 26.9929C44.4315 27.6201 44.3039 28.2638 43.9575 28.8145L40.4175 34.4355C40.0712 34.9869 39.5269 35.411 38.8774 35.6354C38.228 35.8599 37.5137 35.8707 36.8565 35.6661L33.2055 34.5331C32.5765 34.9222 31.919 35.2709 31.2375 35.5768L30.483 39.039C30.347 39.6626 29.9794 40.2238 29.4428 40.6269C28.9062 41.0301 28.2338 41.2503 27.54 41.25H24V38.5H27.54L28.605 33.6188C30.0783 33.1171 31.4459 32.3858 32.6475 31.4573L37.818 33.0605L41.358 27.4395L37.2705 24.1464C37.5501 22.7245 37.5537 21.2684 37.281 19.8454L41.358 16.5591L37.818 10.9395L32.6775 12.5345C31.4673 11.6046 30.089 10.8759 28.605 10.3813L27.54 5.5H20.46L19.395 10.3813C17.9218 10.883 16.5542 11.6143 15.3525 12.5427L10.182 10.9395L6.642 16.5605L10.839 19.932L8.862 22L4.662 18.6257C4.14087 18.2063 3.79436 17.6343 3.68142 17.0071C3.56847 16.3799 3.69607 15.7362 4.0425 15.1855Z" fill="#FFF5E0"/>
</svg>
