<svg width="40" height="40" viewBox="0 0 40 40" fill="none" xmlns="http://www.w3.org/2000/svg">
<path d="M20 36.6667C17.8113 36.6667 15.6441 36.2356 13.622 35.398C11.5999 34.5604 9.76257 33.3328 8.21493 31.7851C5.08932 28.6595 3.33337 24.4203 3.33337 20C3.33337 15.5797 5.08932 11.3405 8.21493 8.21489C11.3405 5.08928 15.5798 3.33333 20 3.33333C22.1887 3.33333 24.356 3.76443 26.3781 4.60201C28.4002 5.43958 30.2375 6.66724 31.7852 8.21489C33.3328 9.76253 34.5605 11.5998 35.398 13.6219C36.2356 15.644 36.6667 17.8113 36.6667 20C36.6667 24.4203 34.9108 28.6595 31.7852 31.7851C28.6595 34.9107 24.4203 36.6667 20 36.6667ZM20 33.3333C23.5363 33.3333 26.9276 31.9286 29.4281 29.4281C31.9286 26.9276 33.3334 23.5362 33.3334 20C33.3334 16.4638 31.9286 13.0724 29.4281 10.5719C26.9276 8.07142 23.5363 6.66667 20 6.66667C16.4638 6.66667 13.0724 8.07142 10.572 10.5719C8.07147 13.0724 6.66671 16.4638 6.66671 20C6.66671 23.5362 8.07147 26.9276 10.572 29.4281C13.0724 31.9286 16.4638 33.3333 20 33.3333ZM20 18.3333C20.4421 18.3333 20.866 18.5089 21.1786 18.8215C21.4911 19.134 21.6667 19.558 21.6667 20C21.6667 20.442 21.4911 20.8659 21.1786 21.1785C20.866 21.4911 20.4421 21.6667 20 21.6667C19.558 21.6667 19.1341 21.4911 18.8215 21.1785C18.509 20.8659 18.3334 20.442 18.3334 20C18.3334 19.558 18.509 19.134 18.8215 18.8215C19.1341 18.5089 19.558 18.3333 20 18.3333ZM20 13.3333C24.3834 13.3333 28.3334 15.95 30 20C28.8932 22.6507 26.7797 24.7538 24.1235 25.8475C21.4674 26.9412 18.4858 26.9361 15.8334 25.8333C13.1978 24.7312 11.1021 22.6356 10 20C11.6667 15.95 15.6167 13.3333 20 13.3333ZM20 15.8333C18.895 15.8333 17.8352 16.2723 17.0538 17.0537C16.2724 17.8351 15.8334 18.8949 15.8334 20C15.8334 21.1051 16.2724 22.1649 17.0538 22.9463C17.8352 23.7277 18.895 24.1667 20 24.1667C21.1051 24.1667 22.1649 23.7277 22.9463 22.9463C23.7277 22.1649 24.1667 21.1051 24.1667 20C24.1667 18.8949 23.7277 17.8351 22.9463 17.0537C22.1649 16.2723 21.1051 15.8333 20 15.8333Z" fill="#666666"/>
</svg>
