<svg width="88" height="48" viewBox="0 0 88 48" fill="none" xmlns="http://www.w3.org/2000/svg">
<path d="M8.172 7.49V16.508C8.172 17.624 7.83 18.506 7.146 19.154C6.474 19.802 5.586 20.126 4.482 20.126C3.378 20.126 2.484 19.802 1.8 19.154C1.128 18.506 0.792 17.624 0.792 16.508H2.862C2.874 17.06 3.012 17.498 3.276 17.822C3.552 18.146 3.954 18.308 4.482 18.308C5.01 18.308 5.412 18.146 5.688 17.822C5.964 17.486 6.102 17.048 6.102 16.508V7.49H8.172ZM15.0922 20.162C14.1562 20.162 13.3102 19.952 12.5542 19.532C11.7982 19.1 11.2042 18.5 10.7722 17.732C10.3402 16.952 10.1242 16.052 10.1242 15.032C10.1242 14.024 10.3462 13.13 10.7902 12.35C11.2342 11.57 11.8402 10.97 12.6082 10.55C13.3762 10.13 14.2342 9.92 15.1822 9.92C16.1302 9.92 16.9882 10.13 17.7562 10.55C18.5242 10.97 19.1302 11.57 19.5742 12.35C20.0182 13.13 20.2402 14.024 20.2402 15.032C20.2402 16.04 20.0122 16.934 19.5562 17.714C19.1002 18.494 18.4762 19.1 17.6842 19.532C16.9042 19.952 16.0402 20.162 15.0922 20.162ZM15.0922 18.38C15.6202 18.38 16.1122 18.254 16.5682 18.002C17.0362 17.75 17.4142 17.372 17.7022 16.868C17.9902 16.364 18.1342 15.752 18.1342 15.032C18.1342 14.312 17.9962 13.706 17.7202 13.214C17.4442 12.71 17.0782 12.332 16.6222 12.08C16.1662 11.828 15.6742 11.702 15.1462 11.702C14.6182 11.702 14.1262 11.828 13.6702 12.08C13.2262 12.332 12.8722 12.71 12.6082 13.214C12.3442 13.706 12.2122 14.312 12.2122 15.032C12.2122 16.1 12.4822 16.928 13.0222 17.516C13.5742 18.092 14.2642 18.38 15.0922 18.38ZM26.6787 9.92C27.4347 9.92 28.1067 10.082 28.6947 10.406C29.2947 10.73 29.7627 11.21 30.0987 11.846C30.4467 12.482 30.6207 13.25 30.6207 14.15V20H28.5867V14.456C28.5867 13.568 28.3647 12.89 27.9207 12.422C27.4767 11.942 26.8707 11.702 26.1027 11.702C25.3347 11.702 24.7227 11.942 24.2667 12.422C23.8227 12.89 23.6007 13.568 23.6007 14.456V20H21.5487V6.68H23.6007V11.234C23.9487 10.814 24.3867 10.49 24.9147 10.262C25.4547 10.034 26.0427 9.92 26.6787 9.92ZM37.5221 9.92C38.3021 9.92 38.9981 10.082 39.6101 10.406C40.2341 10.73 40.7201 11.21 41.0681 11.846C41.4161 12.482 41.5901 13.25 41.5901 14.15V20H39.5561V14.456C39.5561 13.568 39.3341 12.89 38.8901 12.422C38.4461 11.942 37.8401 11.702 37.0721 11.702C36.3041 11.702 35.6921 11.942 35.2361 12.422C34.7921 12.89 34.5701 13.568 34.5701 14.456V20H32.5181V10.082H34.5701V11.216C34.9061 10.808 35.3321 10.49 35.8481 10.262C36.3761 10.034 36.9341 9.92 37.5221 9.92ZM63.7334 7.49L60.0254 20H57.7034L55.0754 10.532L52.2854 20L49.9814 20.018L46.4354 7.49H48.6134L51.2054 17.678L54.0134 7.49H56.3174L58.9274 17.624L61.5374 7.49H63.7334ZM65.7498 8.768C65.3778 8.768 65.0658 8.642 64.8138 8.39C64.5618 8.138 64.4358 7.826 64.4358 7.454C64.4358 7.082 64.5618 6.77 64.8138 6.518C65.0658 6.266 65.3778 6.14 65.7498 6.14C66.1098 6.14 66.4158 6.266 66.6678 6.518C66.9198 6.77 67.0458 7.082 67.0458 7.454C67.0458 7.826 66.9198 8.138 66.6678 8.39C66.4158 8.642 66.1098 8.768 65.7498 8.768ZM66.7578 10.082V20H64.7058V10.082H66.7578ZM68.0479 15.032C68.0479 14.012 68.2519 13.118 68.6599 12.35C69.0799 11.57 69.6559 10.97 70.3879 10.55C71.1199 10.13 71.9599 9.92 72.9079 9.92C74.1079 9.92 75.0979 10.208 75.8779 10.784C76.6699 11.348 77.2039 12.158 77.4799 13.214H75.2659C75.0859 12.722 74.7979 12.338 74.4019 12.062C74.0059 11.786 73.5079 11.648 72.9079 11.648C72.0679 11.648 71.3959 11.948 70.8919 12.548C70.3999 13.136 70.1539 13.964 70.1539 15.032C70.1539 16.1 70.3999 16.934 70.8919 17.534C71.3959 18.134 72.0679 18.434 72.9079 18.434C74.0959 18.434 74.8819 17.912 75.2659 16.868H77.4799C77.1919 17.876 76.6519 18.68 75.8599 19.28C75.0679 19.868 74.0839 20.162 72.9079 20.162C71.9599 20.162 71.1199 19.952 70.3879 19.532C69.6559 19.1 69.0799 18.5 68.6599 17.732C68.2519 16.952 68.0479 16.052 68.0479 15.032ZM82.7288 15.05L87.3008 20H84.5288L80.8568 15.734V20H78.8048V6.68H80.8568V14.42L84.4568 10.082H87.3008L82.7288 15.05Z" fill="#141E46"/>
<path d="M0.774 34.718C0.774 33.494 1.05 32.396 1.602 31.424C2.154 30.44 2.904 29.672 3.852 29.12C4.812 28.568 5.874 28.292 7.038 28.292C8.406 28.292 9.6 28.622 10.62 29.282C11.64 29.942 12.384 30.878 12.852 32.09H10.89C10.542 31.334 10.038 30.752 9.378 30.344C8.73 29.936 7.95 29.732 7.038 29.732C6.162 29.732 5.376 29.936 4.68 30.344C3.984 30.752 3.438 31.334 3.042 32.09C2.646 32.834 2.448 33.71 2.448 34.718C2.448 35.714 2.646 36.59 3.042 37.346C3.438 38.09 3.984 38.666 4.68 39.074C5.376 39.482 6.162 39.686 7.038 39.686C7.95 39.686 8.73 39.488 9.378 39.092C10.038 38.684 10.542 38.102 10.89 37.346H12.852C12.384 38.546 11.64 39.476 10.62 40.136C9.6 40.784 8.406 41.108 7.038 41.108C5.874 41.108 4.812 40.838 3.852 40.298C2.904 39.746 2.154 38.984 1.602 38.012C1.05 37.04 0.774 35.942 0.774 34.718ZM23.3183 31.136V41H21.6803V39.542C21.3683 40.046 20.9303 40.442 20.3663 40.73C19.8143 41.006 19.2023 41.144 18.5303 41.144C17.7623 41.144 17.0723 40.988 16.4603 40.676C15.8483 40.352 15.3623 39.872 15.0023 39.236C14.6543 38.6 14.4803 37.826 14.4803 36.914V31.136H16.1003V36.698C16.1003 37.67 16.3463 38.42 16.8383 38.948C17.3303 39.464 18.0023 39.722 18.8543 39.722C19.7303 39.722 20.4203 39.452 20.9243 38.912C21.4283 38.372 21.6803 37.586 21.6803 36.554V31.136H23.3183ZM28.856 41.162C28.1 41.162 27.422 41.036 26.822 40.784C26.222 40.52 25.748 40.16 25.4 39.704C25.052 39.236 24.86 38.702 24.824 38.102H26.516C26.564 38.594 26.792 38.996 27.2 39.308C27.62 39.62 28.166 39.776 28.838 39.776C29.462 39.776 29.954 39.638 30.314 39.362C30.674 39.086 30.854 38.738 30.854 38.318C30.854 37.886 30.662 37.568 30.278 37.364C29.894 37.148 29.3 36.938 28.496 36.734C27.764 36.542 27.164 36.35 26.696 36.158C26.24 35.954 25.844 35.66 25.508 35.276C25.184 34.88 25.022 34.364 25.022 33.728C25.022 33.224 25.172 32.762 25.472 32.342C25.772 31.922 26.198 31.592 26.75 31.352C27.302 31.1 27.932 30.974 28.64 30.974C29.732 30.974 30.614 31.25 31.286 31.802C31.958 32.354 32.318 33.11 32.366 34.07H30.728C30.692 33.554 30.482 33.14 30.098 32.828C29.726 32.516 29.222 32.36 28.586 32.36C27.998 32.36 27.53 32.486 27.182 32.738C26.834 32.99 26.66 33.32 26.66 33.728C26.66 34.052 26.762 34.322 26.966 34.538C27.182 34.742 27.446 34.91 27.758 35.042C28.082 35.162 28.526 35.3 29.09 35.456C29.798 35.648 30.374 35.84 30.818 36.032C31.262 36.212 31.64 36.488 31.952 36.86C32.276 37.232 32.444 37.718 32.456 38.318C32.456 38.858 32.306 39.344 32.006 39.776C31.706 40.208 31.28 40.55 30.728 40.802C30.188 41.042 29.564 41.162 28.856 41.162ZM36.0463 32.486V38.3C36.0463 38.78 36.1483 39.122 36.3523 39.326C36.5563 39.518 36.9103 39.614 37.4143 39.614H38.6203V41H37.1443C36.2323 41 35.5483 40.79 35.0923 40.37C34.6363 39.95 34.4083 39.26 34.4083 38.3V32.486H33.1303V31.136H34.4083V28.652H36.0463V31.136H38.6203V32.486H36.0463ZM44.1869 41.162C43.2629 41.162 42.4229 40.952 41.6669 40.532C40.9229 40.112 40.3349 39.518 39.9029 38.75C39.4829 37.97 39.2729 37.07 39.2729 36.05C39.2729 35.042 39.4889 34.154 39.9209 33.386C40.3649 32.606 40.9649 32.012 41.7209 31.604C42.4769 31.184 43.3229 30.974 44.2589 30.974C45.1949 30.974 46.0409 31.184 46.7969 31.604C47.5529 32.012 48.1469 32.6 48.5789 33.368C49.0229 34.136 49.2449 35.03 49.2449 36.05C49.2449 37.07 49.0169 37.97 48.5609 38.75C48.1169 39.518 47.5109 40.112 46.7429 40.532C45.9749 40.952 45.1229 41.162 44.1869 41.162ZM44.1869 39.722C44.7749 39.722 45.3269 39.584 45.8429 39.308C46.3589 39.032 46.7729 38.618 47.0849 38.066C47.4089 37.514 47.5709 36.842 47.5709 36.05C47.5709 35.258 47.4149 34.586 47.1029 34.034C46.7909 33.482 46.3829 33.074 45.8789 32.81C45.3749 32.534 44.8289 32.396 44.2409 32.396C43.6409 32.396 43.0889 32.534 42.5849 32.81C42.0929 33.074 41.6969 33.482 41.3969 34.034C41.0969 34.586 40.9469 35.258 40.9469 36.05C40.9469 36.854 41.0909 37.532 41.3789 38.084C41.6789 38.636 42.0749 39.05 42.5669 39.326C43.0589 39.59 43.5989 39.722 44.1869 39.722ZM62.5406 30.956C63.3086 30.956 63.9926 31.118 64.5926 31.442C65.1926 31.754 65.6666 32.228 66.0146 32.864C66.3626 33.5 66.5366 34.274 66.5366 35.186V41H64.9166V35.42C64.9166 34.436 64.6706 33.686 64.1786 33.17C63.6986 32.642 63.0446 32.378 62.2166 32.378C61.3646 32.378 60.6866 32.654 60.1826 33.206C59.6786 33.746 59.4266 34.532 59.4266 35.564V41H57.8066V35.42C57.8066 34.436 57.5606 33.686 57.0686 33.17C56.5886 32.642 55.9346 32.378 55.1066 32.378C54.2546 32.378 53.5766 32.654 53.0726 33.206C52.5686 33.746 52.3166 34.532 52.3166 35.564V41H50.6786V31.136H52.3166V32.558C52.6406 32.042 53.0726 31.646 53.6126 31.37C54.1646 31.094 54.7706 30.956 55.4306 30.956C56.2586 30.956 56.9906 31.142 57.6266 31.514C58.2626 31.886 58.7366 32.432 59.0486 33.152C59.3246 32.456 59.7806 31.916 60.4166 31.532C61.0526 31.148 61.7606 30.956 62.5406 30.956ZM77.5035 35.69C77.5035 36.002 77.4855 36.332 77.4495 36.68H69.5655C69.6255 37.652 69.9555 38.414 70.5555 38.966C71.1675 39.506 71.9055 39.776 72.7695 39.776C73.4775 39.776 74.0655 39.614 74.5335 39.29C75.0135 38.954 75.3495 38.51 75.5415 37.958H77.3055C77.0415 38.906 76.5135 39.68 75.7215 40.28C74.9295 40.868 73.9455 41.162 72.7695 41.162C71.8335 41.162 70.9935 40.952 70.2495 40.532C69.5175 40.112 68.9415 39.518 68.5215 38.75C68.1015 37.97 67.8915 37.07 67.8915 36.05C67.8915 35.03 68.0955 34.136 68.5035 33.368C68.9115 32.6 69.4815 32.012 70.2135 31.604C70.9575 31.184 71.8095 30.974 72.7695 30.974C73.7055 30.974 74.5335 31.178 75.2535 31.586C75.9735 31.994 76.5255 32.558 76.9095 33.278C77.3055 33.986 77.5035 34.79 77.5035 35.69ZM75.8115 35.348C75.8115 34.724 75.6735 34.19 75.3975 33.746C75.1215 33.29 74.7435 32.948 74.2635 32.72C73.7955 32.48 73.2735 32.36 72.6975 32.36C71.8695 32.36 71.1615 32.624 70.5735 33.152C69.9975 33.68 69.6675 34.412 69.5835 35.348H75.8115ZM80.5836 32.738C80.8716 32.174 81.2796 31.736 81.8076 31.424C82.3476 31.112 83.0016 30.956 83.7696 30.956V32.648H83.3376C81.5016 32.648 80.5836 33.644 80.5836 35.636V41H78.9456V31.136H80.5836V32.738Z" fill="#141E46"/>
</svg>
