<svg width="38" height="38" viewBox="0 0 38 38" fill="none" xmlns="http://www.w3.org/2000/svg">
<path d="M11.9479 20.0417L11.9479 17.9167L22.1813 17.9167L17.8063 13.5417L19.2396 12.1083L26.0917 18.9604L19.2396 25.85L17.8063 24.4167L22.1813 20.0417L11.9479 20.0417ZM0.250001 18.9937C0.250001 21.5854 0.741669 24.0229 1.725 26.3062C2.70972 28.5882 4.04583 30.5736 5.73333 32.2625C7.41945 33.9514 9.40278 35.2882 11.6833 36.2729C13.9639 37.2576 16.4007 37.75 18.9937 37.75C21.5854 37.75 24.0229 37.2583 26.3063 36.275C28.5882 35.2903 30.5736 33.9542 32.2625 32.2667C33.9514 30.5806 35.2882 28.5972 36.2729 26.3167C37.2576 24.0361 37.75 21.5993 37.75 19.0063C37.75 16.4146 37.2583 13.9771 36.275 11.6938C35.2903 9.41181 33.9542 7.42639 32.2667 5.7375C30.5806 4.04861 28.5972 2.71181 26.3167 1.72708C24.0361 0.742362 21.5993 0.249999 19.0063 0.249999C16.4146 0.249999 13.9771 0.741668 11.6938 1.725C9.41181 2.70972 7.42639 4.04583 5.7375 5.73333C4.04862 7.41944 2.71181 9.40278 1.72709 11.6833C0.742364 13.9639 0.250001 16.4007 0.250001 18.9937Z" fill="#FFF5E0"/>
</svg>
