<svg width="77" height="34" viewBox="0 0 77 34" fill="none" xmlns="http://www.w3.org/2000/svg">
<path d="M4.048 22.056H11.568V25H0.4V2.76H4.048V22.056ZM20.9868 25.288C19.3228 25.288 17.8188 24.9147 16.4748 24.168C15.1308 23.4 14.0748 22.3333 13.3068 20.968C12.5388 19.5813 12.1548 17.9813 12.1548 16.168C12.1548 14.376 12.5494 12.7867 13.3388 11.4C14.1281 10.0133 15.2054 8.94667 16.5708 8.2C17.9361 7.45333 19.4614 7.08 21.1468 7.08C22.8321 7.08 24.3574 7.45333 25.7228 8.2C27.0881 8.94667 28.1654 10.0133 28.9548 11.4C29.7441 12.7867 30.1388 14.376 30.1388 16.168C30.1388 17.96 29.7334 19.5493 28.9228 20.936C28.1121 22.3227 27.0028 23.4 25.5948 24.168C24.2081 24.9147 22.6721 25.288 20.9868 25.288ZM20.9868 22.12C21.9254 22.12 22.8001 21.896 23.6108 21.448C24.4428 21 25.1148 20.328 25.6268 19.432C26.1388 18.536 26.3948 17.448 26.3948 16.168C26.3948 14.888 26.1494 13.8107 25.6588 12.936C25.1681 12.04 24.5174 11.368 23.7068 10.92C22.8961 10.472 22.0214 10.248 21.0828 10.248C20.1441 10.248 19.2694 10.472 18.4588 10.92C17.6694 11.368 17.0401 12.04 16.5708 12.936C16.1014 13.8107 15.8668 14.888 15.8668 16.168C15.8668 18.0667 16.3468 19.5387 17.3068 20.584C18.2881 21.608 19.5148 22.12 20.9868 22.12ZM39.569 7.08C40.9343 7.08 42.1397 7.35733 43.185 7.912C44.2517 8.44533 45.0837 9.11733 45.681 9.928V7.368H49.361V25.288C49.361 26.9093 49.0197 28.3493 48.337 29.608C47.6543 30.888 46.6623 31.8907 45.361 32.616C44.081 33.3413 42.545 33.704 40.753 33.704C38.3637 33.704 36.3797 33.1387 34.801 32.008C33.2223 30.8987 32.3263 29.384 32.113 27.464H35.729C36.0063 28.3813 36.593 29.1173 37.489 29.672C38.4063 30.248 39.4943 30.536 40.753 30.536C42.225 30.536 43.409 30.088 44.305 29.192C45.2223 28.296 45.681 26.9947 45.681 25.288V22.344C45.0623 23.176 44.2197 23.88 43.153 24.456C42.1077 25.0107 40.913 25.288 39.569 25.288C38.033 25.288 36.625 24.904 35.345 24.136C34.0863 23.3467 33.0837 22.2587 32.337 20.872C31.6117 19.464 31.249 17.8747 31.249 16.104C31.249 14.3333 31.6117 12.7653 32.337 11.4C33.0837 10.0347 34.0863 8.97867 35.345 8.232C36.625 7.464 38.033 7.08 39.569 7.08ZM45.681 16.168C45.681 14.952 45.425 13.896 44.913 13C44.4223 12.104 43.7717 11.4213 42.961 10.952C42.1503 10.4827 41.2757 10.248 40.337 10.248C39.3983 10.248 38.5237 10.4827 37.713 10.952C36.9023 11.4 36.241 12.072 35.729 12.968C35.2383 13.8427 34.993 14.888 34.993 16.104C34.993 17.32 35.2383 18.3867 35.729 19.304C36.241 20.2213 36.9023 20.9253 37.713 21.416C38.545 21.8853 39.4197 22.12 40.337 22.12C41.2757 22.12 42.1503 21.8853 42.961 21.416C43.7717 20.9467 44.4223 20.264 44.913 19.368C45.425 18.4507 45.681 17.384 45.681 16.168ZM54.7285 5.032C54.0672 5.032 53.5125 4.808 53.0645 4.36C52.6165 3.912 52.3925 3.35733 52.3925 2.696C52.3925 2.03467 52.6165 1.48 53.0645 1.032C53.5125 0.583999 54.0672 0.359999 54.7285 0.359999C55.3685 0.359999 55.9125 0.583999 56.3605 1.032C56.8085 1.48 57.0325 2.03467 57.0325 2.696C57.0325 3.35733 56.8085 3.912 56.3605 4.36C55.9125 4.808 55.3685 5.032 54.7285 5.032ZM56.5205 7.368V25H52.8725V7.368H56.5205ZM68.926 7.08C70.3127 7.08 71.55 7.368 72.638 7.944C73.7473 8.52 74.6113 9.37333 75.23 10.504C75.8487 11.6347 76.158 13 76.158 14.6V25H72.542V15.144C72.542 13.5653 72.1473 12.36 71.358 11.528C70.5687 10.6747 69.4913 10.248 68.126 10.248C66.7607 10.248 65.6727 10.6747 64.862 11.528C64.0727 12.36 63.678 13.5653 63.678 15.144V25H60.03V7.368H63.678V9.384C64.2753 8.65867 65.0327 8.09333 65.95 7.688C66.8887 7.28267 67.8807 7.08 68.926 7.08Z" fill="#FFF5E0"/>
</svg>
