<svg width="209" height="36" viewBox="0 0 209 36" fill="none" xmlns="http://www.w3.org/2000/svg">
<path d="M13.734 11.58V24H12.474V14.082L8.046 24H7.128L2.7 14.118V24H1.44V11.58H2.772L7.578 22.344L12.384 11.58H13.734ZM20.1743 24.144C19.2503 24.144 18.4163 23.94 17.6723 23.532C16.9403 23.112 16.3583 22.524 15.9263 21.768C15.5063 21 15.2963 20.106 15.2963 19.086C15.2963 18.066 15.5123 17.178 15.9443 16.422C16.3763 15.654 16.9643 15.066 17.7083 14.658C18.4523 14.238 19.2863 14.028 20.2103 14.028C21.1343 14.028 21.9683 14.238 22.7123 14.658C23.4683 15.066 24.0563 15.654 24.4763 16.422C24.9083 17.178 25.1243 18.066 25.1243 19.086C25.1243 20.094 24.9083 20.982 24.4763 21.75C24.0443 22.518 23.4503 23.112 22.6943 23.532C21.9383 23.94 21.0983 24.144 20.1743 24.144ZM20.1743 23.046C20.8223 23.046 21.4223 22.902 21.9743 22.614C22.5263 22.314 22.9703 21.87 23.3063 21.282C23.6543 20.682 23.8283 19.95 23.8283 19.086C23.8283 18.222 23.6603 17.496 23.3243 16.908C22.9883 16.308 22.5443 15.864 21.9923 15.576C21.4403 15.276 20.8403 15.126 20.1923 15.126C19.5443 15.126 18.9443 15.276 18.3923 15.576C17.8403 15.864 17.3963 16.308 17.0603 16.908C16.7363 17.496 16.5743 18.222 16.5743 19.086C16.5743 19.95 16.7363 20.682 17.0603 21.282C17.3963 21.87 17.8343 22.314 18.3743 22.614C18.9263 22.902 19.5263 23.046 20.1743 23.046ZM26.1252 19.068C26.1252 18.06 26.3292 17.178 26.7372 16.422C27.1452 15.654 27.7032 15.066 28.4112 14.658C29.1312 14.238 29.9412 14.028 30.8412 14.028C31.7052 14.028 32.4852 14.238 33.1812 14.658C33.8772 15.078 34.3872 15.624 34.7112 16.296V10.68H35.9712V24H34.7112V21.804C34.4112 22.488 33.9192 23.052 33.2352 23.496C32.5512 23.928 31.7472 24.144 30.8232 24.144C29.9232 24.144 29.1132 23.934 28.3932 23.514C27.6852 23.094 27.1272 22.5 26.7192 21.732C26.3232 20.964 26.1252 20.076 26.1252 19.068ZM34.7112 19.086C34.7112 18.294 34.5492 17.598 34.2252 16.998C33.9012 16.398 33.4572 15.936 32.8932 15.612C32.3412 15.288 31.7292 15.126 31.0572 15.126C30.3612 15.126 29.7372 15.282 29.1852 15.594C28.6332 15.906 28.1952 16.362 27.8712 16.962C27.5592 17.55 27.4032 18.252 27.4032 19.068C27.4032 19.872 27.5592 20.58 27.8712 21.192C28.1952 21.792 28.6332 22.254 29.1852 22.578C29.7372 22.89 30.3612 23.046 31.0572 23.046C31.7292 23.046 32.3412 22.884 32.8932 22.56C33.4572 22.236 33.9012 21.774 34.2252 21.174C34.5492 20.574 34.7112 19.878 34.7112 19.086ZM46.6417 14.172V24H45.3817V22.272C45.0937 22.884 44.6497 23.352 44.0497 23.676C43.4497 24 42.7777 24.162 42.0337 24.162C40.8577 24.162 39.8977 23.802 39.1537 23.082C38.4097 22.35 38.0377 21.294 38.0377 19.914V14.172H39.2797V19.77C39.2797 20.838 39.5437 21.654 40.0717 22.218C40.6117 22.782 41.3437 23.064 42.2677 23.064C43.2157 23.064 43.9717 22.764 44.5357 22.164C45.0997 21.564 45.3817 20.682 45.3817 19.518V14.172H46.6417ZM50.0583 10.68V24H48.7983V10.68H50.0583ZM61.0836 18.582C61.0836 19.014 61.0716 19.344 61.0476 19.572H52.8936C52.9296 20.316 53.1096 20.952 53.4336 21.48C53.7576 22.008 54.1836 22.41 54.7116 22.686C55.2396 22.95 55.8156 23.082 56.4396 23.082C57.2556 23.082 57.9396 22.884 58.4916 22.488C59.0556 22.092 59.4276 21.558 59.6076 20.886H60.9396C60.6996 21.846 60.1836 22.632 59.3916 23.244C58.6116 23.844 57.6276 24.144 56.4396 24.144C55.5156 24.144 54.6876 23.94 53.9556 23.532C53.2236 23.112 52.6476 22.524 52.2276 21.768C51.8196 21 51.6156 20.106 51.6156 19.086C51.6156 18.066 51.8196 17.172 52.2276 16.404C52.6356 15.636 53.2056 15.048 53.9376 14.64C54.6696 14.232 55.5036 14.028 56.4396 14.028C57.3756 14.028 58.1916 14.232 58.8876 14.64C59.5956 15.048 60.1356 15.6 60.5076 16.296C60.8916 16.98 61.0836 17.742 61.0836 18.582ZM59.8056 18.546C59.8176 17.814 59.6676 17.19 59.3556 16.674C59.0556 16.158 58.6416 15.768 58.1136 15.504C57.5856 15.24 57.0096 15.108 56.3856 15.108C55.4496 15.108 54.6516 15.408 53.9916 16.008C53.3316 16.608 52.9656 17.454 52.8936 18.546H59.8056ZM62.8848 24.09C62.6208 24.09 62.3988 24 62.2188 23.82C62.0508 23.64 61.9668 23.418 61.9668 23.154C61.9668 22.89 62.0508 22.674 62.2188 22.506C62.3988 22.326 62.6208 22.236 62.8848 22.236C63.1368 22.236 63.3468 22.326 63.5148 22.506C63.6948 22.674 63.7848 22.89 63.7848 23.154C63.7848 23.418 63.6948 23.64 63.5148 23.82C63.3468 24 63.1368 24.09 62.8848 24.09ZM62.8848 16.26C62.6208 16.26 62.3988 16.17 62.2188 15.99C62.0508 15.81 61.9668 15.588 61.9668 15.324C61.9668 15.06 62.0508 14.844 62.2188 14.676C62.3988 14.496 62.6208 14.406 62.8848 14.406C63.1368 14.406 63.3468 14.496 63.5148 14.676C63.6948 14.844 63.7848 15.06 63.7848 15.324C63.7848 15.588 63.6948 15.81 63.5148 15.99C63.3468 16.17 63.1368 16.26 62.8848 16.26Z" fill="#141E46"/>
<path d="M70.888 17.624C70.888 15.992 71.264 14.528 72.016 13.232C72.784 11.936 73.816 10.928 75.112 10.208C76.424 9.472 77.856 9.104 79.408 9.104C81.184 9.104 82.76 9.544 84.136 10.424C85.528 11.288 86.536 12.52 87.16 14.12H83.872C83.44 13.24 82.84 12.584 82.072 12.152C81.304 11.72 80.416 11.504 79.408 11.504C78.304 11.504 77.32 11.752 76.456 12.248C75.592 12.744 74.912 13.456 74.416 14.384C73.936 15.312 73.696 16.392 73.696 17.624C73.696 18.856 73.936 19.936 74.416 20.864C74.912 21.792 75.592 22.512 76.456 23.024C77.32 23.52 78.304 23.768 79.408 23.768C80.416 23.768 81.304 23.552 82.072 23.12C82.84 22.688 83.44 22.032 83.872 21.152H87.16C86.536 22.752 85.528 23.984 84.136 24.848C82.76 25.712 81.184 26.144 79.408 26.144C77.84 26.144 76.408 25.784 75.112 25.064C73.816 24.328 72.784 23.312 72.016 22.016C71.264 20.72 70.888 19.256 70.888 17.624ZM99.4585 22.592H92.4745L91.2745 26H88.4185L94.3945 9.296H97.5625L103.539 26H100.659L99.4585 22.592ZM98.6905 20.36L95.9785 12.608L93.2425 20.36H98.6905ZM115.953 9.32V11.552H111.513V26H108.777V11.552H104.313V9.32H115.953ZM120.5 11.528V16.424H126.26V18.656H120.5V23.768H126.98V26H117.764V9.296H126.98V11.528H120.5ZM141.462 14.12C141.03 13.288 140.43 12.664 139.662 12.248C138.894 11.816 138.006 11.6 136.998 11.6C135.894 11.6 134.91 11.848 134.046 12.344C133.182 12.84 132.502 13.544 132.006 14.456C131.526 15.368 131.286 16.424 131.286 17.624C131.286 18.824 131.526 19.888 132.006 20.816C132.502 21.728 133.182 22.432 134.046 22.928C134.91 23.424 135.894 23.672 136.998 23.672C138.486 23.672 139.694 23.256 140.622 22.424C141.55 21.592 142.118 20.464 142.326 19.04H136.062V16.856H145.254V18.992C145.078 20.288 144.614 21.48 143.862 22.568C143.126 23.656 142.158 24.528 140.958 25.184C139.774 25.824 138.454 26.144 136.998 26.144C135.43 26.144 133.998 25.784 132.702 25.064C131.406 24.328 130.374 23.312 129.606 22.016C128.854 20.72 128.478 19.256 128.478 17.624C128.478 15.992 128.854 14.528 129.606 13.232C130.374 11.936 131.406 10.928 132.702 10.208C134.014 9.472 135.446 9.104 136.998 9.104C138.774 9.104 140.35 9.544 141.726 10.424C143.118 11.288 144.126 12.52 144.75 14.12H141.462ZM154.6 26.168C153.048 26.168 151.616 25.808 150.304 25.088C149.008 24.352 147.976 23.336 147.208 22.04C146.456 20.728 146.08 19.256 146.08 17.624C146.08 15.992 146.456 14.528 147.208 13.232C147.976 11.936 149.008 10.928 150.304 10.208C151.616 9.472 153.048 9.104 154.6 9.104C156.168 9.104 157.6 9.472 158.896 10.208C160.208 10.928 161.24 11.936 161.992 13.232C162.744 14.528 163.12 15.992 163.12 17.624C163.12 19.256 162.744 20.728 161.992 22.04C161.24 23.336 160.208 24.352 158.896 25.088C157.6 25.808 156.168 26.168 154.6 26.168ZM154.6 23.792C155.704 23.792 156.688 23.544 157.552 23.048C158.416 22.536 159.088 21.816 159.568 20.888C160.064 19.944 160.312 18.856 160.312 17.624C160.312 16.392 160.064 15.312 159.568 14.384C159.088 13.456 158.416 12.744 157.552 12.248C156.688 11.752 155.704 11.504 154.6 11.504C153.496 11.504 152.512 11.752 151.648 12.248C150.784 12.744 150.104 13.456 149.608 14.384C149.128 15.312 148.888 16.392 148.888 17.624C148.888 18.856 149.128 19.944 149.608 20.888C150.104 21.816 150.784 22.536 151.648 23.048C152.512 23.544 153.496 23.792 154.6 23.792ZM173.516 26L169.676 19.328H167.588V26H164.852V9.32H170.612C171.892 9.32 172.972 9.544 173.852 9.992C174.748 10.44 175.412 11.04 175.844 11.792C176.292 12.544 176.516 13.384 176.516 14.312C176.516 15.4 176.196 16.392 175.556 17.288C174.932 18.168 173.964 18.768 172.652 19.088L176.78 26H173.516ZM167.588 17.144H170.612C171.636 17.144 172.404 16.888 172.916 16.376C173.444 15.864 173.708 15.176 173.708 14.312C173.708 13.448 173.452 12.776 172.94 12.296C172.428 11.8 171.652 11.552 170.612 11.552H167.588V17.144ZM181.793 9.32V26H179.057V9.32H181.793ZM187.161 11.528V16.424H192.921V18.656H187.161V23.768H193.641V26H184.425V9.296H193.641V11.528H187.161ZM201.547 26.168C200.427 26.168 199.419 25.976 198.523 25.592C197.627 25.192 196.923 24.632 196.411 23.912C195.899 23.192 195.643 22.352 195.643 21.392H198.571C198.635 22.112 198.915 22.704 199.411 23.168C199.923 23.632 200.635 23.864 201.547 23.864C202.491 23.864 203.227 23.64 203.755 23.192C204.283 22.728 204.547 22.136 204.547 21.416C204.547 20.856 204.379 20.4 204.043 20.048C203.723 19.696 203.315 19.424 202.819 19.232C202.339 19.04 201.667 18.832 200.803 18.608C199.715 18.32 198.827 18.032 198.139 17.744C197.467 17.44 196.891 16.976 196.411 16.352C195.931 15.728 195.691 14.896 195.691 13.856C195.691 12.896 195.931 12.056 196.411 11.336C196.891 10.616 197.563 10.064 198.427 9.68C199.291 9.296 200.291 9.104 201.427 9.104C203.043 9.104 204.363 9.512 205.387 10.328C206.427 11.128 207.003 12.232 207.115 13.64H204.091C204.043 13.032 203.755 12.512 203.227 12.08C202.699 11.648 202.003 11.432 201.139 11.432C200.355 11.432 199.715 11.632 199.219 12.032C198.723 12.432 198.475 13.008 198.475 13.76C198.475 14.272 198.627 14.696 198.931 15.032C199.251 15.352 199.651 15.608 200.131 15.8C200.611 15.992 201.267 16.2 202.099 16.424C203.203 16.728 204.099 17.032 204.787 17.336C205.491 17.64 206.083 18.112 206.563 18.752C207.059 19.376 207.307 20.216 207.307 21.272C207.307 22.12 207.075 22.92 206.611 23.672C206.163 24.424 205.499 25.032 204.619 25.496C203.755 25.944 202.731 26.168 201.547 26.168Z" fill="#141E46"/>
</svg>
