<svg width="140" height="34" viewBox="0 0 140 34" fill="none" xmlns="http://www.w3.org/2000/svg">
<path d="M23.824 2.76V25H20.176V9.768L13.392 25H10.864L4.048 9.768V25H0.4V2.76H4.336L12.144 20.2L19.92 2.76H23.824ZM43.2108 7.368L32.3947 33.288H28.6187L32.2027 24.712L25.2587 7.368H29.3227L34.2828 20.808L39.4347 7.368H43.2108ZM67.2683 9.384C67.2683 10.5147 67.0016 11.5813 66.4683 12.584C65.9349 13.5867 65.0816 14.408 63.9083 15.048C62.7349 15.6667 61.2309 15.976 59.3963 15.976H55.3643V25H51.7162V2.76H59.3963C61.1029 2.76 62.5429 3.05866 63.7163 3.656C64.9109 4.232 65.7963 5.02133 66.3723 6.024C66.9696 7.02667 67.2683 8.14667 67.2683 9.384ZM59.3963 13C60.7829 13 61.8176 12.6907 62.5003 12.072C63.1829 11.432 63.5243 10.536 63.5243 9.384C63.5243 6.952 62.1483 5.736 59.3963 5.736H55.3643V13H59.3963ZM73.1155 9.928C73.6488 9.032 74.3528 8.33867 75.2275 7.848C76.1235 7.336 77.1795 7.08 78.3955 7.08V10.856H77.4675C76.0382 10.856 74.9502 11.2187 74.2035 11.944C73.4782 12.6693 73.1155 13.928 73.1155 15.72V25H69.4675V7.368H73.1155V9.928ZM88.1167 25.288C86.4527 25.288 84.9487 24.9147 83.6047 24.168C82.2607 23.4 81.2047 22.3333 80.4367 20.968C79.6687 19.5813 79.2847 17.9813 79.2847 16.168C79.2847 14.376 79.6794 12.7867 80.4687 11.4C81.2581 10.0133 82.3354 8.94667 83.7007 8.2C85.0661 7.45333 86.5914 7.08 88.2767 7.08C89.9621 7.08 91.4874 7.45333 92.8527 8.2C94.2181 8.94667 95.2954 10.0133 96.0847 11.4C96.8741 12.7867 97.2687 14.376 97.2687 16.168C97.2687 17.96 96.8634 19.5493 96.0527 20.936C95.2421 22.3227 94.1327 23.4 92.7247 24.168C91.3381 24.9147 89.8021 25.288 88.1167 25.288ZM88.1167 22.12C89.0554 22.12 89.9301 21.896 90.7407 21.448C91.5727 21 92.2447 20.328 92.7567 19.432C93.2687 18.536 93.5247 17.448 93.5247 16.168C93.5247 14.888 93.2794 13.8107 92.7887 12.936C92.2981 12.04 91.6474 11.368 90.8367 10.92C90.0261 10.472 89.1514 10.248 88.2127 10.248C87.2741 10.248 86.3994 10.472 85.5887 10.92C84.7994 11.368 84.1701 12.04 83.7007 12.936C83.2314 13.8107 82.9967 14.888 82.9967 16.168C82.9967 18.0667 83.4767 19.5387 84.4367 20.584C85.4181 21.608 86.6447 22.12 88.1167 22.12ZM106.987 10.344H103.723V25H100.043V10.344H97.963V7.368H100.043V6.12C100.043 4.09333 100.576 2.62133 101.643 1.704C102.731 0.765333 104.427 0.296 106.731 0.296V3.336C105.622 3.336 104.843 3.54933 104.395 3.976C103.947 4.38133 103.723 5.096 103.723 6.12V7.368H106.987V10.344ZM110.796 5.032C110.135 5.032 109.58 4.808 109.132 4.36C108.684 3.912 108.46 3.35733 108.46 2.696C108.46 2.03467 108.684 1.48 109.132 1.032C109.58 0.583999 110.135 0.359999 110.796 0.359999C111.436 0.359999 111.98 0.583999 112.428 1.032C112.876 1.48 113.1 2.03467 113.1 2.696C113.1 3.35733 112.876 3.912 112.428 4.36C111.98 4.808 111.436 5.032 110.796 5.032ZM112.588 7.368V25H108.94V7.368H112.588ZM119.746 1.32V25H116.098V1.32H119.746ZM139.415 15.752C139.415 16.4133 139.372 17.0107 139.287 17.544H125.815C125.922 18.952 126.444 20.0827 127.383 20.936C128.322 21.7893 129.474 22.216 130.839 22.216C132.802 22.216 134.188 21.3947 134.999 19.752H138.935C138.402 21.3733 137.431 22.7067 136.023 23.752C134.636 24.776 132.908 25.288 130.839 25.288C129.154 25.288 127.639 24.9147 126.295 24.168C124.972 23.4 123.927 22.3333 123.159 20.968C122.412 19.5813 122.039 17.9813 122.039 16.168C122.039 14.3547 122.402 12.7653 123.127 11.4C123.874 10.0133 124.908 8.94667 126.231 8.2C127.575 7.45333 129.111 7.08 130.839 7.08C132.503 7.08 133.986 7.44267 135.287 8.168C136.588 8.89333 137.602 9.91733 138.327 11.24C139.052 12.5413 139.415 14.0453 139.415 15.752ZM135.607 14.6C135.586 13.256 135.106 12.1787 134.167 11.368C133.228 10.5573 132.066 10.152 130.679 10.152C129.42 10.152 128.343 10.5573 127.447 11.368C126.551 12.1573 126.018 13.2347 125.847 14.6H135.607Z" fill="#FFF5E0"/>
</svg>
