<svg width="50" height="50" viewBox="0 0 50 50" fill="none" xmlns="http://www.w3.org/2000/svg">
<path d="M32.0521 26.0417L32.0521 23.9167L21.8187 23.9167L26.1937 19.5417L24.7604 18.1083L17.9083 24.9604L24.7604 31.85L26.1937 30.4167L21.8187 26.0417L32.0521 26.0417ZM43.75 24.9937C43.75 27.5854 43.2583 30.0229 42.275 32.3062C41.2903 34.5882 39.9542 36.5736 38.2667 38.2625C36.5806 39.9514 34.5972 41.2882 32.3167 42.2729C30.0361 43.2576 27.5993 43.75 25.0063 43.75C22.4146 43.75 19.9771 43.2583 17.6937 42.275C15.4118 41.2903 13.4264 39.9542 11.7375 38.2667C10.0486 36.5806 8.71181 34.5972 7.72708 32.3167C6.74236 30.0361 6.25 27.5993 6.25 25.0063C6.25 22.4146 6.74167 19.9771 7.725 17.6938C8.70972 15.4118 10.0458 13.4264 11.7333 11.7375C13.4194 10.0486 15.4028 8.71181 17.6833 7.72708C19.9639 6.74236 22.4007 6.25 24.9937 6.25C27.5854 6.25 30.0229 6.74167 32.3062 7.725C34.5882 8.70972 36.5736 10.0458 38.2625 11.7333C39.9514 13.4194 41.2882 15.4028 42.2729 17.6833C43.2576 19.9639 43.75 22.4007 43.75 24.9937Z" fill="#FFF5E0"/>
</svg>
