<svg width="57" height="13" viewBox="0 0 57 13" fill="none" xmlns="http://www.w3.org/2000/svg">
<path d="M0.16 11.12C2.38933 9.65867 4.144 8.34667 5.424 7.184C6.704 6.01067 7.44 4.87467 7.632 3.776C7.67467 3.49867 7.696 3.29067 7.696 3.152C7.696 2.61867 7.536 2.192 7.216 1.872C6.90667 1.552 6.4 1.392 5.696 1.392C4.88533 1.392 4.21333 1.648 3.68 2.16C3.14667 2.66133 2.784 3.328 2.592 4.16H1.504C1.77067 2.976 2.29333 2.05867 3.072 1.408C3.86133 0.757332 4.79467 0.431999 5.872 0.431999C6.77867 0.431999 7.49333 0.655999 8.016 1.104C8.54933 1.54133 8.816 2.17067 8.816 2.992C8.816 3.25867 8.79467 3.504 8.752 3.728C8.528 4.99733 7.776 6.23467 6.496 7.44C5.216 8.63467 3.69067 9.81333 1.92 10.976H7.824L7.664 11.92H0.016L0.16 11.12ZM9.78025 6.24C10.1002 4.416 10.6282 2.99733 11.3642 1.984C12.1109 0.970666 13.2149 0.464 14.6762 0.464C15.7856 0.464 16.5803 0.768 17.0603 1.376C17.5509 1.984 17.7963 2.83733 17.7963 3.936C17.7963 4.56533 17.7163 5.33333 17.5562 6.24C17.2362 8.064 16.7029 9.488 15.9563 10.512C15.2096 11.5253 14.1056 12.032 12.6442 12.032C11.5349 12.032 10.7402 11.7333 10.2602 11.136C9.78025 10.528 9.54025 9.67467 9.54025 8.576C9.54025 7.94667 9.62025 7.168 9.78025 6.24ZM16.4523 6.24C16.6123 5.35467 16.6923 4.61867 16.6923 4.032C16.6923 3.22133 16.5216 2.59733 16.1803 2.16C15.8496 1.712 15.2896 1.488 14.5002 1.488C13.7322 1.488 13.1082 1.696 12.6282 2.112C12.1482 2.51733 11.7802 3.06133 11.5242 3.744C11.2682 4.42667 11.0549 5.25867 10.8842 6.24C10.7136 7.21067 10.6282 7.96267 10.6282 8.496C10.6282 9.296 10.7936 9.91467 11.1242 10.352C11.4549 10.7893 12.0202 11.008 12.8203 11.008C13.5883 11.008 14.2122 10.8053 14.6922 10.4C15.1722 9.984 15.5402 9.43467 15.7962 8.752C16.0523 8.06933 16.2709 7.232 16.4523 6.24ZM24.6464 5.008C24.9984 4.4 25.457 3.93067 26.0224 3.6C26.5877 3.26933 27.2437 3.104 27.9904 3.104L27.7824 4.272H27.4624C26.6944 4.272 26.033 4.46933 25.4784 4.864C24.9237 5.25867 24.5397 5.90933 24.3264 6.816L23.4144 12H22.2944L23.8304 3.264H24.9504L24.6464 5.008ZM31.2913 12.128C30.5659 12.128 29.9259 11.984 29.3713 11.696C28.8166 11.3973 28.3846 10.9813 28.0753 10.448C27.7766 9.904 27.6273 9.26933 27.6273 8.544C27.6273 7.56267 27.8513 6.66133 28.2993 5.84C28.7473 5.008 29.3713 4.352 30.1713 3.872C30.9713 3.38133 31.8619 3.136 32.8433 3.136C33.5686 3.136 34.2086 3.28533 34.7633 3.584C35.3179 3.872 35.7499 4.288 36.0593 4.832C36.3686 5.36533 36.5233 5.99467 36.5233 6.72C36.5233 7.712 36.2939 8.61867 35.8353 9.44C35.3766 10.2613 34.7473 10.9173 33.9473 11.408C33.1579 11.888 32.2726 12.128 31.2913 12.128ZM31.4193 11.184C32.1766 11.184 32.8539 10.9813 33.4513 10.576C34.0593 10.1707 34.5286 9.632 34.8593 8.96C35.2006 8.288 35.3713 7.56267 35.3713 6.784C35.3713 5.90933 35.1153 5.24267 34.6033 4.784C34.1019 4.32533 33.4619 4.096 32.6833 4.096C31.9259 4.096 31.2486 4.29867 30.6513 4.704C30.0646 5.10933 29.6059 5.648 29.2753 6.32C28.9446 6.992 28.7793 7.71733 28.7793 8.496C28.7793 9.36 29.0299 10.0267 29.5313 10.496C30.0326 10.9547 30.6619 11.184 31.4193 11.184ZM50.1329 3.264L45.8609 12H44.7409L43.6209 4.688L39.8929 12H38.7729L37.5729 3.264H38.7249L39.5729 10.816L43.3329 3.264H44.4689L45.5409 10.832L49.0289 3.264H50.1329ZM52.3958 12.128C51.5104 12.128 50.7904 11.9253 50.2357 11.52C49.6811 11.104 49.4037 10.5387 49.4037 9.824C49.4037 9.696 49.4091 9.6 49.4197 9.536H50.5077C50.4651 10.048 50.6144 10.4587 50.9557 10.768C51.2971 11.0773 51.7984 11.232 52.4597 11.232C53.1318 11.232 53.6704 11.0933 54.0757 10.816C54.4811 10.528 54.6838 10.1493 54.6838 9.68C54.6838 9.40267 54.5984 9.168 54.4278 8.976C54.2571 8.784 54.0438 8.62933 53.7878 8.512C53.5424 8.384 53.1958 8.24 52.7478 8.08C52.1931 7.87733 51.7451 7.69067 51.4037 7.52C51.0731 7.33867 50.7851 7.09333 50.5397 6.784C50.3051 6.464 50.1877 6.064 50.1877 5.584C50.1877 5.104 50.3264 4.67733 50.6037 4.304C50.8811 3.93067 51.2597 3.64267 51.7397 3.44C52.2304 3.23733 52.7851 3.136 53.4037 3.136C54.2677 3.136 54.9717 3.34933 55.5157 3.776C56.0704 4.20267 56.3478 4.768 56.3478 5.472C56.3478 5.62133 56.3424 5.73333 56.3318 5.808H55.2758C55.2864 5.76533 55.2917 5.696 55.2917 5.6C55.2917 5.13067 55.1051 4.752 54.7318 4.464C54.3691 4.176 53.8997 4.032 53.3238 4.032C52.7477 4.032 52.2677 4.17067 51.8837 4.448C51.5104 4.71467 51.3238 5.07733 51.3238 5.536C51.3238 5.84533 51.4144 6.10667 51.5957 6.32C51.7771 6.52267 52.0011 6.688 52.2678 6.816C52.5344 6.944 52.8918 7.09333 53.3398 7.264C53.8731 7.46667 54.2998 7.65333 54.6198 7.824C54.9504 7.99467 55.2278 8.22933 55.4518 8.528C55.6758 8.82667 55.7878 9.2 55.7878 9.648C55.7878 10.4053 55.4731 11.008 54.8438 11.456C54.2144 11.904 53.3984 12.128 52.3958 12.128Z" fill="#141E46"/>
</svg>
