<svg width="57" height="13" viewBox="0 0 57 13" fill="none" xmlns="http://www.w3.org/2000/svg">
<path d="M0.224 9.28L0.368 8.432L7.584 0.591999H8.912L7.552 8.304H9.264L9.088 9.28H7.376L6.896 12H5.792L6.272 9.28H0.224ZM7.632 1.824L1.696 8.304H6.496L7.632 1.824ZM10.4365 6.24C10.7565 4.416 11.2845 2.99733 12.0205 1.984C12.7672 0.970666 13.8712 0.464 15.3325 0.464C16.4418 0.464 17.2365 0.768 17.7165 1.376C18.2072 1.984 18.4525 2.83733 18.4525 3.936C18.4525 4.56533 18.3725 5.33333 18.2125 6.24C17.8925 8.064 17.3592 9.488 16.6125 10.512C15.8658 11.5253 14.7618 12.032 13.3005 12.032C12.1912 12.032 11.3965 11.7333 10.9165 11.136C10.4365 10.528 10.1965 9.67467 10.1965 8.576C10.1965 7.94667 10.2765 7.168 10.4365 6.24ZM17.1085 6.24C17.2685 5.35467 17.3485 4.61867 17.3485 4.032C17.3485 3.22133 17.1778 2.59733 16.8365 2.16C16.5058 1.712 15.9458 1.488 15.1565 1.488C14.3885 1.488 13.7645 1.696 13.2845 2.112C12.8045 2.51733 12.4365 3.06133 12.1805 3.744C11.9245 4.42667 11.7112 5.25867 11.5405 6.24C11.3698 7.21067 11.2845 7.96267 11.2845 8.496C11.2845 9.296 11.4498 9.91467 11.7805 10.352C12.1112 10.7893 12.6765 11.008 13.4765 11.008C14.2445 11.008 14.8685 10.8053 15.3485 10.4C15.8285 9.984 16.1965 9.43467 16.4525 8.752C16.7085 8.06933 16.9272 7.232 17.1085 6.24ZM25.3026 5.008C25.6546 4.4 26.1133 3.93067 26.6786 3.6C27.244 3.26933 27.9 3.104 28.6466 3.104L28.4386 4.272H28.1186C27.3506 4.272 26.6893 4.46933 26.1346 4.864C25.58 5.25867 25.196 5.90933 24.9826 6.816L24.0706 12H22.9506L24.4866 3.264H25.6066L25.3026 5.008ZM31.9475 12.128C31.2222 12.128 30.5822 11.984 30.0275 11.696C29.4728 11.3973 29.0408 10.9813 28.7315 10.448C28.4328 9.904 28.2835 9.26933 28.2835 8.544C28.2835 7.56267 28.5075 6.66133 28.9555 5.84C29.4035 5.008 30.0275 4.352 30.8275 3.872C31.6275 3.38133 32.5182 3.136 33.4995 3.136C34.2248 3.136 34.8648 3.28533 35.4195 3.584C35.9742 3.872 36.4062 4.288 36.7155 4.832C37.0248 5.36533 37.1795 5.99467 37.1795 6.72C37.1795 7.712 36.9502 8.61867 36.4915 9.44C36.0328 10.2613 35.4035 10.9173 34.6035 11.408C33.8142 11.888 32.9288 12.128 31.9475 12.128ZM32.0755 11.184C32.8328 11.184 33.5102 10.9813 34.1075 10.576C34.7155 10.1707 35.1848 9.632 35.5155 8.96C35.8568 8.288 36.0275 7.56267 36.0275 6.784C36.0275 5.90933 35.7715 5.24267 35.2595 4.784C34.7582 4.32533 34.1182 4.096 33.3395 4.096C32.5822 4.096 31.9048 4.29867 31.3075 4.704C30.7208 5.10933 30.2622 5.648 29.9315 6.32C29.6008 6.992 29.4355 7.71733 29.4355 8.496C29.4355 9.36 29.6862 10.0267 30.1875 10.496C30.6888 10.9547 31.3182 11.184 32.0755 11.184ZM50.7891 3.264L46.5171 12H45.3971L44.2771 4.688L40.5491 12H39.4291L38.2291 3.264H39.3811L40.2291 10.816L43.9891 3.264H45.1251L46.1971 10.832L49.6851 3.264H50.7891ZM53.052 12.128C52.1667 12.128 51.4467 11.9253 50.892 11.52C50.3373 11.104 50.06 10.5387 50.06 9.824C50.06 9.696 50.0653 9.6 50.076 9.536H51.164C51.1213 10.048 51.2707 10.4587 51.612 10.768C51.9533 11.0773 52.4547 11.232 53.116 11.232C53.788 11.232 54.3267 11.0933 54.732 10.816C55.1373 10.528 55.34 10.1493 55.34 9.68C55.34 9.40267 55.2547 9.168 55.084 8.976C54.9133 8.784 54.7 8.62933 54.444 8.512C54.1987 8.384 53.852 8.24 53.404 8.08C52.8493 7.87733 52.4013 7.69067 52.06 7.52C51.7293 7.33867 51.4413 7.09333 51.196 6.784C50.9613 6.464 50.844 6.064 50.844 5.584C50.844 5.104 50.9827 4.67733 51.26 4.304C51.5373 3.93067 51.916 3.64267 52.396 3.44C52.8867 3.23733 53.4413 3.136 54.06 3.136C54.924 3.136 55.628 3.34933 56.172 3.776C56.7267 4.20267 57.004 4.768 57.004 5.472C57.004 5.62133 56.9987 5.73333 56.988 5.808H55.932C55.9427 5.76533 55.948 5.696 55.948 5.6C55.948 5.13067 55.7613 4.752 55.388 4.464C55.0253 4.176 54.556 4.032 53.98 4.032C53.404 4.032 52.924 4.17067 52.54 4.448C52.1667 4.71467 51.98 5.07733 51.98 5.536C51.98 5.84533 52.0707 6.10667 52.252 6.32C52.4333 6.52267 52.6573 6.688 52.924 6.816C53.1907 6.944 53.548 7.09333 53.996 7.264C54.5293 7.46667 54.956 7.65333 55.276 7.824C55.6067 7.99467 55.884 8.22933 56.108 8.528C56.332 8.82667 56.444 9.2 56.444 9.648C56.444 10.4053 56.1293 11.008 55.5 11.456C54.8707 11.904 54.0547 12.128 53.052 12.128Z" fill="#141E46"/>
</svg>
