<svg width="55" height="15" viewBox="0 0 55 15" fill="none" xmlns="http://www.w3.org/2000/svg">
<path d="M8.802 11.21H3.33L2.322 14H0.594L5.13 1.526H7.02L11.538 14H9.81L8.802 11.21ZM8.334 9.878L6.066 3.542L3.798 9.878H8.334ZM12.1829 9.032C12.1829 8.024 12.3869 7.142 12.7949 6.386C13.2029 5.618 13.7609 5.024 14.4689 4.604C15.1889 4.184 15.9929 3.974 16.8809 3.974C17.6489 3.974 18.3629 4.154 19.0229 4.514C19.6829 4.862 20.1869 5.324 20.5349 5.9V0.68H22.1909V14H20.5349V12.146C20.2109 12.734 19.7309 13.22 19.0949 13.604C18.4589 13.976 17.7149 14.162 16.8629 14.162C15.9869 14.162 15.1889 13.946 14.4689 13.514C13.7609 13.082 13.2029 12.476 12.7949 11.696C12.3869 10.916 12.1829 10.028 12.1829 9.032ZM20.5349 9.05C20.5349 8.306 20.3849 7.658 20.0849 7.106C19.7849 6.554 19.3769 6.134 18.8609 5.846C18.3569 5.546 17.7989 5.396 17.1869 5.396C16.5749 5.396 16.0169 5.54 15.5129 5.828C15.0089 6.116 14.6069 6.536 14.3069 7.088C14.0069 7.64 13.8569 8.288 13.8569 9.032C13.8569 9.788 14.0069 10.448 14.3069 11.012C14.6069 11.564 15.0089 11.99 15.5129 12.29C16.0169 12.578 16.5749 12.722 17.1869 12.722C17.7989 12.722 18.3569 12.578 18.8609 12.29C19.3769 11.99 19.7849 11.564 20.0849 11.012C20.3849 10.448 20.5349 9.794 20.5349 9.05ZM36.101 3.956C36.869 3.956 37.553 4.118 38.153 4.442C38.753 4.754 39.227 5.228 39.575 5.864C39.923 6.5 40.097 7.274 40.097 8.186V14H38.477V8.42C38.477 7.436 38.231 6.686 37.739 6.17C37.259 5.642 36.605 5.378 35.777 5.378C34.925 5.378 34.247 5.654 33.743 6.206C33.239 6.746 32.987 7.532 32.987 8.564V14H31.367V8.42C31.367 7.436 31.121 6.686 30.629 6.17C30.149 5.642 29.495 5.378 28.667 5.378C27.815 5.378 27.137 5.654 26.633 6.206C26.129 6.746 25.877 7.532 25.877 8.564V14H24.239V4.136H25.877V5.558C26.201 5.042 26.633 4.646 27.173 4.37C27.725 4.094 28.331 3.956 28.991 3.956C29.819 3.956 30.551 4.142 31.187 4.514C31.823 4.886 32.297 5.432 32.609 6.152C32.885 5.456 33.341 4.916 33.977 4.532C34.613 4.148 35.321 3.956 36.101 3.956ZM42.9099 2.534C42.5979 2.534 42.3339 2.426 42.1179 2.21C41.9019 1.994 41.7939 1.73 41.7939 1.418C41.7939 1.106 41.9019 0.842 42.1179 0.625999C42.3339 0.409999 42.5979 0.301999 42.9099 0.301999C43.2099 0.301999 43.4619 0.409999 43.6659 0.625999C43.8819 0.842 43.9899 1.106 43.9899 1.418C43.9899 1.73 43.8819 1.994 43.6659 2.21C43.4619 2.426 43.2099 2.534 42.9099 2.534ZM43.7019 4.136V14H42.0639V4.136H43.7019ZM50.5796 3.956C51.7796 3.956 52.7516 4.322 53.4956 5.054C54.2396 5.774 54.6116 6.818 54.6116 8.186V14H52.9916V8.42C52.9916 7.436 52.7456 6.686 52.2536 6.17C51.7616 5.642 51.0896 5.378 50.2376 5.378C49.3736 5.378 48.6836 5.648 48.1676 6.188C47.6636 6.728 47.4116 7.514 47.4116 8.546V14H45.7736V4.136H47.4116V5.54C47.7356 5.036 48.1736 4.646 48.7256 4.37C49.2896 4.094 49.9076 3.956 50.5796 3.956Z" fill="#141E46"/>
</svg>
