<svg width="38" height="45" viewBox="0 0 38 45" fill="none" xmlns="http://www.w3.org/2000/svg">
<path d="M19.8682 17.6069V5.69687C19.8682 5.69687 19.1747 4.20187 18.2849 5.69687V17.6062" fill="#9B9B9A"/>
<path d="M19.8682 17.6069V5.69687C19.8682 5.69687 19.1747 4.20187 18.2849 5.69687V17.6062" stroke="#9B9B9A" stroke-width="2" stroke-miterlimit="10"/>
<path d="M18.9757 33.6662H24.4899C24.8478 33.6662 25.1681 33.9075 25.3397 34.2794C27.1647 38.2431 29.6057 39.1806 30.2691 39.3287C30.3551 39.3475 30.4385 39.3644 30.5256 39.3675C38.1277 39.6331 34.2707 27.765 34.2707 27.765C33.1708 23.9587 30.5161 19.4894 29.6221 18.4587C29.4384 18.2462 29.1946 18.1275 28.9375 18.1275H9.06353C8.8065 18.1275 8.56267 18.2462 8.379 18.4587C7.48495 19.4894 4.83022 23.9587 3.73034 27.765C3.73034 27.765 -0.126663 39.6337 7.47545 39.3675C7.5617 39.3629 7.64748 39.3499 7.73195 39.3287C8.39536 39.1806 10.8363 38.2431 12.6614 34.28C12.8329 33.9075 13.1533 33.6662 13.5111 33.6662H19.0243" fill="#9B9B9A"/>
<path d="M18.9757 33.6663H24.4899C24.8478 33.6663 25.1681 33.9075 25.3397 34.2794C27.1647 38.2431 29.6057 39.1806 30.2691 39.3288C30.3551 39.3475 30.4385 39.3644 30.5256 39.3675C38.1277 39.6331 34.2707 27.765 34.2707 27.765C33.1708 23.9588 30.5161 19.4894 29.6221 18.4588C29.4384 18.2463 29.1946 18.1275 28.9375 18.1275H9.06353C8.8065 18.1275 8.56267 18.2463 8.379 18.4588C7.48495 19.4894 4.83022 23.9588 3.73034 27.765C3.73034 27.765 -0.126664 39.6338 7.47545 39.3675C7.5617 39.3629 7.64748 39.3499 7.73195 39.3288C8.39536 39.1806 10.8363 38.2431 12.6614 34.28C12.8329 33.9075 13.1533 33.6663 13.5111 33.6663H19.0243" stroke="black" stroke-width="2" stroke-miterlimit="10"/>
<path d="M25.3275 23.985V24.4913H30.2697V23.985H27.607H25.3275Z" fill="black" stroke="black" stroke-width="2" stroke-miterlimit="10" stroke-linecap="round" stroke-linejoin="round"/>
<path d="M28.0123 21.3119H27.5848V27.1638H28.0123V24.0106V21.3119Z" fill="black" stroke="black" stroke-width="2" stroke-miterlimit="10" stroke-linecap="round" stroke-linejoin="round"/>
<path d="M22.0347 31.25C20.8688 31.25 19.9236 30.1307 19.9236 28.75C19.9236 27.3693 20.8688 26.25 22.0347 26.25C23.2007 26.25 24.1458 27.3693 24.1458 28.75C24.1458 30.1307 23.2007 31.25 22.0347 31.25Z" fill="black"/>
<path d="M15.9653 31.25C14.7993 31.25 13.8542 30.1307 13.8542 28.75C13.8542 27.3693 14.7993 26.25 15.9653 26.25C17.1312 26.25 18.0764 27.3693 18.0764 28.75C18.0764 30.1307 17.1312 31.25 15.9653 31.25Z" fill="black"/>
<path d="M12.3437 25.4881C11.7607 25.4881 11.2881 24.9285 11.2881 24.2381C11.2881 23.5478 11.7607 22.9881 12.3437 22.9881C12.9266 22.9881 13.3992 23.5478 13.3992 24.2381C13.3992 24.9285 12.9266 25.4881 12.3437 25.4881Z" fill="black"/>
<path d="M7.87392 25.4881C7.29095 25.4881 6.81836 24.9285 6.81836 24.2381C6.81836 23.5478 7.29095 22.9881 7.87392 22.9881C8.45689 22.9881 8.92947 23.5478 8.92947 24.2381C8.92947 24.9285 8.45689 25.4881 7.87392 25.4881Z" fill="black"/>
<path d="M10.1085 27.835C9.52557 27.835 9.05298 27.2753 9.05298 26.585C9.05298 25.8946 9.52557 25.335 10.1085 25.335C10.6915 25.335 11.1641 25.8946 11.1641 26.585C11.1641 27.2753 10.6915 27.835 10.1085 27.835Z" fill="black"/>
<path d="M10.1085 23.1669C9.52557 23.1669 9.05298 22.6072 9.05298 21.9169C9.05298 21.2265 9.52557 20.6669 10.1085 20.6669C10.6915 20.6669 11.1641 21.2265 11.1641 21.9169C11.1641 22.6072 10.6915 23.1669 10.1085 23.1669Z" fill="black"/>
<path d="M19.8682 15.6769V4.41063C19.8682 4.41063 19.6017 3.86688 19.1874 3.79126C18.933 3.74438 18.6226 3.87313 18.2849 4.41063V15.6769" stroke="black" stroke-width="2" stroke-miterlimit="10" stroke-linecap="round" stroke-linejoin="round"/>
</svg>
