<svg width="25" height="30" viewBox="0 0 25 30" fill="none" xmlns="http://www.w3.org/2000/svg">
<g clip-path="url(#clip0_67_251)">
<path d="M10.0703 23.79V13.7888H9.08125C8.37363 14.2435 7.6891 14.7481 7.03125 15.3V16.6031C7.61719 16.1212 8.54531 15.4406 8.99687 15.1463H9.01562V23.79H10.0703ZM11.9266 21.3431C12 22.5431 12.8547 23.9794 14.5875 23.9794C16.5531 23.9794 17.7125 21.9806 17.7125 18.5963C17.7125 14.97 16.4922 13.5938 14.6609 13.5938C13.2141 13.5938 11.8531 14.8538 11.8531 16.9856C11.8531 19.1606 13.1406 20.3044 14.4719 20.3044C15.6375 20.3044 16.3938 19.5994 16.6328 18.8231H16.675C16.6687 21.2906 15.9547 22.8806 14.6359 22.8806C13.5984 22.8806 13.0609 22.0369 12.9953 21.3431H11.9266ZM16.5406 16.9987C16.5406 18.3038 15.6672 19.2113 14.6906 19.2113C13.7516 19.2113 12.9031 18.4931 12.9031 16.9612C12.9031 15.4181 13.8125 14.6925 14.7281 14.6925C15.7172 14.6925 16.5406 15.4387 16.5406 16.9987Z" fill="#FFF5E0"/>
<path d="M5.46875 0C5.67595 0 5.87466 0.0987721 6.02118 0.274587C6.16769 0.450403 6.25 0.68886 6.25 0.9375V1.875H18.75V0.9375C18.75 0.68886 18.8323 0.450403 18.9788 0.274587C19.1253 0.0987721 19.324 0 19.5312 0C19.7385 0 19.9372 0.0987721 20.0837 0.274587C20.2302 0.450403 20.3125 0.68886 20.3125 0.9375V1.875H21.875C22.7038 1.875 23.4987 2.27009 24.0847 2.97335C24.6708 3.67661 25 4.63044 25 5.625V26.25C25 27.2446 24.6708 28.1984 24.0847 28.9016C23.4987 29.6049 22.7038 30 21.875 30H3.125C2.2962 30 1.50134 29.6049 0.915291 28.9016C0.32924 28.1984 0 27.2446 0 26.25V5.625C0 4.63044 0.32924 3.67661 0.915291 2.97335C1.50134 2.27009 2.2962 1.875 3.125 1.875H4.6875V0.9375C4.6875 0.68886 4.76981 0.450403 4.91632 0.274587C5.06284 0.0987721 5.26155 0 5.46875 0ZM3.125 3.75C2.7106 3.75 2.31317 3.94754 2.02015 4.29917C1.72712 4.65081 1.5625 5.12772 1.5625 5.625V26.25C1.5625 26.7473 1.72712 27.2242 2.02015 27.5758C2.31317 27.9275 2.7106 28.125 3.125 28.125H21.875C22.2894 28.125 22.6868 27.9275 22.9799 27.5758C23.2729 27.2242 23.4375 26.7473 23.4375 26.25V5.625C23.4375 5.12772 23.2729 4.65081 22.9799 4.29917C22.6868 3.94754 22.2894 3.75 21.875 3.75H3.125Z" fill="#FFF5E0"/>
<path d="M3.90625 7.5C3.90625 7.25136 3.98856 7.0129 4.13507 6.83709C4.28159 6.66127 4.4803 6.5625 4.6875 6.5625H20.3125C20.5197 6.5625 20.7184 6.66127 20.8649 6.83709C21.0114 7.0129 21.0938 7.25136 21.0938 7.5V9.375C21.0938 9.62364 21.0114 9.8621 20.8649 10.0379C20.7184 10.2137 20.5197 10.3125 20.3125 10.3125H4.6875C4.4803 10.3125 4.28159 10.2137 4.13507 10.0379C3.98856 9.8621 3.90625 9.62364 3.90625 9.375V7.5Z" fill="#FFF5E0"/>
</g>
<defs>
<clipPath id="clip0_67_251">
<rect width="25" height="30" fill="white"/>
</clipPath>
</defs>
</svg>
