<svg width="97" height="48" viewBox="0 0 97 48" fill="none" xmlns="http://www.w3.org/2000/svg">
<path d="M3.402 6.68V20H1.35V6.68H3.402ZM9.67809 20.162C8.74209 20.162 7.89609 19.952 7.14009 19.532C6.38409 19.1 5.79009 18.5 5.35809 17.732C4.92609 16.952 4.71009 16.052 4.71009 15.032C4.71009 14.024 4.93209 13.13 5.37609 12.35C5.82009 11.57 6.42609 10.97 7.19409 10.55C7.96209 10.13 8.82009 9.92 9.76809 9.92C10.7161 9.92 11.5741 10.13 12.3421 10.55C13.1101 10.97 13.7161 11.57 14.1601 12.35C14.6041 13.13 14.8261 14.024 14.8261 15.032C14.8261 16.04 14.5981 16.934 14.1421 17.714C13.6861 18.494 13.0621 19.1 12.2701 19.532C11.4901 19.952 10.6261 20.162 9.67809 20.162ZM9.67809 18.38C10.2061 18.38 10.6981 18.254 11.1541 18.002C11.6221 17.75 12.0001 17.372 12.2881 16.868C12.5761 16.364 12.7201 15.752 12.7201 15.032C12.7201 14.312 12.5821 13.706 12.3061 13.214C12.0301 12.71 11.6641 12.332 11.2081 12.08C10.7521 11.828 10.2601 11.702 9.73209 11.702C9.20409 11.702 8.71209 11.828 8.25609 12.08C7.81209 12.332 7.45809 12.71 7.19409 13.214C6.93009 13.706 6.79809 14.312 6.79809 15.032C6.79809 16.1 7.06809 16.928 7.60809 17.516C8.16009 18.092 8.85009 18.38 9.67809 18.38ZM18.1866 11.522C18.4866 11.018 18.8826 10.628 19.3746 10.352C19.8786 10.064 20.4726 9.92 21.1566 9.92V12.044H20.6346C19.8306 12.044 19.2186 12.248 18.7986 12.656C18.3906 13.064 18.1866 13.772 18.1866 14.78V20H16.1346V10.082H18.1866V11.522ZM31.4128 14.798C31.4128 15.17 31.3888 15.506 31.3408 15.806H23.7628C23.8228 16.598 24.1168 17.234 24.6448 17.714C25.1728 18.194 25.8208 18.434 26.5888 18.434C27.6928 18.434 28.4728 17.972 28.9288 17.048H31.1428C30.8428 17.96 30.2968 18.71 29.5048 19.298C28.7248 19.874 27.7528 20.162 26.5888 20.162C25.6408 20.162 24.7888 19.952 24.0328 19.532C23.2888 19.1 22.7008 18.5 22.2688 17.732C21.8488 16.952 21.6388 16.052 21.6388 15.032C21.6388 14.012 21.8428 13.118 22.2508 12.35C22.6708 11.57 23.2528 10.97 23.9968 10.55C24.7528 10.13 25.6168 9.92 26.5888 9.92C27.5248 9.92 28.3588 10.124 29.0908 10.532C29.8228 10.94 30.3928 11.516 30.8008 12.26C31.2088 12.992 31.4128 13.838 31.4128 14.798ZM29.2708 14.15C29.2588 13.394 28.9888 12.788 28.4608 12.332C27.9328 11.876 27.2788 11.648 26.4988 11.648C25.7908 11.648 25.1848 11.876 24.6808 12.332C24.1768 12.776 23.8768 13.382 23.7808 14.15H29.2708ZM35.984 14.996C35.984 14 36.188 13.118 36.596 12.35C37.016 11.582 37.58 10.988 38.288 10.568C39.008 10.136 39.8 9.92 40.664 9.92C41.444 9.92 42.122 10.076 42.698 10.388C43.286 10.688 43.754 11.066 44.102 11.522V10.082H46.172V20H44.102V18.524C43.754 18.992 43.28 19.382 42.68 19.694C42.08 20.006 41.396 20.162 40.628 20.162C39.776 20.162 38.996 19.946 38.288 19.514C37.58 19.07 37.016 18.458 36.596 17.678C36.188 16.886 35.984 15.992 35.984 14.996ZM44.102 15.032C44.102 14.348 43.958 13.754 43.67 13.25C43.394 12.746 43.028 12.362 42.572 12.098C42.116 11.834 41.624 11.702 41.096 11.702C40.568 11.702 40.076 11.834 39.62 12.098C39.164 12.35 38.792 12.728 38.504 13.232C38.228 13.724 38.09 14.312 38.09 14.996C38.09 15.68 38.228 16.28 38.504 16.796C38.792 17.312 39.164 17.708 39.62 17.984C40.088 18.248 40.58 18.38 41.096 18.38C41.624 18.38 42.116 18.248 42.572 17.984C43.028 17.72 43.394 17.336 43.67 16.832C43.958 16.316 44.102 15.716 44.102 15.032ZM52.1432 9.92C52.9112 9.92 53.5892 10.076 54.1772 10.388C54.7772 10.688 55.2452 11.066 55.5812 11.522V10.082H57.6512V20.162C57.6512 21.074 57.4592 21.884 57.0752 22.592C56.6912 23.312 56.1332 23.876 55.4012 24.284C54.6812 24.692 53.8172 24.896 52.8092 24.896C51.4652 24.896 50.3492 24.578 49.4612 23.942C48.5732 23.318 48.0692 22.466 47.9492 21.386H49.9832C50.1392 21.902 50.4692 22.316 50.9732 22.628C51.4892 22.952 52.1012 23.114 52.8092 23.114C53.6372 23.114 54.3032 22.862 54.8072 22.358C55.3232 21.854 55.5812 21.122 55.5812 20.162V18.506C55.2332 18.974 54.7592 19.37 54.1592 19.694C53.5712 20.006 52.8992 20.162 52.1432 20.162C51.2792 20.162 50.4872 19.946 49.7672 19.514C49.0592 19.07 48.4952 18.458 48.0752 17.678C47.6672 16.886 47.4632 15.992 47.4632 14.996C47.4632 14 47.6672 13.118 48.0752 12.35C48.4952 11.582 49.0592 10.988 49.7672 10.568C50.4872 10.136 51.2792 9.92 52.1432 9.92ZM55.5812 15.032C55.5812 14.348 55.4372 13.754 55.1492 13.25C54.8732 12.746 54.5072 12.362 54.0512 12.098C53.5952 11.834 53.1032 11.702 52.5752 11.702C52.0472 11.702 51.5552 11.834 51.0992 12.098C50.6432 12.35 50.2712 12.728 49.9832 13.232C49.7072 13.724 49.5692 14.312 49.5692 14.996C49.5692 15.68 49.7072 16.28 49.9832 16.796C50.2712 17.312 50.6432 17.708 51.0992 17.984C51.5672 18.248 52.0592 18.38 52.5752 18.38C53.1032 18.38 53.5952 18.248 54.0512 17.984C54.5072 17.72 54.8732 17.336 55.1492 16.832C55.4372 16.316 55.5812 15.716 55.5812 15.032ZM68.6084 10.082V20H66.5564V18.83C66.2324 19.238 65.8064 19.562 65.2784 19.802C64.7624 20.03 64.2104 20.144 63.6224 20.144C62.8424 20.144 62.1404 19.982 61.5164 19.658C60.9044 19.334 60.4184 18.854 60.0584 18.218C59.7104 17.582 59.5364 16.814 59.5364 15.914V10.082H61.5704V15.608C61.5704 16.496 61.7924 17.18 62.2364 17.66C62.6804 18.128 63.2864 18.362 64.0544 18.362C64.8224 18.362 65.4284 18.128 65.8724 17.66C66.3284 17.18 66.5564 16.496 66.5564 15.608V10.082H68.6084ZM71.6399 8.768C71.2679 8.768 70.9559 8.642 70.7039 8.39C70.4519 8.138 70.3259 7.826 70.3259 7.454C70.3259 7.082 70.4519 6.77 70.7039 6.518C70.9559 6.266 71.2679 6.14 71.6399 6.14C71.9999 6.14 72.3059 6.266 72.5579 6.518C72.8099 6.77 72.9359 7.082 72.9359 7.454C72.9359 7.826 72.8099 8.138 72.5579 8.39C72.3059 8.642 71.9999 8.768 71.6399 8.768ZM72.6479 10.082V20H70.5959V10.082H72.6479ZM76.6739 11.522C76.974 11.018 77.37 10.628 77.862 10.352C78.366 10.064 78.96 9.92 79.6439 9.92V12.044H79.122C78.318 12.044 77.7059 12.248 77.2859 12.656C76.8779 13.064 76.6739 13.772 76.6739 14.78V20H74.6219V10.082H76.6739V11.522ZM82.8622 11.522C83.1622 11.018 83.5582 10.628 84.0502 10.352C84.5542 10.064 85.1482 9.92 85.8322 9.92V12.044H85.3102C84.5062 12.044 83.8942 12.248 83.4742 12.656C83.0662 13.064 82.8622 13.772 82.8622 14.78V20H80.8102V10.082H82.8622V11.522ZM96.0884 14.798C96.0884 15.17 96.0644 15.506 96.0164 15.806H88.4384C88.4984 16.598 88.7924 17.234 89.3204 17.714C89.8484 18.194 90.4964 18.434 91.2644 18.434C92.3684 18.434 93.1484 17.972 93.6044 17.048H95.8184C95.5184 17.96 94.9724 18.71 94.1804 19.298C93.4004 19.874 92.4284 20.162 91.2644 20.162C90.3164 20.162 89.4644 19.952 88.7084 19.532C87.9644 19.1 87.3764 18.5 86.9444 17.732C86.5244 16.952 86.3144 16.052 86.3144 15.032C86.3144 14.012 86.5184 13.118 86.9264 12.35C87.3464 11.57 87.9284 10.97 88.6724 10.55C89.4284 10.13 90.2924 9.92 91.2644 9.92C92.2004 9.92 93.0344 10.124 93.7664 10.532C94.4984 10.94 95.0684 11.516 95.4764 12.26C95.8844 12.992 96.0884 13.838 96.0884 14.798ZM93.9464 14.15C93.9344 13.394 93.6644 12.788 93.1364 12.332C92.6084 11.876 91.9544 11.648 91.1744 11.648C90.4664 11.648 89.8604 11.876 89.3564 12.332C88.8524 12.776 88.5524 13.382 88.4564 14.15H93.9464Z" fill="#141E46"/>
<path d="M0.774 34.718C0.774 33.494 1.05 32.396 1.602 31.424C2.154 30.44 2.904 29.672 3.852 29.12C4.812 28.568 5.874 28.292 7.038 28.292C8.406 28.292 9.6 28.622 10.62 29.282C11.64 29.942 12.384 30.878 12.852 32.09H10.89C10.542 31.334 10.038 30.752 9.378 30.344C8.73 29.936 7.95 29.732 7.038 29.732C6.162 29.732 5.376 29.936 4.68 30.344C3.984 30.752 3.438 31.334 3.042 32.09C2.646 32.834 2.448 33.71 2.448 34.718C2.448 35.714 2.646 36.59 3.042 37.346C3.438 38.09 3.984 38.666 4.68 39.074C5.376 39.482 6.162 39.686 7.038 39.686C7.95 39.686 8.73 39.488 9.378 39.092C10.038 38.684 10.542 38.102 10.89 37.346H12.852C12.384 38.546 11.64 39.476 10.62 40.136C9.6 40.784 8.406 41.108 7.038 41.108C5.874 41.108 4.812 40.838 3.852 40.298C2.904 39.746 2.154 38.984 1.602 38.012C1.05 37.04 0.774 35.942 0.774 34.718ZM23.3183 31.136V41H21.6803V39.542C21.3683 40.046 20.9303 40.442 20.3663 40.73C19.8143 41.006 19.2023 41.144 18.5303 41.144C17.7623 41.144 17.0723 40.988 16.4603 40.676C15.8483 40.352 15.3623 39.872 15.0023 39.236C14.6543 38.6 14.4803 37.826 14.4803 36.914V31.136H16.1003V36.698C16.1003 37.67 16.3463 38.42 16.8383 38.948C17.3303 39.464 18.0023 39.722 18.8543 39.722C19.7303 39.722 20.4203 39.452 20.9243 38.912C21.4283 38.372 21.6803 37.586 21.6803 36.554V31.136H23.3183ZM28.856 41.162C28.1 41.162 27.422 41.036 26.822 40.784C26.222 40.52 25.748 40.16 25.4 39.704C25.052 39.236 24.86 38.702 24.824 38.102H26.516C26.564 38.594 26.792 38.996 27.2 39.308C27.62 39.62 28.166 39.776 28.838 39.776C29.462 39.776 29.954 39.638 30.314 39.362C30.674 39.086 30.854 38.738 30.854 38.318C30.854 37.886 30.662 37.568 30.278 37.364C29.894 37.148 29.3 36.938 28.496 36.734C27.764 36.542 27.164 36.35 26.696 36.158C26.24 35.954 25.844 35.66 25.508 35.276C25.184 34.88 25.022 34.364 25.022 33.728C25.022 33.224 25.172 32.762 25.472 32.342C25.772 31.922 26.198 31.592 26.75 31.352C27.302 31.1 27.932 30.974 28.64 30.974C29.732 30.974 30.614 31.25 31.286 31.802C31.958 32.354 32.318 33.11 32.366 34.07H30.728C30.692 33.554 30.482 33.14 30.098 32.828C29.726 32.516 29.222 32.36 28.586 32.36C27.998 32.36 27.53 32.486 27.182 32.738C26.834 32.99 26.66 33.32 26.66 33.728C26.66 34.052 26.762 34.322 26.966 34.538C27.182 34.742 27.446 34.91 27.758 35.042C28.082 35.162 28.526 35.3 29.09 35.456C29.798 35.648 30.374 35.84 30.818 36.032C31.262 36.212 31.64 36.488 31.952 36.86C32.276 37.232 32.444 37.718 32.456 38.318C32.456 38.858 32.306 39.344 32.006 39.776C31.706 40.208 31.28 40.55 30.728 40.802C30.188 41.042 29.564 41.162 28.856 41.162ZM36.0463 32.486V38.3C36.0463 38.78 36.1483 39.122 36.3523 39.326C36.5563 39.518 36.9103 39.614 37.4143 39.614H38.6203V41H37.1443C36.2323 41 35.5483 40.79 35.0923 40.37C34.6363 39.95 34.4083 39.26 34.4083 38.3V32.486H33.1303V31.136H34.4083V28.652H36.0463V31.136H38.6203V32.486H36.0463ZM44.1869 41.162C43.2629 41.162 42.4229 40.952 41.6669 40.532C40.9229 40.112 40.3349 39.518 39.9029 38.75C39.4829 37.97 39.2729 37.07 39.2729 36.05C39.2729 35.042 39.4889 34.154 39.9209 33.386C40.3649 32.606 40.9649 32.012 41.7209 31.604C42.4769 31.184 43.3229 30.974 44.2589 30.974C45.1949 30.974 46.0409 31.184 46.7969 31.604C47.5529 32.012 48.1469 32.6 48.5789 33.368C49.0229 34.136 49.2449 35.03 49.2449 36.05C49.2449 37.07 49.0169 37.97 48.5609 38.75C48.1169 39.518 47.5109 40.112 46.7429 40.532C45.9749 40.952 45.1229 41.162 44.1869 41.162ZM44.1869 39.722C44.7749 39.722 45.3269 39.584 45.8429 39.308C46.3589 39.032 46.7729 38.618 47.0849 38.066C47.4089 37.514 47.5709 36.842 47.5709 36.05C47.5709 35.258 47.4149 34.586 47.1029 34.034C46.7909 33.482 46.3829 33.074 45.8789 32.81C45.3749 32.534 44.8289 32.396 44.2409 32.396C43.6409 32.396 43.0889 32.534 42.5849 32.81C42.0929 33.074 41.6969 33.482 41.3969 34.034C41.0969 34.586 40.9469 35.258 40.9469 36.05C40.9469 36.854 41.0909 37.532 41.3789 38.084C41.6789 38.636 42.0749 39.05 42.5669 39.326C43.0589 39.59 43.5989 39.722 44.1869 39.722ZM62.5406 30.956C63.3086 30.956 63.9926 31.118 64.5926 31.442C65.1926 31.754 65.6666 32.228 66.0146 32.864C66.3626 33.5 66.5366 34.274 66.5366 35.186V41H64.9166V35.42C64.9166 34.436 64.6706 33.686 64.1786 33.17C63.6986 32.642 63.0446 32.378 62.2166 32.378C61.3646 32.378 60.6866 32.654 60.1826 33.206C59.6786 33.746 59.4266 34.532 59.4266 35.564V41H57.8066V35.42C57.8066 34.436 57.5606 33.686 57.0686 33.17C56.5886 32.642 55.9346 32.378 55.1066 32.378C54.2546 32.378 53.5766 32.654 53.0726 33.206C52.5686 33.746 52.3166 34.532 52.3166 35.564V41H50.6786V31.136H52.3166V32.558C52.6406 32.042 53.0726 31.646 53.6126 31.37C54.1646 31.094 54.7706 30.956 55.4306 30.956C56.2586 30.956 56.9906 31.142 57.6266 31.514C58.2626 31.886 58.7366 32.432 59.0486 33.152C59.3246 32.456 59.7806 31.916 60.4166 31.532C61.0526 31.148 61.7606 30.956 62.5406 30.956ZM77.5035 35.69C77.5035 36.002 77.4855 36.332 77.4495 36.68H69.5655C69.6255 37.652 69.9555 38.414 70.5555 38.966C71.1675 39.506 71.9055 39.776 72.7695 39.776C73.4775 39.776 74.0655 39.614 74.5335 39.29C75.0135 38.954 75.3495 38.51 75.5415 37.958H77.3055C77.0415 38.906 76.5135 39.68 75.7215 40.28C74.9295 40.868 73.9455 41.162 72.7695 41.162C71.8335 41.162 70.9935 40.952 70.2495 40.532C69.5175 40.112 68.9415 39.518 68.5215 38.75C68.1015 37.97 67.8915 37.07 67.8915 36.05C67.8915 35.03 68.0955 34.136 68.5035 33.368C68.9115 32.6 69.4815 32.012 70.2135 31.604C70.9575 31.184 71.8095 30.974 72.7695 30.974C73.7055 30.974 74.5335 31.178 75.2535 31.586C75.9735 31.994 76.5255 32.558 76.9095 33.278C77.3055 33.986 77.5035 34.79 77.5035 35.69ZM75.8115 35.348C75.8115 34.724 75.6735 34.19 75.3975 33.746C75.1215 33.29 74.7435 32.948 74.2635 32.72C73.7955 32.48 73.2735 32.36 72.6975 32.36C71.8695 32.36 71.1615 32.624 70.5735 33.152C69.9975 33.68 69.6675 34.412 69.5835 35.348H75.8115ZM80.5836 32.738C80.8716 32.174 81.2796 31.736 81.8076 31.424C82.3476 31.112 83.0016 30.956 83.7696 30.956V32.648H83.3376C81.5016 32.648 80.5836 33.644 80.5836 35.636V41H78.9456V31.136H80.5836V32.738Z" fill="#141E46"/>
</svg>
