<svg width="51" height="54" viewBox="0 0 51 54" fill="none" xmlns="http://www.w3.org/2000/svg">
<path d="M44.3063 47.8125H8.07502M36.7625 45.3375L44.2 45.5625L43.9875 6.1875L37.2938 6.3M36.7625 45.3375L37.2938 6.3M36.7625 45.3375L35.3813 44.775M37.2938 6.3L35.275 10.125L35.1688 15.3M35.3813 44.775L35.0625 15.1875L27.625 15.4125L28.475 44.55L35.3813 44.775ZM13.8125 15.975C13.1277 14.8774 12.2364 13.9413 11.1944 13.225C10.1523 12.5088 8.98186 12.0279 7.75627 11.8125M25.5 8.8875L26.9875 45.1125L17.7438 45L15.9375 9.45L25.5 8.8875ZM14.875 15.975L16.4688 45.5625L8.18127 45.675L6.69377 16.0875L14.875 15.975Z" stroke="#FFF5E0" stroke-linecap="round" stroke-linejoin="round"/>
</svg>
