<svg width="43" height="42" viewBox="0 0 43 42" fill="none" xmlns="http://www.w3.org/2000/svg">
<path d="M14.5573 3.5C13.5475 3.5 12.5791 3.8918 11.8651 4.5892C11.1511 5.2866 10.75 6.23248 10.75 7.21875V34.7812C10.75 35.7675 11.1511 36.7134 11.8651 37.4108C12.5791 38.1082 13.5475 38.5 14.5573 38.5H28.4427C29.4525 38.5 30.4209 38.1082 31.1349 37.4108C31.8489 36.7134 32.25 35.7675 32.25 34.7812V7.21875C32.25 6.23248 31.8489 5.2866 31.1349 4.5892C30.4209 3.8918 29.4525 3.5 28.4427 3.5H14.5573ZM12.9896 7.21875C12.9896 6.3735 13.6919 5.6875 14.5573 5.6875H28.4427C29.309 5.6875 30.0104 6.3735 30.0104 7.21875V34.7812C30.0104 35.1874 29.8452 35.5768 29.5512 35.864C29.2572 36.1512 28.8585 36.3125 28.4427 36.3125H14.5573C14.1415 36.3125 13.7428 36.1512 13.4488 35.864C13.1548 35.5768 12.9896 35.1874 12.9896 34.7812V7.21875ZM19.0365 31.0625C18.7395 31.0625 18.4546 31.1777 18.2446 31.3829C18.0346 31.588 17.9167 31.8662 17.9167 32.1562C17.9167 32.4463 18.0346 32.7245 18.2446 32.9296C18.4546 33.1348 18.7395 33.25 19.0365 33.25H23.9635C24.2605 33.25 24.5454 33.1348 24.7554 32.9296C24.9654 32.7245 25.0833 32.4463 25.0833 32.1562C25.0833 31.8662 24.9654 31.588 24.7554 31.3829C24.5454 31.1777 24.2605 31.0625 23.9635 31.0625H19.0365Z" fill="#FFF5E0"/>
</svg>
