<svg width="24" height="24" viewBox="0 0 24 24" fill="none" xmlns="http://www.w3.org/2000/svg">
<path d="M5 13C4.66 13 4.33 13.04 4 13.09V10C4 9.46957 4.21071 8.96086 4.58579 8.58579C4.96086 8.21071 5.46957 8 6 8H7V6C7 3.24 9.24 1 12 1C14.76 1 17 3.24 17 6V8H18C18.5304 8 19.0391 8.21071 19.4142 8.58579C19.7893 8.96086 20 9.46957 20 10V20C20 21.11 19.11 22 18 22H10.19C10.7 21.12 11 20.1 11 19C11 15.69 8.31 13 5 13ZM15 6C15 4.34 13.66 3 12 3C10.34 3 9 4.34 9 6V8H15V6ZM12 17C12.3956 17 12.7822 16.8827 13.1111 16.6629C13.44 16.4432 13.6964 16.1308 13.8478 15.7654C13.9991 15.3999 14.0387 14.9978 13.9616 14.6098C13.8844 14.2219 13.6939 13.8655 13.4142 13.5858C13.1345 13.3061 12.7781 13.1156 12.3902 13.0384C12.0022 12.9613 11.6001 13.0009 11.2346 13.1522C10.8692 13.3036 10.5568 13.56 10.3371 13.8889C10.1173 14.2178 10 14.6044 10 15C10 16.11 10.89 17 12 17ZM1.5 17.25L6.25 22L9 19L7.84 17.84L6.25 19.43L2.66 15.84L1.5 17.25Z" fill="#FFF5E0"/>
</svg>
