<svg width="80" height="24" viewBox="0 0 80 24" fill="none" xmlns="http://www.w3.org/2000/svg">
<path d="M4.016 0.759998V14.936C4.016 16.6213 4.45333 17.8907 5.328 18.744C6.224 19.5973 7.46133 20.024 9.04 20.024C10.64 20.024 11.8773 19.5973 12.752 18.744C13.648 17.8907 14.096 16.6213 14.096 14.936V0.759998H17.744V14.872C17.744 16.6853 17.3493 18.2213 16.56 19.48C15.7707 20.7387 14.7147 21.6773 13.392 22.296C12.0693 22.9147 10.608 23.224 9.008 23.224C7.408 23.224 5.94667 22.9147 4.624 22.296C3.32267 21.6773 2.288 20.7387 1.52 19.48C0.752 18.2213 0.368 16.6853 0.368 14.872V0.759998H4.016ZM27.6137 23.288C26.2271 23.288 24.9791 23.0427 23.8697 22.552C22.7817 22.04 21.9177 21.3573 21.2777 20.504C20.6377 19.6293 20.2964 18.6587 20.2537 17.592H24.0297C24.0937 18.3387 24.4457 18.968 25.0857 19.48C25.7471 19.9707 26.5684 20.216 27.5497 20.216C28.5737 20.216 29.3631 20.024 29.9177 19.64C30.4937 19.2347 30.7817 18.7227 30.7817 18.104C30.7817 17.4427 30.4617 16.952 29.8217 16.632C29.2031 16.312 28.2111 15.96 26.8457 15.576C25.5231 15.2133 24.4457 14.8613 23.6137 14.52C22.7817 14.1787 22.0564 13.656 21.4377 12.952C20.8404 12.248 20.5417 11.32 20.5417 10.168C20.5417 9.22933 20.8191 8.376 21.3737 7.608C21.9284 6.81867 22.7177 6.2 23.7417 5.752C24.7871 5.304 25.9817 5.08 27.3257 5.08C29.3311 5.08 30.9417 5.592 32.1578 6.616C33.3951 7.61867 34.0564 8.99467 34.1418 10.744H30.4937C30.4297 9.95467 30.1097 9.32533 29.5337 8.856C28.9578 8.38667 28.1791 8.152 27.1978 8.152C26.2377 8.152 25.5017 8.33333 24.9897 8.696C24.4777 9.05867 24.2217 9.53867 24.2217 10.136C24.2217 10.6053 24.3924 11 24.7337 11.32C25.0751 11.64 25.4911 11.896 25.9817 12.088C26.4724 12.2587 27.1977 12.4827 28.1578 12.76C29.4378 13.1013 30.4831 13.4533 31.2937 13.816C32.1257 14.1573 32.8404 14.6693 33.4377 15.352C34.0351 16.0347 34.3444 16.9413 34.3658 18.072C34.3658 19.0747 34.0884 19.9707 33.5337 20.76C32.9791 21.5493 32.1897 22.168 31.1657 22.616C30.1631 23.064 28.9791 23.288 27.6137 23.288ZM53.1875 13.752C53.1875 14.4133 53.1448 15.0107 53.0595 15.544H39.5875C39.6942 16.952 40.2168 18.0827 41.1555 18.936C42.0942 19.7893 43.2462 20.216 44.6115 20.216C46.5742 20.216 47.9608 19.3947 48.7715 17.752H52.7075C52.1742 19.3733 51.2035 20.7067 49.7955 21.752C48.4088 22.776 46.6808 23.288 44.6115 23.288C42.9262 23.288 41.4115 22.9147 40.0675 22.168C38.7448 21.4 37.6995 20.3333 36.9315 18.968C36.1848 17.5813 35.8115 15.9813 35.8115 14.168C35.8115 12.3547 36.1742 10.7653 36.8995 9.4C37.6462 8.01333 38.6808 6.94667 40.0035 6.2C41.3475 5.45333 42.8835 5.08 44.6115 5.08C46.2755 5.08 47.7582 5.44267 49.0595 6.168C50.3608 6.89333 51.3742 7.91733 52.0995 9.24C52.8248 10.5413 53.1875 12.0453 53.1875 13.752ZM49.3795 12.6C49.3582 11.256 48.8782 10.1787 47.9395 9.368C47.0008 8.55733 45.8382 8.152 44.4515 8.152C43.1928 8.152 42.1155 8.55733 41.2195 9.368C40.3235 10.1573 39.7902 11.2347 39.6195 12.6H49.3795ZM59.1455 7.928C59.6788 7.032 60.3828 6.33867 61.2575 5.848C62.1535 5.336 63.2095 5.08 64.4255 5.08V8.856H63.4975C62.0682 8.856 60.9802 9.21867 60.2335 9.944C59.5082 10.6693 59.1455 11.928 59.1455 13.72V23H55.4975V5.368H59.1455V7.928ZM72.8987 23.288C71.5121 23.288 70.2641 23.0427 69.1547 22.552C68.0667 22.04 67.2027 21.3573 66.5627 20.504C65.9227 19.6293 65.5814 18.6587 65.5387 17.592H69.3147C69.3787 18.3387 69.7307 18.968 70.3707 19.48C71.0321 19.9707 71.8534 20.216 72.8347 20.216C73.8587 20.216 74.6481 20.024 75.2027 19.64C75.7787 19.2347 76.0667 18.7227 76.0667 18.104C76.0667 17.4427 75.7467 16.952 75.1067 16.632C74.4881 16.312 73.4961 15.96 72.1307 15.576C70.8081 15.2133 69.7307 14.8613 68.8987 14.52C68.0667 14.1787 67.3414 13.656 66.7227 12.952C66.1254 12.248 65.8267 11.32 65.8267 10.168C65.8267 9.22933 66.1041 8.376 66.6587 7.608C67.2134 6.81867 68.0027 6.2 69.0267 5.752C70.0721 5.304 71.2667 5.08 72.6107 5.08C74.6161 5.08 76.2267 5.592 77.4427 6.616C78.6801 7.61867 79.3414 8.99467 79.4267 10.744H75.7787C75.7147 9.95467 75.3947 9.32533 74.8187 8.856C74.2427 8.38667 73.4641 8.152 72.4827 8.152C71.5227 8.152 70.7867 8.33333 70.2747 8.696C69.7627 9.05867 69.5067 9.53867 69.5067 10.136C69.5067 10.6053 69.6774 11 70.0187 11.32C70.3601 11.64 70.7761 11.896 71.2667 12.088C71.7574 12.2587 72.4827 12.4827 73.4427 12.76C74.7227 13.1013 75.7681 13.4533 76.5787 13.816C77.4107 14.1573 78.1254 14.6693 78.7227 15.352C79.3201 16.0347 79.6294 16.9413 79.6507 18.072C79.6507 19.0747 79.3734 19.9707 78.8187 20.76C78.2641 21.5493 77.4747 22.168 76.4507 22.616C75.4481 23.064 74.2641 23.288 72.8987 23.288Z" fill="#FFF5E0"/>
</svg>
