<svg width="39" height="15" viewBox="0 0 39 15" fill="none" xmlns="http://www.w3.org/2000/svg">
<path d="M5.058 12.488L8.118 4.136H9.864L5.994 14H4.086L0.216 4.136H1.98L5.058 12.488ZM11.6018 2.534C11.2898 2.534 11.0258 2.426 10.8098 2.21C10.5938 1.994 10.4858 1.73 10.4858 1.418C10.4858 1.106 10.5938 0.842 10.8098 0.625999C11.0258 0.409999 11.2898 0.301999 11.6018 0.301999C11.9018 0.301999 12.1538 0.409999 12.3578 0.625999C12.5738 0.842 12.6818 1.106 12.6818 1.418C12.6818 1.73 12.5738 1.994 12.3578 2.21C12.1538 2.426 11.9018 2.534 11.6018 2.534ZM12.3938 4.136V14H10.7558V4.136H12.3938ZM23.4655 8.69C23.4655 9.002 23.4475 9.332 23.4115 9.68H15.5275C15.5875 10.652 15.9175 11.414 16.5175 11.966C17.1295 12.506 17.8675 12.776 18.7315 12.776C19.4395 12.776 20.0275 12.614 20.4955 12.29C20.9755 11.954 21.3115 11.51 21.5035 10.958H23.2675C23.0035 11.906 22.4755 12.68 21.6835 13.28C20.8915 13.868 19.9075 14.162 18.7315 14.162C17.7955 14.162 16.9555 13.952 16.2115 13.532C15.4795 13.112 14.9035 12.518 14.4835 11.75C14.0635 10.97 13.8535 10.07 13.8535 9.05C13.8535 8.03 14.0575 7.136 14.4655 6.368C14.8735 5.6 15.4435 5.012 16.1755 4.604C16.9195 4.184 17.7715 3.974 18.7315 3.974C19.6675 3.974 20.4955 4.178 21.2155 4.586C21.9355 4.994 22.4875 5.558 22.8715 6.278C23.2675 6.986 23.4655 7.79 23.4655 8.69ZM21.7735 8.348C21.7735 7.724 21.6355 7.19 21.3595 6.746C21.0835 6.29 20.7055 5.948 20.2255 5.72C19.7575 5.48 19.2355 5.36 18.6595 5.36C17.8315 5.36 17.1235 5.624 16.5355 6.152C15.9595 6.68 15.6295 7.412 15.5455 8.348H21.7735ZM38.0476 4.136L34.9696 14H33.2776L30.9016 6.17L28.5256 14H26.8336L23.7376 4.136H25.4116L27.6796 12.416L30.1276 4.136H31.8016L34.1956 12.434L36.4276 4.136H38.0476Z" fill="#141E46"/>
</svg>
